M48
; DRILL file {KiCad 7.0.1} date Пт 03 ноя 2023 16:51:07
; FORMAT={-:-/ absolute / metric / decimal}
; #@! TF.CreationDate,2023-11-03T16:51:07+00:00
; #@! TF.GenerationSoftware,Kicad,Pcbnew,7.0.1
; #@! TF.FileFunction,Plated,1,2,PTH
FMAT,2
METRIC
; #@! TA.AperFunction,Plated,PTH,ViaDrill
T1C0.400
; #@! TA.AperFunction,Plated,PTH,ComponentDrill
T2C0.650
; #@! TA.AperFunction,Plated,PTH,ComponentDrill
T3C0.700
; #@! TA.AperFunction,Plated,PTH,ComponentDrill
T4C0.800
; #@! TA.AperFunction,Plated,PTH,ComponentDrill
T5C1.000
%
G90
G05
T1
X91.53Y-105.35
X91.53Y-112.79
X91.54Y-115.08
X91.54Y-122.52
X91.54Y-125.18
X91.56Y-102.93
X91.56Y-107.81
X91.57Y-93.06
X91.57Y-100.5
X91.57Y-117.54
X91.58Y-110.39
X91.59Y-120.12
X91.6Y-78.31
X91.6Y-80.54
X91.6Y-87.98
X91.6Y-90.64
X91.6Y-95.52
X91.62Y-98.1
X91.63Y-83.0
X91.65Y-85.58
X93.38Y-126.46
X94.0Y-78.36
X95.78Y-126.51
X96.58Y-78.34
X98.36Y-126.49
X99.04Y-78.31
X100.82Y-126.46
X101.25Y-111.97
X101.26Y-109.22
X101.46Y-78.34
X103.24Y-126.49
X103.89Y-78.35
X105.67Y-126.5
X106.29Y-78.4
X108.07Y-126.55
X108.87Y-78.38
X110.65Y-126.53
X111.33Y-78.35
X111.65Y-107.45
X111.66Y-110.88
X111.67Y-103.84
X113.11Y-126.5
X113.75Y-78.38
X115.53Y-126.53
X116.41Y-78.38
X117.98Y-98.86
X118.19Y-126.53
X118.81Y-78.43
X119.03Y-88.56
X120.59Y-126.58
X120.6Y-99.46
X121.39Y-78.41
X121.43Y-88.61
X123.06Y-96.915
X123.17Y-126.56
X123.85Y-78.38
X124.01Y-88.59
X125.61Y-97.04
X125.63Y-126.53
X126.27Y-78.41
X126.47Y-88.56
X127.7Y-126.51
X128.15Y-89.52
X128.15Y-103.27
X129.22Y-78.42
X129.39Y-96.87
X129.41Y-89.52
X130.1Y-126.56
X130.69Y-90.39
X131.49Y-105.48
X131.62Y-78.47
X132.24Y-90.32
X132.68Y-126.54
X133.23Y-92.269
X133.57Y-97.8
X133.57Y-103.16
X134.2Y-78.45
X134.49Y-90.32
X135.14Y-126.51
X135.73Y-91.82
X136.57Y-90.39
X136.66Y-78.42
X137.56Y-126.54
X138.5Y-105.42
X139.08Y-78.45
X139.99Y-126.55
X141.72Y-78.44
X142.39Y-126.6
X143.49Y-105.09
X144.12Y-78.49
X144.97Y-126.58
X146.7Y-78.47
X147.43Y-126.55
X149.16Y-78.44
X149.85Y-126.58
X151.58Y-78.47
X152.395Y-88.395
X152.41Y-81.79
X152.51Y-126.58
X154.33Y-78.47
X154.91Y-126.63
X156.73Y-78.52
X157.49Y-126.61
X159.31Y-78.5
X159.95Y-126.58
X161.77Y-78.47
X162.36Y-126.58
X164.19Y-78.5
X164.76Y-126.63
X166.73Y-78.48
X167.34Y-126.61
X169.13Y-78.53
X169.8Y-126.58
X171.71Y-78.51
X172.22Y-126.61
X174.17Y-78.48
X174.65Y-126.62
X175.35Y-104.55
X175.35Y-111.99
X175.36Y-114.28
X175.36Y-121.72
X175.36Y-124.38
X175.38Y-102.13
X175.38Y-107.01
X175.39Y-92.26
X175.39Y-99.7
X175.39Y-116.74
X175.4Y-109.59
X175.41Y-119.32
X175.42Y-79.74
X175.42Y-87.18
X175.42Y-89.84
X175.42Y-94.72
X175.44Y-97.3
X175.45Y-82.2
X175.47Y-84.78
T2
X106.675Y-92.38
X106.675Y-93.65
T3
X166.86Y-98.55
X166.86Y-99.82
X166.86Y-101.09
X166.86Y-102.36
X166.86Y-103.63
X166.86Y-104.9
X166.86Y-106.17
X166.86Y-107.44
X166.86Y-108.71
X166.86Y-109.98
T4
X104.135Y-83.74
X104.135Y-86.28
X104.135Y-96.44
X104.135Y-98.98
X104.135Y-101.52
X104.135Y-109.14
X104.135Y-111.68
X104.135Y-114.22
X104.135Y-116.76
X104.135Y-119.3
X106.675Y-83.74
X106.675Y-86.28
X106.675Y-96.44
X106.675Y-98.98
X106.675Y-101.52
X106.675Y-109.14
X106.675Y-111.68
X106.675Y-114.22
X106.675Y-116.76
X106.675Y-119.3
X109.215Y-83.74
X109.215Y-86.28
X109.215Y-116.76
X109.215Y-119.3
X111.755Y-83.74
X111.755Y-86.28
X111.755Y-116.76
X111.755Y-119.3
X114.295Y-83.74
X114.295Y-86.28
X114.295Y-116.76
X114.295Y-119.3
X116.835Y-83.74
X116.835Y-86.28
X116.835Y-116.76
X116.835Y-119.3
X119.375Y-83.74
X119.375Y-86.28
X119.375Y-116.76
X119.375Y-119.3
X121.915Y-83.74
X121.915Y-86.28
X121.915Y-116.76
X121.915Y-119.3
X124.455Y-83.74
X124.455Y-86.28
X124.455Y-116.76
X124.455Y-119.3
X126.995Y-83.74
X126.995Y-86.28
X126.995Y-116.76
X126.995Y-119.3
X128.13Y-100.9
X128.13Y-108.52
X129.535Y-83.74
X129.535Y-86.28
X129.535Y-116.76
X129.535Y-119.3
X130.67Y-100.9
X130.67Y-108.52
X132.075Y-83.74
X132.075Y-86.28
X132.075Y-116.76
X132.075Y-119.3
X133.21Y-100.9
X133.21Y-108.52
X134.615Y-83.74
X134.615Y-86.28
X134.615Y-116.76
X134.615Y-119.3
X135.75Y-100.9
X135.75Y-108.52
X137.155Y-83.74
X137.155Y-86.28
X137.155Y-116.76
X137.155Y-119.3
X138.29Y-100.9
X138.29Y-108.52
X139.695Y-83.74
X139.695Y-86.28
X139.695Y-116.76
X139.695Y-119.3
X140.83Y-100.9
X140.83Y-108.52
X142.235Y-83.74
X142.235Y-86.28
X142.235Y-116.76
X142.235Y-119.3
X143.37Y-100.9
X143.37Y-108.52
X144.775Y-83.74
X144.775Y-86.28
X145.91Y-100.9
X145.91Y-108.52
X147.315Y-83.74
X147.315Y-86.28
X149.855Y-83.74
X149.855Y-86.28
X152.395Y-83.74
X152.395Y-86.28
X154.935Y-83.74
X154.935Y-86.28
T5
X99.385Y-92.395
X99.385Y-94.935
X99.385Y-97.475
X99.385Y-100.015
X99.385Y-102.555
X99.385Y-105.095
X99.385Y-107.635
X102.08Y-124.34
X104.62Y-124.34
X107.16Y-124.34
X109.7Y-124.34
X112.24Y-124.34
X114.78Y-124.34
X117.32Y-124.34
X117.95Y-94.575
X119.86Y-124.34
X120.49Y-94.575
X122.4Y-124.34
X123.03Y-94.575
X124.94Y-124.34
X125.57Y-94.575
X127.48Y-124.34
X128.11Y-94.575
X130.02Y-124.34
X130.65Y-94.575
X132.56Y-124.34
X133.19Y-94.575
X135.1Y-124.34
X135.73Y-94.575
X137.64Y-124.34
X138.27Y-94.575
X140.18Y-124.34
X140.81Y-94.575
X143.35Y-94.575
X145.86Y-124.41
X145.89Y-94.575
X148.4Y-124.41
X153.34Y-124.45
X155.88Y-124.45
X159.69Y-93.54
X159.69Y-96.08
X159.69Y-98.62
X159.69Y-101.16
X159.69Y-103.7
X159.69Y-106.24
X159.69Y-108.78
X159.69Y-111.32
X159.69Y-113.86
X160.875Y-124.5
X163.415Y-124.5
X166.8Y-84.65
X166.8Y-87.19
X166.8Y-89.73
X166.8Y-92.27
X166.8Y-94.81
T0
M30
