%TF.GenerationSoftware,KiCad,Pcbnew,7.0.1*%
%TF.CreationDate,2023-11-03T16:51:15+00:00*%
%TF.ProjectId,Control_Board,436f6e74-726f-46c5-9f42-6f6172642e6b,rev?*%
%TF.SameCoordinates,Original*%
%TF.FileFunction,Copper,L2,Bot*%
%TF.FilePolarity,Positive*%
%FSLAX45Y45*%
G04 Gerber Fmt 4.5, Leading zero omitted, Abs format (unit mm)*
G04 Created by KiCad (PCBNEW 7.0.1) date 2023-11-03 16:51:15*
%MOMM*%
%LPD*%
G01*
G04 APERTURE LIST*
G04 Aperture macros list*
%AMRoundRect*
0 Rectangle with rounded corners*
0 $1 Rounding radius*
0 $2 $3 $4 $5 $6 $7 $8 $9 X,Y pos of 4 corners*
0 Add a 4 corners polygon primitive as box body*
4,1,4,$2,$3,$4,$5,$6,$7,$8,$9,$2,$3,0*
0 Add four circle primitives for the rounded corners*
1,1,$1+$1,$2,$3*
1,1,$1+$1,$4,$5*
1,1,$1+$1,$6,$7*
1,1,$1+$1,$8,$9*
0 Add four rect primitives between the rounded corners*
20,1,$1+$1,$2,$3,$4,$5,0*
20,1,$1+$1,$4,$5,$6,$7,0*
20,1,$1+$1,$6,$7,$8,$9,0*
20,1,$1+$1,$8,$9,$2,$3,0*%
G04 Aperture macros list end*
%ADD10C,0.100000*%
%ADD11C,0.150000*%
%ADD12C,0.300000*%
%ADD13C,0.400000*%
%TA.AperFunction,ComponentPad*%
%ADD14R,1.700000X1.700000*%
%TD*%
%TA.AperFunction,ComponentPad*%
%ADD15O,1.700000X1.700000*%
%TD*%
%TA.AperFunction,ComponentPad*%
%ADD16R,1.000000X1.000000*%
%TD*%
%TA.AperFunction,ComponentPad*%
%ADD17O,1.000000X1.000000*%
%TD*%
%TA.AperFunction,ComponentPad*%
%ADD18C,1.676400*%
%TD*%
%TA.AperFunction,ComponentPad*%
%ADD19R,1.600000X1.600000*%
%TD*%
%TA.AperFunction,ComponentPad*%
%ADD20O,1.600000X1.600000*%
%TD*%
%TA.AperFunction,SMDPad,CuDef*%
%ADD21RoundRect,0.250000X-0.625000X0.312500X-0.625000X-0.312500X0.625000X-0.312500X0.625000X0.312500X0*%
%TD*%
%TA.AperFunction,SMDPad,CuDef*%
%ADD22RoundRect,0.250000X-0.375000X-0.625000X0.375000X-0.625000X0.375000X0.625000X-0.375000X0.625000X0*%
%TD*%
%TA.AperFunction,SMDPad,CuDef*%
%ADD23RoundRect,0.250000X0.625000X-0.312500X0.625000X0.312500X-0.625000X0.312500X-0.625000X-0.312500X0*%
%TD*%
%TA.AperFunction,ViaPad*%
%ADD24C,0.800000*%
%TD*%
%TA.AperFunction,Conductor*%
%ADD25C,1.800000*%
%TD*%
%TA.AperFunction,Conductor*%
%ADD26C,1.500000*%
%TD*%
%TA.AperFunction,Conductor*%
%ADD27C,2.000000*%
%TD*%
%TA.AperFunction,Conductor*%
%ADD28C,0.200000*%
%TD*%
%TA.AperFunction,Conductor*%
%ADD29C,1.000000*%
%TD*%
%TA.AperFunction,Conductor*%
%ADD30C,0.800000*%
%TD*%
%TA.AperFunction,Conductor*%
%ADD31C,0.400000*%
%TD*%
%TA.AperFunction,Conductor*%
%ADD32C,0.700000*%
%TD*%
%TA.AperFunction,Profile*%
%ADD33C,0.200000*%
%TD*%
%TA.AperFunction,Profile*%
%ADD34C,0.100000*%
%TD*%
G04 APERTURE END LIST*
D10*
D11*
X17700220Y-16600720D02*
X28500220Y-16600720D01*
X28500220Y-19800720D01*
X17700220Y-19800720D01*
X17700220Y-16600720D01*
D10*
D11*
X1000000Y-1000000D02*
X28700220Y-1000000D01*
X28700220Y-20000720D01*
X1000000Y-20000720D01*
X1000000Y-1000000D01*
D10*
D11*
X1200000Y-1200000D02*
X28500220Y-1200000D01*
X28500220Y-19800720D01*
X1200000Y-19800720D01*
X1200000Y-1200000D01*
D10*
D11*
X6000000Y-1200000D02*
X6000000Y-1000000D01*
D10*
D11*
X11000000Y-1200000D02*
X11000000Y-1000000D01*
D10*
D11*
X16000000Y-1200000D02*
X16000000Y-1000000D01*
D10*
D11*
X21000000Y-1200000D02*
X21000000Y-1000000D01*
D10*
D11*
X26000000Y-1200000D02*
X26000000Y-1000000D01*
D10*
D11*
X3599048Y-1160140D02*
X3524762Y-1160140D01*
X3561905Y-1160140D02*
X3561905Y-1030140D01*
X3561905Y-1030140D02*
X3549524Y-1048712D01*
X3549524Y-1048712D02*
X3537143Y-1061093D01*
X3537143Y-1061093D02*
X3524762Y-1067283D01*
D10*
D11*
X8524762Y-1042521D02*
X8530952Y-1036331D01*
X8530952Y-1036331D02*
X8543333Y-1030140D01*
X8543333Y-1030140D02*
X8574286Y-1030140D01*
X8574286Y-1030140D02*
X8586667Y-1036331D01*
X8586667Y-1036331D02*
X8592857Y-1042521D01*
X8592857Y-1042521D02*
X8599048Y-1054902D01*
X8599048Y-1054902D02*
X8599048Y-1067283D01*
X8599048Y-1067283D02*
X8592857Y-1085855D01*
X8592857Y-1085855D02*
X8518571Y-1160140D01*
X8518571Y-1160140D02*
X8599048Y-1160140D01*
D10*
D11*
X13518571Y-1030140D02*
X13599048Y-1030140D01*
X13599048Y-1030140D02*
X13555714Y-1079664D01*
X13555714Y-1079664D02*
X13574286Y-1079664D01*
X13574286Y-1079664D02*
X13586667Y-1085855D01*
X13586667Y-1085855D02*
X13592857Y-1092045D01*
X13592857Y-1092045D02*
X13599048Y-1104426D01*
X13599048Y-1104426D02*
X13599048Y-1135379D01*
X13599048Y-1135379D02*
X13592857Y-1147760D01*
X13592857Y-1147760D02*
X13586667Y-1153950D01*
X13586667Y-1153950D02*
X13574286Y-1160140D01*
X13574286Y-1160140D02*
X13537143Y-1160140D01*
X13537143Y-1160140D02*
X13524762Y-1153950D01*
X13524762Y-1153950D02*
X13518571Y-1147760D01*
D10*
D11*
X18586667Y-1073474D02*
X18586667Y-1160140D01*
X18555714Y-1023950D02*
X18524762Y-1116807D01*
X18524762Y-1116807D02*
X18605238Y-1116807D01*
D10*
D11*
X23592857Y-1030140D02*
X23530952Y-1030140D01*
X23530952Y-1030140D02*
X23524762Y-1092045D01*
X23524762Y-1092045D02*
X23530952Y-1085855D01*
X23530952Y-1085855D02*
X23543333Y-1079664D01*
X23543333Y-1079664D02*
X23574286Y-1079664D01*
X23574286Y-1079664D02*
X23586667Y-1085855D01*
X23586667Y-1085855D02*
X23592857Y-1092045D01*
X23592857Y-1092045D02*
X23599048Y-1104426D01*
X23599048Y-1104426D02*
X23599048Y-1135379D01*
X23599048Y-1135379D02*
X23592857Y-1147760D01*
X23592857Y-1147760D02*
X23586667Y-1153950D01*
X23586667Y-1153950D02*
X23574286Y-1160140D01*
X23574286Y-1160140D02*
X23543333Y-1160140D01*
X23543333Y-1160140D02*
X23530952Y-1153950D01*
X23530952Y-1153950D02*
X23524762Y-1147760D01*
D10*
D11*
X28586667Y-1030140D02*
X28561905Y-1030140D01*
X28561905Y-1030140D02*
X28549524Y-1036331D01*
X28549524Y-1036331D02*
X28543333Y-1042521D01*
X28543333Y-1042521D02*
X28530952Y-1061093D01*
X28530952Y-1061093D02*
X28524762Y-1085855D01*
X28524762Y-1085855D02*
X28524762Y-1135379D01*
X28524762Y-1135379D02*
X28530952Y-1147760D01*
X28530952Y-1147760D02*
X28537143Y-1153950D01*
X28537143Y-1153950D02*
X28549524Y-1160140D01*
X28549524Y-1160140D02*
X28574286Y-1160140D01*
X28574286Y-1160140D02*
X28586667Y-1153950D01*
X28586667Y-1153950D02*
X28592857Y-1147760D01*
X28592857Y-1147760D02*
X28599048Y-1135379D01*
X28599048Y-1135379D02*
X28599048Y-1104426D01*
X28599048Y-1104426D02*
X28592857Y-1092045D01*
X28592857Y-1092045D02*
X28586667Y-1085855D01*
X28586667Y-1085855D02*
X28574286Y-1079664D01*
X28574286Y-1079664D02*
X28549524Y-1079664D01*
X28549524Y-1079664D02*
X28537143Y-1085855D01*
X28537143Y-1085855D02*
X28530952Y-1092045D01*
X28530952Y-1092045D02*
X28524762Y-1104426D01*
D10*
D11*
X6000000Y-19800720D02*
X6000000Y-20000720D01*
D10*
D11*
X11000000Y-19800720D02*
X11000000Y-20000720D01*
D10*
D11*
X16000000Y-19800720D02*
X16000000Y-20000720D01*
D10*
D11*
X21000000Y-19800720D02*
X21000000Y-20000720D01*
D10*
D11*
X26000000Y-19800720D02*
X26000000Y-20000720D01*
D10*
D11*
X3599048Y-19960860D02*
X3524762Y-19960860D01*
X3561905Y-19960860D02*
X3561905Y-19830860D01*
X3561905Y-19830860D02*
X3549524Y-19849432D01*
X3549524Y-19849432D02*
X3537143Y-19861813D01*
X3537143Y-19861813D02*
X3524762Y-19868003D01*
D10*
D11*
X8524762Y-19843241D02*
X8530952Y-19837051D01*
X8530952Y-19837051D02*
X8543333Y-19830860D01*
X8543333Y-19830860D02*
X8574286Y-19830860D01*
X8574286Y-19830860D02*
X8586667Y-19837051D01*
X8586667Y-19837051D02*
X8592857Y-19843241D01*
X8592857Y-19843241D02*
X8599048Y-19855622D01*
X8599048Y-19855622D02*
X8599048Y-19868003D01*
X8599048Y-19868003D02*
X8592857Y-19886575D01*
X8592857Y-19886575D02*
X8518571Y-19960860D01*
X8518571Y-19960860D02*
X8599048Y-19960860D01*
D10*
D11*
X13518571Y-19830860D02*
X13599048Y-19830860D01*
X13599048Y-19830860D02*
X13555714Y-19880384D01*
X13555714Y-19880384D02*
X13574286Y-19880384D01*
X13574286Y-19880384D02*
X13586667Y-19886575D01*
X13586667Y-19886575D02*
X13592857Y-19892765D01*
X13592857Y-19892765D02*
X13599048Y-19905146D01*
X13599048Y-19905146D02*
X13599048Y-19936099D01*
X13599048Y-19936099D02*
X13592857Y-19948480D01*
X13592857Y-19948480D02*
X13586667Y-19954670D01*
X13586667Y-19954670D02*
X13574286Y-19960860D01*
X13574286Y-19960860D02*
X13537143Y-19960860D01*
X13537143Y-19960860D02*
X13524762Y-19954670D01*
X13524762Y-19954670D02*
X13518571Y-19948480D01*
D10*
D11*
X18586667Y-19874194D02*
X18586667Y-19960860D01*
X18555714Y-19824670D02*
X18524762Y-19917527D01*
X18524762Y-19917527D02*
X18605238Y-19917527D01*
D10*
D11*
X23592857Y-19830860D02*
X23530952Y-19830860D01*
X23530952Y-19830860D02*
X23524762Y-19892765D01*
X23524762Y-19892765D02*
X23530952Y-19886575D01*
X23530952Y-19886575D02*
X23543333Y-19880384D01*
X23543333Y-19880384D02*
X23574286Y-19880384D01*
X23574286Y-19880384D02*
X23586667Y-19886575D01*
X23586667Y-19886575D02*
X23592857Y-19892765D01*
X23592857Y-19892765D02*
X23599048Y-19905146D01*
X23599048Y-19905146D02*
X23599048Y-19936099D01*
X23599048Y-19936099D02*
X23592857Y-19948480D01*
X23592857Y-19948480D02*
X23586667Y-19954670D01*
X23586667Y-19954670D02*
X23574286Y-19960860D01*
X23574286Y-19960860D02*
X23543333Y-19960860D01*
X23543333Y-19960860D02*
X23530952Y-19954670D01*
X23530952Y-19954670D02*
X23524762Y-19948480D01*
D10*
D11*
X28586667Y-19830860D02*
X28561905Y-19830860D01*
X28561905Y-19830860D02*
X28549524Y-19837051D01*
X28549524Y-19837051D02*
X28543333Y-19843241D01*
X28543333Y-19843241D02*
X28530952Y-19861813D01*
X28530952Y-19861813D02*
X28524762Y-19886575D01*
X28524762Y-19886575D02*
X28524762Y-19936099D01*
X28524762Y-19936099D02*
X28530952Y-19948480D01*
X28530952Y-19948480D02*
X28537143Y-19954670D01*
X28537143Y-19954670D02*
X28549524Y-19960860D01*
X28549524Y-19960860D02*
X28574286Y-19960860D01*
X28574286Y-19960860D02*
X28586667Y-19954670D01*
X28586667Y-19954670D02*
X28592857Y-19948480D01*
X28592857Y-19948480D02*
X28599048Y-19936099D01*
X28599048Y-19936099D02*
X28599048Y-19905146D01*
X28599048Y-19905146D02*
X28592857Y-19892765D01*
X28592857Y-19892765D02*
X28586667Y-19886575D01*
X28586667Y-19886575D02*
X28574286Y-19880384D01*
X28574286Y-19880384D02*
X28549524Y-19880384D01*
X28549524Y-19880384D02*
X28537143Y-19886575D01*
X28537143Y-19886575D02*
X28530952Y-19892765D01*
X28530952Y-19892765D02*
X28524762Y-19905146D01*
D10*
D11*
X1000000Y-6000000D02*
X1200000Y-6000000D01*
D10*
D11*
X1000000Y-11000000D02*
X1200000Y-11000000D01*
D10*
D11*
X1000000Y-16000000D02*
X1200000Y-16000000D01*
D10*
D11*
X1069048Y-3522998D02*
X1130952Y-3522998D01*
X1056667Y-3560140D02*
X1100000Y-3430140D01*
X1100000Y-3430140D02*
X1143333Y-3560140D01*
D10*
D11*
X1109286Y-8492045D02*
X1127857Y-8498236D01*
X1127857Y-8498236D02*
X1134048Y-8504426D01*
X1134048Y-8504426D02*
X1140238Y-8516807D01*
X1140238Y-8516807D02*
X1140238Y-8535379D01*
X1140238Y-8535379D02*
X1134048Y-8547760D01*
X1134048Y-8547760D02*
X1127857Y-8553950D01*
X1127857Y-8553950D02*
X1115476Y-8560140D01*
X1115476Y-8560140D02*
X1065952Y-8560140D01*
X1065952Y-8560140D02*
X1065952Y-8430140D01*
X1065952Y-8430140D02*
X1109286Y-8430140D01*
X1109286Y-8430140D02*
X1121667Y-8436331D01*
X1121667Y-8436331D02*
X1127857Y-8442521D01*
X1127857Y-8442521D02*
X1134048Y-8454902D01*
X1134048Y-8454902D02*
X1134048Y-8467283D01*
X1134048Y-8467283D02*
X1127857Y-8479664D01*
X1127857Y-8479664D02*
X1121667Y-8485855D01*
X1121667Y-8485855D02*
X1109286Y-8492045D01*
X1109286Y-8492045D02*
X1065952Y-8492045D01*
D10*
D11*
X1140238Y-13547759D02*
X1134048Y-13553950D01*
X1134048Y-13553950D02*
X1115476Y-13560140D01*
X1115476Y-13560140D02*
X1103095Y-13560140D01*
X1103095Y-13560140D02*
X1084524Y-13553950D01*
X1084524Y-13553950D02*
X1072143Y-13541569D01*
X1072143Y-13541569D02*
X1065952Y-13529188D01*
X1065952Y-13529188D02*
X1059762Y-13504426D01*
X1059762Y-13504426D02*
X1059762Y-13485855D01*
X1059762Y-13485855D02*
X1065952Y-13461093D01*
X1065952Y-13461093D02*
X1072143Y-13448712D01*
X1072143Y-13448712D02*
X1084524Y-13436331D01*
X1084524Y-13436331D02*
X1103095Y-13430140D01*
X1103095Y-13430140D02*
X1115476Y-13430140D01*
X1115476Y-13430140D02*
X1134048Y-13436331D01*
X1134048Y-13436331D02*
X1140238Y-13442521D01*
D10*
D11*
X1065952Y-18560140D02*
X1065952Y-18430140D01*
X1065952Y-18430140D02*
X1096905Y-18430140D01*
X1096905Y-18430140D02*
X1115476Y-18436331D01*
X1115476Y-18436331D02*
X1127857Y-18448712D01*
X1127857Y-18448712D02*
X1134048Y-18461093D01*
X1134048Y-18461093D02*
X1140238Y-18485855D01*
X1140238Y-18485855D02*
X1140238Y-18504426D01*
X1140238Y-18504426D02*
X1134048Y-18529188D01*
X1134048Y-18529188D02*
X1127857Y-18541569D01*
X1127857Y-18541569D02*
X1115476Y-18553950D01*
X1115476Y-18553950D02*
X1096905Y-18560140D01*
X1096905Y-18560140D02*
X1065952Y-18560140D01*
D10*
D11*
X28700220Y-6000000D02*
X28500220Y-6000000D01*
D10*
D11*
X28700220Y-11000000D02*
X28500220Y-11000000D01*
D10*
D11*
X28700220Y-16000000D02*
X28500220Y-16000000D01*
D10*
D11*
X28569268Y-3522998D02*
X28631172Y-3522998D01*
X28556887Y-3560140D02*
X28600220Y-3430140D01*
X28600220Y-3430140D02*
X28643553Y-3560140D01*
D10*
D11*
X28609506Y-8492045D02*
X28628077Y-8498236D01*
X28628077Y-8498236D02*
X28634268Y-8504426D01*
X28634268Y-8504426D02*
X28640458Y-8516807D01*
X28640458Y-8516807D02*
X28640458Y-8535379D01*
X28640458Y-8535379D02*
X28634268Y-8547760D01*
X28634268Y-8547760D02*
X28628077Y-8553950D01*
X28628077Y-8553950D02*
X28615696Y-8560140D01*
X28615696Y-8560140D02*
X28566172Y-8560140D01*
X28566172Y-8560140D02*
X28566172Y-8430140D01*
X28566172Y-8430140D02*
X28609506Y-8430140D01*
X28609506Y-8430140D02*
X28621887Y-8436331D01*
X28621887Y-8436331D02*
X28628077Y-8442521D01*
X28628077Y-8442521D02*
X28634268Y-8454902D01*
X28634268Y-8454902D02*
X28634268Y-8467283D01*
X28634268Y-8467283D02*
X28628077Y-8479664D01*
X28628077Y-8479664D02*
X28621887Y-8485855D01*
X28621887Y-8485855D02*
X28609506Y-8492045D01*
X28609506Y-8492045D02*
X28566172Y-8492045D01*
D10*
D11*
X28640458Y-13547759D02*
X28634268Y-13553950D01*
X28634268Y-13553950D02*
X28615696Y-13560140D01*
X28615696Y-13560140D02*
X28603315Y-13560140D01*
X28603315Y-13560140D02*
X28584744Y-13553950D01*
X28584744Y-13553950D02*
X28572363Y-13541569D01*
X28572363Y-13541569D02*
X28566172Y-13529188D01*
X28566172Y-13529188D02*
X28559982Y-13504426D01*
X28559982Y-13504426D02*
X28559982Y-13485855D01*
X28559982Y-13485855D02*
X28566172Y-13461093D01*
X28566172Y-13461093D02*
X28572363Y-13448712D01*
X28572363Y-13448712D02*
X28584744Y-13436331D01*
X28584744Y-13436331D02*
X28603315Y-13430140D01*
X28603315Y-13430140D02*
X28615696Y-13430140D01*
X28615696Y-13430140D02*
X28634268Y-13436331D01*
X28634268Y-13436331D02*
X28640458Y-13442521D01*
D10*
D11*
X28566172Y-18560140D02*
X28566172Y-18430140D01*
X28566172Y-18430140D02*
X28597125Y-18430140D01*
X28597125Y-18430140D02*
X28615696Y-18436331D01*
X28615696Y-18436331D02*
X28628077Y-18448712D01*
X28628077Y-18448712D02*
X28634268Y-18461093D01*
X28634268Y-18461093D02*
X28640458Y-18485855D01*
X28640458Y-18485855D02*
X28640458Y-18504426D01*
X28640458Y-18504426D02*
X28634268Y-18529188D01*
X28634268Y-18529188D02*
X28628077Y-18541569D01*
X28628077Y-18541569D02*
X28615696Y-18553950D01*
X28615696Y-18553950D02*
X28597125Y-18560140D01*
X28597125Y-18560140D02*
X28566172Y-18560140D01*
D10*
D11*
X20035934Y-19380113D02*
X20035934Y-19230113D01*
X20035934Y-19230113D02*
X20071649Y-19230113D01*
X20071649Y-19230113D02*
X20093077Y-19237256D01*
X20093077Y-19237256D02*
X20107363Y-19251541D01*
X20107363Y-19251541D02*
X20114506Y-19265827D01*
X20114506Y-19265827D02*
X20121649Y-19294399D01*
X20121649Y-19294399D02*
X20121649Y-19315827D01*
X20121649Y-19315827D02*
X20114506Y-19344399D01*
X20114506Y-19344399D02*
X20107363Y-19358684D01*
X20107363Y-19358684D02*
X20093077Y-19372970D01*
X20093077Y-19372970D02*
X20071649Y-19380113D01*
X20071649Y-19380113D02*
X20035934Y-19380113D01*
X20250220Y-19380113D02*
X20250220Y-19301541D01*
X20250220Y-19301541D02*
X20243077Y-19287256D01*
X20243077Y-19287256D02*
X20228791Y-19280113D01*
X20228791Y-19280113D02*
X20200220Y-19280113D01*
X20200220Y-19280113D02*
X20185934Y-19287256D01*
X20250220Y-19372970D02*
X20235934Y-19380113D01*
X20235934Y-19380113D02*
X20200220Y-19380113D01*
X20200220Y-19380113D02*
X20185934Y-19372970D01*
X20185934Y-19372970D02*
X20178791Y-19358684D01*
X20178791Y-19358684D02*
X20178791Y-19344399D01*
X20178791Y-19344399D02*
X20185934Y-19330113D01*
X20185934Y-19330113D02*
X20200220Y-19322970D01*
X20200220Y-19322970D02*
X20235934Y-19322970D01*
X20235934Y-19322970D02*
X20250220Y-19315827D01*
X20300220Y-19280113D02*
X20357363Y-19280113D01*
X20321649Y-19230113D02*
X20321649Y-19358684D01*
X20321649Y-19358684D02*
X20328791Y-19372970D01*
X20328791Y-19372970D02*
X20343077Y-19380113D01*
X20343077Y-19380113D02*
X20357363Y-19380113D01*
X20464506Y-19372970D02*
X20450220Y-19380113D01*
X20450220Y-19380113D02*
X20421649Y-19380113D01*
X20421649Y-19380113D02*
X20407363Y-19372970D01*
X20407363Y-19372970D02*
X20400220Y-19358684D01*
X20400220Y-19358684D02*
X20400220Y-19301541D01*
X20400220Y-19301541D02*
X20407363Y-19287256D01*
X20407363Y-19287256D02*
X20421649Y-19280113D01*
X20421649Y-19280113D02*
X20450220Y-19280113D01*
X20450220Y-19280113D02*
X20464506Y-19287256D01*
X20464506Y-19287256D02*
X20471649Y-19301541D01*
X20471649Y-19301541D02*
X20471649Y-19315827D01*
X20471649Y-19315827D02*
X20400220Y-19330113D01*
X20535934Y-19365827D02*
X20543077Y-19372970D01*
X20543077Y-19372970D02*
X20535934Y-19380113D01*
X20535934Y-19380113D02*
X20528791Y-19372970D01*
X20528791Y-19372970D02*
X20535934Y-19365827D01*
X20535934Y-19365827D02*
X20535934Y-19380113D01*
X20535934Y-19287256D02*
X20543077Y-19294399D01*
X20543077Y-19294399D02*
X20535934Y-19301541D01*
X20535934Y-19301541D02*
X20528791Y-19294399D01*
X20528791Y-19294399D02*
X20535934Y-19287256D01*
X20535934Y-19287256D02*
X20535934Y-19301541D01*
D10*
D11*
X17700220Y-19450720D02*
X28500220Y-19450720D01*
D10*
D11*
X17835934Y-19660113D02*
X17835934Y-19510113D01*
X17921649Y-19660113D02*
X17857363Y-19574399D01*
X17921649Y-19510113D02*
X17835934Y-19595827D01*
X17985934Y-19660113D02*
X17985934Y-19560113D01*
X17985934Y-19510113D02*
X17978791Y-19517256D01*
X17978791Y-19517256D02*
X17985934Y-19524399D01*
X17985934Y-19524399D02*
X17993077Y-19517256D01*
X17993077Y-19517256D02*
X17985934Y-19510113D01*
X17985934Y-19510113D02*
X17985934Y-19524399D01*
X18143077Y-19645827D02*
X18135934Y-19652970D01*
X18135934Y-19652970D02*
X18114506Y-19660113D01*
X18114506Y-19660113D02*
X18100220Y-19660113D01*
X18100220Y-19660113D02*
X18078791Y-19652970D01*
X18078791Y-19652970D02*
X18064506Y-19638684D01*
X18064506Y-19638684D02*
X18057363Y-19624399D01*
X18057363Y-19624399D02*
X18050220Y-19595827D01*
X18050220Y-19595827D02*
X18050220Y-19574399D01*
X18050220Y-19574399D02*
X18057363Y-19545827D01*
X18057363Y-19545827D02*
X18064506Y-19531541D01*
X18064506Y-19531541D02*
X18078791Y-19517256D01*
X18078791Y-19517256D02*
X18100220Y-19510113D01*
X18100220Y-19510113D02*
X18114506Y-19510113D01*
X18114506Y-19510113D02*
X18135934Y-19517256D01*
X18135934Y-19517256D02*
X18143077Y-19524399D01*
X18271649Y-19660113D02*
X18271649Y-19581541D01*
X18271649Y-19581541D02*
X18264506Y-19567256D01*
X18264506Y-19567256D02*
X18250220Y-19560113D01*
X18250220Y-19560113D02*
X18221649Y-19560113D01*
X18221649Y-19560113D02*
X18207363Y-19567256D01*
X18271649Y-19652970D02*
X18257363Y-19660113D01*
X18257363Y-19660113D02*
X18221649Y-19660113D01*
X18221649Y-19660113D02*
X18207363Y-19652970D01*
X18207363Y-19652970D02*
X18200220Y-19638684D01*
X18200220Y-19638684D02*
X18200220Y-19624399D01*
X18200220Y-19624399D02*
X18207363Y-19610113D01*
X18207363Y-19610113D02*
X18221649Y-19602970D01*
X18221649Y-19602970D02*
X18257363Y-19602970D01*
X18257363Y-19602970D02*
X18271649Y-19595827D01*
X18407363Y-19660113D02*
X18407363Y-19510113D01*
X18407363Y-19652970D02*
X18393077Y-19660113D01*
X18393077Y-19660113D02*
X18364506Y-19660113D01*
X18364506Y-19660113D02*
X18350220Y-19652970D01*
X18350220Y-19652970D02*
X18343077Y-19645827D01*
X18343077Y-19645827D02*
X18335934Y-19631541D01*
X18335934Y-19631541D02*
X18335934Y-19588684D01*
X18335934Y-19588684D02*
X18343077Y-19574399D01*
X18343077Y-19574399D02*
X18350220Y-19567256D01*
X18350220Y-19567256D02*
X18364506Y-19560113D01*
X18364506Y-19560113D02*
X18393077Y-19560113D01*
X18393077Y-19560113D02*
X18407363Y-19567256D01*
X18593077Y-19581541D02*
X18643077Y-19581541D01*
X18664506Y-19660113D02*
X18593077Y-19660113D01*
X18593077Y-19660113D02*
X18593077Y-19510113D01*
X18593077Y-19510113D02*
X18664506Y-19510113D01*
X18728791Y-19645827D02*
X18735934Y-19652970D01*
X18735934Y-19652970D02*
X18728791Y-19660113D01*
X18728791Y-19660113D02*
X18721649Y-19652970D01*
X18721649Y-19652970D02*
X18728791Y-19645827D01*
X18728791Y-19645827D02*
X18728791Y-19660113D01*
X18800220Y-19660113D02*
X18800220Y-19510113D01*
X18800220Y-19510113D02*
X18835934Y-19510113D01*
X18835934Y-19510113D02*
X18857363Y-19517256D01*
X18857363Y-19517256D02*
X18871649Y-19531541D01*
X18871649Y-19531541D02*
X18878792Y-19545827D01*
X18878792Y-19545827D02*
X18885934Y-19574399D01*
X18885934Y-19574399D02*
X18885934Y-19595827D01*
X18885934Y-19595827D02*
X18878792Y-19624399D01*
X18878792Y-19624399D02*
X18871649Y-19638684D01*
X18871649Y-19638684D02*
X18857363Y-19652970D01*
X18857363Y-19652970D02*
X18835934Y-19660113D01*
X18835934Y-19660113D02*
X18800220Y-19660113D01*
X18950220Y-19645827D02*
X18957363Y-19652970D01*
X18957363Y-19652970D02*
X18950220Y-19660113D01*
X18950220Y-19660113D02*
X18943077Y-19652970D01*
X18943077Y-19652970D02*
X18950220Y-19645827D01*
X18950220Y-19645827D02*
X18950220Y-19660113D01*
X19014506Y-19617256D02*
X19085934Y-19617256D01*
X19000220Y-19660113D02*
X19050220Y-19510113D01*
X19050220Y-19510113D02*
X19100220Y-19660113D01*
X19150220Y-19645827D02*
X19157363Y-19652970D01*
X19157363Y-19652970D02*
X19150220Y-19660113D01*
X19150220Y-19660113D02*
X19143077Y-19652970D01*
X19143077Y-19652970D02*
X19150220Y-19645827D01*
X19150220Y-19645827D02*
X19150220Y-19660113D01*
X19450220Y-19660113D02*
X19450220Y-19510113D01*
X19464506Y-19602970D02*
X19507363Y-19660113D01*
X19507363Y-19560113D02*
X19450220Y-19617256D01*
X19571649Y-19660113D02*
X19571649Y-19560113D01*
X19571649Y-19510113D02*
X19564506Y-19517256D01*
X19564506Y-19517256D02*
X19571649Y-19524399D01*
X19571649Y-19524399D02*
X19578792Y-19517256D01*
X19578792Y-19517256D02*
X19571649Y-19510113D01*
X19571649Y-19510113D02*
X19571649Y-19524399D01*
X19707363Y-19652970D02*
X19693077Y-19660113D01*
X19693077Y-19660113D02*
X19664506Y-19660113D01*
X19664506Y-19660113D02*
X19650220Y-19652970D01*
X19650220Y-19652970D02*
X19643077Y-19645827D01*
X19643077Y-19645827D02*
X19635934Y-19631541D01*
X19635934Y-19631541D02*
X19635934Y-19588684D01*
X19635934Y-19588684D02*
X19643077Y-19574399D01*
X19643077Y-19574399D02*
X19650220Y-19567256D01*
X19650220Y-19567256D02*
X19664506Y-19560113D01*
X19664506Y-19560113D02*
X19693077Y-19560113D01*
X19693077Y-19560113D02*
X19707363Y-19567256D01*
X19835934Y-19660113D02*
X19835934Y-19581541D01*
X19835934Y-19581541D02*
X19828792Y-19567256D01*
X19828792Y-19567256D02*
X19814506Y-19560113D01*
X19814506Y-19560113D02*
X19785934Y-19560113D01*
X19785934Y-19560113D02*
X19771649Y-19567256D01*
X19835934Y-19652970D02*
X19821649Y-19660113D01*
X19821649Y-19660113D02*
X19785934Y-19660113D01*
X19785934Y-19660113D02*
X19771649Y-19652970D01*
X19771649Y-19652970D02*
X19764506Y-19638684D01*
X19764506Y-19638684D02*
X19764506Y-19624399D01*
X19764506Y-19624399D02*
X19771649Y-19610113D01*
X19771649Y-19610113D02*
X19785934Y-19602970D01*
X19785934Y-19602970D02*
X19821649Y-19602970D01*
X19821649Y-19602970D02*
X19835934Y-19595827D01*
X19971649Y-19660113D02*
X19971649Y-19510113D01*
X19971649Y-19652970D02*
X19957363Y-19660113D01*
X19957363Y-19660113D02*
X19928792Y-19660113D01*
X19928792Y-19660113D02*
X19914506Y-19652970D01*
X19914506Y-19652970D02*
X19907363Y-19645827D01*
X19907363Y-19645827D02*
X19900220Y-19631541D01*
X19900220Y-19631541D02*
X19900220Y-19588684D01*
X19900220Y-19588684D02*
X19907363Y-19574399D01*
X19907363Y-19574399D02*
X19914506Y-19567256D01*
X19914506Y-19567256D02*
X19928792Y-19560113D01*
X19928792Y-19560113D02*
X19957363Y-19560113D01*
X19957363Y-19560113D02*
X19971649Y-19567256D01*
X20143077Y-19510113D02*
X20243077Y-19510113D01*
X20243077Y-19510113D02*
X20178792Y-19660113D01*
X20300220Y-19645827D02*
X20307363Y-19652970D01*
X20307363Y-19652970D02*
X20300220Y-19660113D01*
X20300220Y-19660113D02*
X20293077Y-19652970D01*
X20293077Y-19652970D02*
X20300220Y-19645827D01*
X20300220Y-19645827D02*
X20300220Y-19660113D01*
X20400220Y-19510113D02*
X20414506Y-19510113D01*
X20414506Y-19510113D02*
X20428792Y-19517256D01*
X20428792Y-19517256D02*
X20435934Y-19524399D01*
X20435934Y-19524399D02*
X20443077Y-19538684D01*
X20443077Y-19538684D02*
X20450220Y-19567256D01*
X20450220Y-19567256D02*
X20450220Y-19602970D01*
X20450220Y-19602970D02*
X20443077Y-19631541D01*
X20443077Y-19631541D02*
X20435934Y-19645827D01*
X20435934Y-19645827D02*
X20428792Y-19652970D01*
X20428792Y-19652970D02*
X20414506Y-19660113D01*
X20414506Y-19660113D02*
X20400220Y-19660113D01*
X20400220Y-19660113D02*
X20385934Y-19652970D01*
X20385934Y-19652970D02*
X20378792Y-19645827D01*
X20378792Y-19645827D02*
X20371649Y-19631541D01*
X20371649Y-19631541D02*
X20364506Y-19602970D01*
X20364506Y-19602970D02*
X20364506Y-19567256D01*
X20364506Y-19567256D02*
X20371649Y-19538684D01*
X20371649Y-19538684D02*
X20378792Y-19524399D01*
X20378792Y-19524399D02*
X20385934Y-19517256D01*
X20385934Y-19517256D02*
X20400220Y-19510113D01*
X20514506Y-19645827D02*
X20521649Y-19652970D01*
X20521649Y-19652970D02*
X20514506Y-19660113D01*
X20514506Y-19660113D02*
X20507363Y-19652970D01*
X20507363Y-19652970D02*
X20514506Y-19645827D01*
X20514506Y-19645827D02*
X20514506Y-19660113D01*
X20664506Y-19660113D02*
X20578792Y-19660113D01*
X20621649Y-19660113D02*
X20621649Y-19510113D01*
X20621649Y-19510113D02*
X20607363Y-19531541D01*
X20607363Y-19531541D02*
X20593077Y-19545827D01*
X20593077Y-19545827D02*
X20578792Y-19552970D01*
D10*
D11*
X17700220Y-19150720D02*
X28500220Y-19150720D01*
D10*
D12*
X26421648Y-19380113D02*
X26371648Y-19308684D01*
X26335934Y-19380113D02*
X26335934Y-19230113D01*
X26335934Y-19230113D02*
X26393077Y-19230113D01*
X26393077Y-19230113D02*
X26407363Y-19237256D01*
X26407363Y-19237256D02*
X26414506Y-19244399D01*
X26414506Y-19244399D02*
X26421648Y-19258684D01*
X26421648Y-19258684D02*
X26421648Y-19280113D01*
X26421648Y-19280113D02*
X26414506Y-19294399D01*
X26414506Y-19294399D02*
X26407363Y-19301541D01*
X26407363Y-19301541D02*
X26393077Y-19308684D01*
X26393077Y-19308684D02*
X26335934Y-19308684D01*
X26543077Y-19372970D02*
X26528791Y-19380113D01*
X26528791Y-19380113D02*
X26500220Y-19380113D01*
X26500220Y-19380113D02*
X26485934Y-19372970D01*
X26485934Y-19372970D02*
X26478791Y-19358684D01*
X26478791Y-19358684D02*
X26478791Y-19301541D01*
X26478791Y-19301541D02*
X26485934Y-19287256D01*
X26485934Y-19287256D02*
X26500220Y-19280113D01*
X26500220Y-19280113D02*
X26528791Y-19280113D01*
X26528791Y-19280113D02*
X26543077Y-19287256D01*
X26543077Y-19287256D02*
X26550220Y-19301541D01*
X26550220Y-19301541D02*
X26550220Y-19315827D01*
X26550220Y-19315827D02*
X26478791Y-19330113D01*
X26600220Y-19280113D02*
X26635934Y-19380113D01*
X26635934Y-19380113D02*
X26671648Y-19280113D01*
X26728791Y-19365827D02*
X26735934Y-19372970D01*
X26735934Y-19372970D02*
X26728791Y-19380113D01*
X26728791Y-19380113D02*
X26721648Y-19372970D01*
X26721648Y-19372970D02*
X26728791Y-19365827D01*
X26728791Y-19365827D02*
X26728791Y-19380113D01*
X26728791Y-19287256D02*
X26735934Y-19294399D01*
X26735934Y-19294399D02*
X26728791Y-19301541D01*
X26728791Y-19301541D02*
X26721648Y-19294399D01*
X26721648Y-19294399D02*
X26728791Y-19287256D01*
X26728791Y-19287256D02*
X26728791Y-19301541D01*
D10*
D11*
X17828791Y-19372970D02*
X17850220Y-19380113D01*
X17850220Y-19380113D02*
X17885934Y-19380113D01*
X17885934Y-19380113D02*
X17900220Y-19372970D01*
X17900220Y-19372970D02*
X17907363Y-19365827D01*
X17907363Y-19365827D02*
X17914506Y-19351541D01*
X17914506Y-19351541D02*
X17914506Y-19337256D01*
X17914506Y-19337256D02*
X17907363Y-19322970D01*
X17907363Y-19322970D02*
X17900220Y-19315827D01*
X17900220Y-19315827D02*
X17885934Y-19308684D01*
X17885934Y-19308684D02*
X17857363Y-19301541D01*
X17857363Y-19301541D02*
X17843077Y-19294399D01*
X17843077Y-19294399D02*
X17835934Y-19287256D01*
X17835934Y-19287256D02*
X17828791Y-19272970D01*
X17828791Y-19272970D02*
X17828791Y-19258684D01*
X17828791Y-19258684D02*
X17835934Y-19244399D01*
X17835934Y-19244399D02*
X17843077Y-19237256D01*
X17843077Y-19237256D02*
X17857363Y-19230113D01*
X17857363Y-19230113D02*
X17893077Y-19230113D01*
X17893077Y-19230113D02*
X17914506Y-19237256D01*
X17978791Y-19380113D02*
X17978791Y-19280113D01*
X17978791Y-19230113D02*
X17971649Y-19237256D01*
X17971649Y-19237256D02*
X17978791Y-19244399D01*
X17978791Y-19244399D02*
X17985934Y-19237256D01*
X17985934Y-19237256D02*
X17978791Y-19230113D01*
X17978791Y-19230113D02*
X17978791Y-19244399D01*
X18035934Y-19280113D02*
X18114506Y-19280113D01*
X18114506Y-19280113D02*
X18035934Y-19380113D01*
X18035934Y-19380113D02*
X18114506Y-19380113D01*
X18228791Y-19372970D02*
X18214506Y-19380113D01*
X18214506Y-19380113D02*
X18185934Y-19380113D01*
X18185934Y-19380113D02*
X18171649Y-19372970D01*
X18171649Y-19372970D02*
X18164506Y-19358684D01*
X18164506Y-19358684D02*
X18164506Y-19301541D01*
X18164506Y-19301541D02*
X18171649Y-19287256D01*
X18171649Y-19287256D02*
X18185934Y-19280113D01*
X18185934Y-19280113D02*
X18214506Y-19280113D01*
X18214506Y-19280113D02*
X18228791Y-19287256D01*
X18228791Y-19287256D02*
X18235934Y-19301541D01*
X18235934Y-19301541D02*
X18235934Y-19315827D01*
X18235934Y-19315827D02*
X18164506Y-19330113D01*
X18300220Y-19365827D02*
X18307363Y-19372970D01*
X18307363Y-19372970D02*
X18300220Y-19380113D01*
X18300220Y-19380113D02*
X18293077Y-19372970D01*
X18293077Y-19372970D02*
X18300220Y-19365827D01*
X18300220Y-19365827D02*
X18300220Y-19380113D01*
X18300220Y-19287256D02*
X18307363Y-19294399D01*
X18307363Y-19294399D02*
X18300220Y-19301541D01*
X18300220Y-19301541D02*
X18293077Y-19294399D01*
X18293077Y-19294399D02*
X18300220Y-19287256D01*
X18300220Y-19287256D02*
X18300220Y-19301541D01*
X18478791Y-19337256D02*
X18550220Y-19337256D01*
X18464506Y-19380113D02*
X18514506Y-19230113D01*
X18514506Y-19230113D02*
X18564506Y-19380113D01*
X18678791Y-19280113D02*
X18678791Y-19380113D01*
X18643077Y-19222970D02*
X18607363Y-19330113D01*
X18607363Y-19330113D02*
X18700220Y-19330113D01*
D10*
D11*
X26335934Y-19660113D02*
X26335934Y-19510113D01*
X26471649Y-19660113D02*
X26471649Y-19510113D01*
X26471649Y-19652970D02*
X26457363Y-19660113D01*
X26457363Y-19660113D02*
X26428791Y-19660113D01*
X26428791Y-19660113D02*
X26414506Y-19652970D01*
X26414506Y-19652970D02*
X26407363Y-19645827D01*
X26407363Y-19645827D02*
X26400220Y-19631541D01*
X26400220Y-19631541D02*
X26400220Y-19588684D01*
X26400220Y-19588684D02*
X26407363Y-19574399D01*
X26407363Y-19574399D02*
X26414506Y-19567256D01*
X26414506Y-19567256D02*
X26428791Y-19560113D01*
X26428791Y-19560113D02*
X26457363Y-19560113D01*
X26457363Y-19560113D02*
X26471649Y-19567256D01*
X26543077Y-19645827D02*
X26550220Y-19652970D01*
X26550220Y-19652970D02*
X26543077Y-19660113D01*
X26543077Y-19660113D02*
X26535934Y-19652970D01*
X26535934Y-19652970D02*
X26543077Y-19645827D01*
X26543077Y-19645827D02*
X26543077Y-19660113D01*
X26543077Y-19567256D02*
X26550220Y-19574399D01*
X26550220Y-19574399D02*
X26543077Y-19581541D01*
X26543077Y-19581541D02*
X26535934Y-19574399D01*
X26535934Y-19574399D02*
X26543077Y-19567256D01*
X26543077Y-19567256D02*
X26543077Y-19581541D01*
X26807363Y-19660113D02*
X26721649Y-19660113D01*
X26764506Y-19660113D02*
X26764506Y-19510113D01*
X26764506Y-19510113D02*
X26750220Y-19531541D01*
X26750220Y-19531541D02*
X26735934Y-19545827D01*
X26735934Y-19545827D02*
X26721649Y-19552970D01*
X26978791Y-19502970D02*
X26850220Y-19695827D01*
X27107363Y-19660113D02*
X27021649Y-19660113D01*
X27064506Y-19660113D02*
X27064506Y-19510113D01*
X27064506Y-19510113D02*
X27050220Y-19531541D01*
X27050220Y-19531541D02*
X27035934Y-19545827D01*
X27035934Y-19545827D02*
X27021649Y-19552970D01*
D10*
D11*
X17700220Y-18750720D02*
X28500220Y-18750720D01*
D10*
D13*
X17843077Y-18823244D02*
X17957363Y-18823244D01*
X17875220Y-19023244D02*
X17900220Y-18823244D01*
X17997839Y-19023244D02*
X18014506Y-18889910D01*
X18022839Y-18823244D02*
X18012125Y-18832768D01*
X18012125Y-18832768D02*
X18020458Y-18842291D01*
X18020458Y-18842291D02*
X18031172Y-18832768D01*
X18031172Y-18832768D02*
X18022839Y-18823244D01*
X18022839Y-18823244D02*
X18020458Y-18842291D01*
X18079982Y-18889910D02*
X18156172Y-18889910D01*
X18116887Y-18823244D02*
X18095458Y-18994672D01*
X18095458Y-18994672D02*
X18102601Y-19013720D01*
X18102601Y-19013720D02*
X18120458Y-19023244D01*
X18120458Y-19023244D02*
X18139506Y-19023244D01*
X18233553Y-19023244D02*
X18215696Y-19013720D01*
X18215696Y-19013720D02*
X18208553Y-18994672D01*
X18208553Y-18994672D02*
X18229982Y-18823244D01*
X18385934Y-19013720D02*
X18365696Y-19023244D01*
X18365696Y-19023244D02*
X18327601Y-19023244D01*
X18327601Y-19023244D02*
X18309744Y-19013720D01*
X18309744Y-19013720D02*
X18302601Y-18994672D01*
X18302601Y-18994672D02*
X18312125Y-18918482D01*
X18312125Y-18918482D02*
X18324029Y-18899434D01*
X18324029Y-18899434D02*
X18344268Y-18889910D01*
X18344268Y-18889910D02*
X18382363Y-18889910D01*
X18382363Y-18889910D02*
X18400220Y-18899434D01*
X18400220Y-18899434D02*
X18407363Y-18918482D01*
X18407363Y-18918482D02*
X18404982Y-18937530D01*
X18404982Y-18937530D02*
X18307363Y-18956577D01*
X18481172Y-19004196D02*
X18489506Y-19013720D01*
X18489506Y-19013720D02*
X18478791Y-19023244D01*
X18478791Y-19023244D02*
X18470458Y-19013720D01*
X18470458Y-19013720D02*
X18481172Y-19004196D01*
X18481172Y-19004196D02*
X18478791Y-19023244D01*
X18494268Y-18899434D02*
X18502601Y-18908958D01*
X18502601Y-18908958D02*
X18491887Y-18918482D01*
X18491887Y-18918482D02*
X18483553Y-18908958D01*
X18483553Y-18908958D02*
X18494268Y-18899434D01*
X18494268Y-18899434D02*
X18491887Y-18918482D01*
D10*
D11*
X17885934Y-18561541D02*
X17835934Y-18561541D01*
X17835934Y-18640113D02*
X17835934Y-18490113D01*
X17835934Y-18490113D02*
X17907363Y-18490113D01*
X17964506Y-18640113D02*
X17964506Y-18540113D01*
X17964506Y-18490113D02*
X17957363Y-18497256D01*
X17957363Y-18497256D02*
X17964506Y-18504399D01*
X17964506Y-18504399D02*
X17971649Y-18497256D01*
X17971649Y-18497256D02*
X17964506Y-18490113D01*
X17964506Y-18490113D02*
X17964506Y-18504399D01*
X18057363Y-18640113D02*
X18043077Y-18632970D01*
X18043077Y-18632970D02*
X18035934Y-18618684D01*
X18035934Y-18618684D02*
X18035934Y-18490113D01*
X18171649Y-18632970D02*
X18157363Y-18640113D01*
X18157363Y-18640113D02*
X18128791Y-18640113D01*
X18128791Y-18640113D02*
X18114506Y-18632970D01*
X18114506Y-18632970D02*
X18107363Y-18618684D01*
X18107363Y-18618684D02*
X18107363Y-18561541D01*
X18107363Y-18561541D02*
X18114506Y-18547256D01*
X18114506Y-18547256D02*
X18128791Y-18540113D01*
X18128791Y-18540113D02*
X18157363Y-18540113D01*
X18157363Y-18540113D02*
X18171649Y-18547256D01*
X18171649Y-18547256D02*
X18178791Y-18561541D01*
X18178791Y-18561541D02*
X18178791Y-18575827D01*
X18178791Y-18575827D02*
X18107363Y-18590113D01*
X18243077Y-18625827D02*
X18250220Y-18632970D01*
X18250220Y-18632970D02*
X18243077Y-18640113D01*
X18243077Y-18640113D02*
X18235934Y-18632970D01*
X18235934Y-18632970D02*
X18243077Y-18625827D01*
X18243077Y-18625827D02*
X18243077Y-18640113D01*
X18243077Y-18547256D02*
X18250220Y-18554399D01*
X18250220Y-18554399D02*
X18243077Y-18561541D01*
X18243077Y-18561541D02*
X18235934Y-18554399D01*
X18235934Y-18554399D02*
X18243077Y-18547256D01*
X18243077Y-18547256D02*
X18243077Y-18561541D01*
X18514506Y-18625827D02*
X18507363Y-18632970D01*
X18507363Y-18632970D02*
X18485934Y-18640113D01*
X18485934Y-18640113D02*
X18471649Y-18640113D01*
X18471649Y-18640113D02*
X18450220Y-18632970D01*
X18450220Y-18632970D02*
X18435934Y-18618684D01*
X18435934Y-18618684D02*
X18428791Y-18604399D01*
X18428791Y-18604399D02*
X18421649Y-18575827D01*
X18421649Y-18575827D02*
X18421649Y-18554399D01*
X18421649Y-18554399D02*
X18428791Y-18525827D01*
X18428791Y-18525827D02*
X18435934Y-18511541D01*
X18435934Y-18511541D02*
X18450220Y-18497256D01*
X18450220Y-18497256D02*
X18471649Y-18490113D01*
X18471649Y-18490113D02*
X18485934Y-18490113D01*
X18485934Y-18490113D02*
X18507363Y-18497256D01*
X18507363Y-18497256D02*
X18514506Y-18504399D01*
X18600220Y-18640113D02*
X18585934Y-18632970D01*
X18585934Y-18632970D02*
X18578791Y-18625827D01*
X18578791Y-18625827D02*
X18571649Y-18611541D01*
X18571649Y-18611541D02*
X18571649Y-18568684D01*
X18571649Y-18568684D02*
X18578791Y-18554399D01*
X18578791Y-18554399D02*
X18585934Y-18547256D01*
X18585934Y-18547256D02*
X18600220Y-18540113D01*
X18600220Y-18540113D02*
X18621649Y-18540113D01*
X18621649Y-18540113D02*
X18635934Y-18547256D01*
X18635934Y-18547256D02*
X18643077Y-18554399D01*
X18643077Y-18554399D02*
X18650220Y-18568684D01*
X18650220Y-18568684D02*
X18650220Y-18611541D01*
X18650220Y-18611541D02*
X18643077Y-18625827D01*
X18643077Y-18625827D02*
X18635934Y-18632970D01*
X18635934Y-18632970D02*
X18621649Y-18640113D01*
X18621649Y-18640113D02*
X18600220Y-18640113D01*
X18714506Y-18540113D02*
X18714506Y-18640113D01*
X18714506Y-18554399D02*
X18721649Y-18547256D01*
X18721649Y-18547256D02*
X18735934Y-18540113D01*
X18735934Y-18540113D02*
X18757363Y-18540113D01*
X18757363Y-18540113D02*
X18771649Y-18547256D01*
X18771649Y-18547256D02*
X18778791Y-18561541D01*
X18778791Y-18561541D02*
X18778791Y-18640113D01*
X18828791Y-18540113D02*
X18885934Y-18540113D01*
X18850220Y-18490113D02*
X18850220Y-18618684D01*
X18850220Y-18618684D02*
X18857363Y-18632970D01*
X18857363Y-18632970D02*
X18871649Y-18640113D01*
X18871649Y-18640113D02*
X18885934Y-18640113D01*
X18935934Y-18640113D02*
X18935934Y-18540113D01*
X18935934Y-18568684D02*
X18943077Y-18554399D01*
X18943077Y-18554399D02*
X18950220Y-18547256D01*
X18950220Y-18547256D02*
X18964506Y-18540113D01*
X18964506Y-18540113D02*
X18978791Y-18540113D01*
X19050220Y-18640113D02*
X19035934Y-18632970D01*
X19035934Y-18632970D02*
X19028791Y-18625827D01*
X19028791Y-18625827D02*
X19021649Y-18611541D01*
X19021649Y-18611541D02*
X19021649Y-18568684D01*
X19021649Y-18568684D02*
X19028791Y-18554399D01*
X19028791Y-18554399D02*
X19035934Y-18547256D01*
X19035934Y-18547256D02*
X19050220Y-18540113D01*
X19050220Y-18540113D02*
X19071649Y-18540113D01*
X19071649Y-18540113D02*
X19085934Y-18547256D01*
X19085934Y-18547256D02*
X19093077Y-18554399D01*
X19093077Y-18554399D02*
X19100220Y-18568684D01*
X19100220Y-18568684D02*
X19100220Y-18611541D01*
X19100220Y-18611541D02*
X19093077Y-18625827D01*
X19093077Y-18625827D02*
X19085934Y-18632970D01*
X19085934Y-18632970D02*
X19071649Y-18640113D01*
X19071649Y-18640113D02*
X19050220Y-18640113D01*
X19185934Y-18640113D02*
X19171649Y-18632970D01*
X19171649Y-18632970D02*
X19164506Y-18618684D01*
X19164506Y-18618684D02*
X19164506Y-18490113D01*
X19207363Y-18654399D02*
X19321649Y-18654399D01*
X19407363Y-18561541D02*
X19428791Y-18568684D01*
X19428791Y-18568684D02*
X19435934Y-18575827D01*
X19435934Y-18575827D02*
X19443077Y-18590113D01*
X19443077Y-18590113D02*
X19443077Y-18611541D01*
X19443077Y-18611541D02*
X19435934Y-18625827D01*
X19435934Y-18625827D02*
X19428791Y-18632970D01*
X19428791Y-18632970D02*
X19414506Y-18640113D01*
X19414506Y-18640113D02*
X19357363Y-18640113D01*
X19357363Y-18640113D02*
X19357363Y-18490113D01*
X19357363Y-18490113D02*
X19407363Y-18490113D01*
X19407363Y-18490113D02*
X19421649Y-18497256D01*
X19421649Y-18497256D02*
X19428791Y-18504399D01*
X19428791Y-18504399D02*
X19435934Y-18518684D01*
X19435934Y-18518684D02*
X19435934Y-18532970D01*
X19435934Y-18532970D02*
X19428791Y-18547256D01*
X19428791Y-18547256D02*
X19421649Y-18554399D01*
X19421649Y-18554399D02*
X19407363Y-18561541D01*
X19407363Y-18561541D02*
X19357363Y-18561541D01*
X19528791Y-18640113D02*
X19514506Y-18632970D01*
X19514506Y-18632970D02*
X19507363Y-18625827D01*
X19507363Y-18625827D02*
X19500220Y-18611541D01*
X19500220Y-18611541D02*
X19500220Y-18568684D01*
X19500220Y-18568684D02*
X19507363Y-18554399D01*
X19507363Y-18554399D02*
X19514506Y-18547256D01*
X19514506Y-18547256D02*
X19528791Y-18540113D01*
X19528791Y-18540113D02*
X19550220Y-18540113D01*
X19550220Y-18540113D02*
X19564506Y-18547256D01*
X19564506Y-18547256D02*
X19571649Y-18554399D01*
X19571649Y-18554399D02*
X19578791Y-18568684D01*
X19578791Y-18568684D02*
X19578791Y-18611541D01*
X19578791Y-18611541D02*
X19571649Y-18625827D01*
X19571649Y-18625827D02*
X19564506Y-18632970D01*
X19564506Y-18632970D02*
X19550220Y-18640113D01*
X19550220Y-18640113D02*
X19528791Y-18640113D01*
X19707363Y-18640113D02*
X19707363Y-18561541D01*
X19707363Y-18561541D02*
X19700220Y-18547256D01*
X19700220Y-18547256D02*
X19685934Y-18540113D01*
X19685934Y-18540113D02*
X19657363Y-18540113D01*
X19657363Y-18540113D02*
X19643077Y-18547256D01*
X19707363Y-18632970D02*
X19693077Y-18640113D01*
X19693077Y-18640113D02*
X19657363Y-18640113D01*
X19657363Y-18640113D02*
X19643077Y-18632970D01*
X19643077Y-18632970D02*
X19635934Y-18618684D01*
X19635934Y-18618684D02*
X19635934Y-18604399D01*
X19635934Y-18604399D02*
X19643077Y-18590113D01*
X19643077Y-18590113D02*
X19657363Y-18582970D01*
X19657363Y-18582970D02*
X19693077Y-18582970D01*
X19693077Y-18582970D02*
X19707363Y-18575827D01*
X19778791Y-18640113D02*
X19778791Y-18540113D01*
X19778791Y-18568684D02*
X19785934Y-18554399D01*
X19785934Y-18554399D02*
X19793077Y-18547256D01*
X19793077Y-18547256D02*
X19807363Y-18540113D01*
X19807363Y-18540113D02*
X19821649Y-18540113D01*
X19935934Y-18640113D02*
X19935934Y-18490113D01*
X19935934Y-18632970D02*
X19921648Y-18640113D01*
X19921648Y-18640113D02*
X19893077Y-18640113D01*
X19893077Y-18640113D02*
X19878791Y-18632970D01*
X19878791Y-18632970D02*
X19871648Y-18625827D01*
X19871648Y-18625827D02*
X19864506Y-18611541D01*
X19864506Y-18611541D02*
X19864506Y-18568684D01*
X19864506Y-18568684D02*
X19871648Y-18554399D01*
X19871648Y-18554399D02*
X19878791Y-18547256D01*
X19878791Y-18547256D02*
X19893077Y-18540113D01*
X19893077Y-18540113D02*
X19921648Y-18540113D01*
X19921648Y-18540113D02*
X19935934Y-18547256D01*
X20007363Y-18625827D02*
X20014506Y-18632970D01*
X20014506Y-18632970D02*
X20007363Y-18640113D01*
X20007363Y-18640113D02*
X20000220Y-18632970D01*
X20000220Y-18632970D02*
X20007363Y-18625827D01*
X20007363Y-18625827D02*
X20007363Y-18640113D01*
X20078791Y-18640113D02*
X20078791Y-18490113D01*
X20093077Y-18582970D02*
X20135934Y-18640113D01*
X20135934Y-18540113D02*
X20078791Y-18597256D01*
X20200220Y-18640113D02*
X20200220Y-18540113D01*
X20200220Y-18490113D02*
X20193077Y-18497256D01*
X20193077Y-18497256D02*
X20200220Y-18504399D01*
X20200220Y-18504399D02*
X20207363Y-18497256D01*
X20207363Y-18497256D02*
X20200220Y-18490113D01*
X20200220Y-18490113D02*
X20200220Y-18504399D01*
X20335934Y-18632970D02*
X20321649Y-18640113D01*
X20321649Y-18640113D02*
X20293077Y-18640113D01*
X20293077Y-18640113D02*
X20278791Y-18632970D01*
X20278791Y-18632970D02*
X20271649Y-18625827D01*
X20271649Y-18625827D02*
X20264506Y-18611541D01*
X20264506Y-18611541D02*
X20264506Y-18568684D01*
X20264506Y-18568684D02*
X20271649Y-18554399D01*
X20271649Y-18554399D02*
X20278791Y-18547256D01*
X20278791Y-18547256D02*
X20293077Y-18540113D01*
X20293077Y-18540113D02*
X20321649Y-18540113D01*
X20321649Y-18540113D02*
X20335934Y-18547256D01*
X20464506Y-18640113D02*
X20464506Y-18561541D01*
X20464506Y-18561541D02*
X20457363Y-18547256D01*
X20457363Y-18547256D02*
X20443077Y-18540113D01*
X20443077Y-18540113D02*
X20414506Y-18540113D01*
X20414506Y-18540113D02*
X20400220Y-18547256D01*
X20464506Y-18632970D02*
X20450220Y-18640113D01*
X20450220Y-18640113D02*
X20414506Y-18640113D01*
X20414506Y-18640113D02*
X20400220Y-18632970D01*
X20400220Y-18632970D02*
X20393077Y-18618684D01*
X20393077Y-18618684D02*
X20393077Y-18604399D01*
X20393077Y-18604399D02*
X20400220Y-18590113D01*
X20400220Y-18590113D02*
X20414506Y-18582970D01*
X20414506Y-18582970D02*
X20450220Y-18582970D01*
X20450220Y-18582970D02*
X20464506Y-18575827D01*
X20600220Y-18640113D02*
X20600220Y-18490113D01*
X20600220Y-18632970D02*
X20585934Y-18640113D01*
X20585934Y-18640113D02*
X20557363Y-18640113D01*
X20557363Y-18640113D02*
X20543077Y-18632970D01*
X20543077Y-18632970D02*
X20535934Y-18625827D01*
X20535934Y-18625827D02*
X20528791Y-18611541D01*
X20528791Y-18611541D02*
X20528791Y-18568684D01*
X20528791Y-18568684D02*
X20535934Y-18554399D01*
X20535934Y-18554399D02*
X20543077Y-18547256D01*
X20543077Y-18547256D02*
X20557363Y-18540113D01*
X20557363Y-18540113D02*
X20585934Y-18540113D01*
X20585934Y-18540113D02*
X20600220Y-18547256D01*
X20635934Y-18654399D02*
X20750220Y-18654399D01*
X20785934Y-18540113D02*
X20785934Y-18690113D01*
X20785934Y-18547256D02*
X20800220Y-18540113D01*
X20800220Y-18540113D02*
X20828791Y-18540113D01*
X20828791Y-18540113D02*
X20843077Y-18547256D01*
X20843077Y-18547256D02*
X20850220Y-18554399D01*
X20850220Y-18554399D02*
X20857363Y-18568684D01*
X20857363Y-18568684D02*
X20857363Y-18611541D01*
X20857363Y-18611541D02*
X20850220Y-18625827D01*
X20850220Y-18625827D02*
X20843077Y-18632970D01*
X20843077Y-18632970D02*
X20828791Y-18640113D01*
X20828791Y-18640113D02*
X20800220Y-18640113D01*
X20800220Y-18640113D02*
X20785934Y-18632970D01*
X20985934Y-18632970D02*
X20971649Y-18640113D01*
X20971649Y-18640113D02*
X20943077Y-18640113D01*
X20943077Y-18640113D02*
X20928791Y-18632970D01*
X20928791Y-18632970D02*
X20921649Y-18625827D01*
X20921649Y-18625827D02*
X20914506Y-18611541D01*
X20914506Y-18611541D02*
X20914506Y-18568684D01*
X20914506Y-18568684D02*
X20921649Y-18554399D01*
X20921649Y-18554399D02*
X20928791Y-18547256D01*
X20928791Y-18547256D02*
X20943077Y-18540113D01*
X20943077Y-18540113D02*
X20971649Y-18540113D01*
X20971649Y-18540113D02*
X20985934Y-18547256D01*
X21050220Y-18640113D02*
X21050220Y-18490113D01*
X21050220Y-18547256D02*
X21064506Y-18540113D01*
X21064506Y-18540113D02*
X21093077Y-18540113D01*
X21093077Y-18540113D02*
X21107363Y-18547256D01*
X21107363Y-18547256D02*
X21114506Y-18554399D01*
X21114506Y-18554399D02*
X21121649Y-18568684D01*
X21121649Y-18568684D02*
X21121649Y-18611541D01*
X21121649Y-18611541D02*
X21114506Y-18625827D01*
X21114506Y-18625827D02*
X21107363Y-18632970D01*
X21107363Y-18632970D02*
X21093077Y-18640113D01*
X21093077Y-18640113D02*
X21064506Y-18640113D01*
X21064506Y-18640113D02*
X21050220Y-18632970D01*
D10*
D11*
X17700220Y-18150720D02*
X28500220Y-18150720D01*
D10*
D11*
X17828791Y-18362970D02*
X17850220Y-18370113D01*
X17850220Y-18370113D02*
X17885934Y-18370113D01*
X17885934Y-18370113D02*
X17900220Y-18362970D01*
X17900220Y-18362970D02*
X17907363Y-18355827D01*
X17907363Y-18355827D02*
X17914506Y-18341541D01*
X17914506Y-18341541D02*
X17914506Y-18327256D01*
X17914506Y-18327256D02*
X17907363Y-18312970D01*
X17907363Y-18312970D02*
X17900220Y-18305827D01*
X17900220Y-18305827D02*
X17885934Y-18298684D01*
X17885934Y-18298684D02*
X17857363Y-18291541D01*
X17857363Y-18291541D02*
X17843077Y-18284399D01*
X17843077Y-18284399D02*
X17835934Y-18277256D01*
X17835934Y-18277256D02*
X17828791Y-18262970D01*
X17828791Y-18262970D02*
X17828791Y-18248684D01*
X17828791Y-18248684D02*
X17835934Y-18234399D01*
X17835934Y-18234399D02*
X17843077Y-18227256D01*
X17843077Y-18227256D02*
X17857363Y-18220113D01*
X17857363Y-18220113D02*
X17893077Y-18220113D01*
X17893077Y-18220113D02*
X17914506Y-18227256D01*
X17978791Y-18370113D02*
X17978791Y-18220113D01*
X18043077Y-18370113D02*
X18043077Y-18291541D01*
X18043077Y-18291541D02*
X18035934Y-18277256D01*
X18035934Y-18277256D02*
X18021649Y-18270113D01*
X18021649Y-18270113D02*
X18000220Y-18270113D01*
X18000220Y-18270113D02*
X17985934Y-18277256D01*
X17985934Y-18277256D02*
X17978791Y-18284399D01*
X18171649Y-18362970D02*
X18157363Y-18370113D01*
X18157363Y-18370113D02*
X18128791Y-18370113D01*
X18128791Y-18370113D02*
X18114506Y-18362970D01*
X18114506Y-18362970D02*
X18107363Y-18348684D01*
X18107363Y-18348684D02*
X18107363Y-18291541D01*
X18107363Y-18291541D02*
X18114506Y-18277256D01*
X18114506Y-18277256D02*
X18128791Y-18270113D01*
X18128791Y-18270113D02*
X18157363Y-18270113D01*
X18157363Y-18270113D02*
X18171649Y-18277256D01*
X18171649Y-18277256D02*
X18178791Y-18291541D01*
X18178791Y-18291541D02*
X18178791Y-18305827D01*
X18178791Y-18305827D02*
X18107363Y-18320113D01*
X18300220Y-18362970D02*
X18285934Y-18370113D01*
X18285934Y-18370113D02*
X18257363Y-18370113D01*
X18257363Y-18370113D02*
X18243077Y-18362970D01*
X18243077Y-18362970D02*
X18235934Y-18348684D01*
X18235934Y-18348684D02*
X18235934Y-18291541D01*
X18235934Y-18291541D02*
X18243077Y-18277256D01*
X18243077Y-18277256D02*
X18257363Y-18270113D01*
X18257363Y-18270113D02*
X18285934Y-18270113D01*
X18285934Y-18270113D02*
X18300220Y-18277256D01*
X18300220Y-18277256D02*
X18307363Y-18291541D01*
X18307363Y-18291541D02*
X18307363Y-18305827D01*
X18307363Y-18305827D02*
X18235934Y-18320113D01*
X18350220Y-18270113D02*
X18407363Y-18270113D01*
X18371648Y-18220113D02*
X18371648Y-18348684D01*
X18371648Y-18348684D02*
X18378791Y-18362970D01*
X18378791Y-18362970D02*
X18393077Y-18370113D01*
X18393077Y-18370113D02*
X18407363Y-18370113D01*
X18457363Y-18355827D02*
X18464506Y-18362970D01*
X18464506Y-18362970D02*
X18457363Y-18370113D01*
X18457363Y-18370113D02*
X18450220Y-18362970D01*
X18450220Y-18362970D02*
X18457363Y-18355827D01*
X18457363Y-18355827D02*
X18457363Y-18370113D01*
X18457363Y-18277256D02*
X18464506Y-18284399D01*
X18464506Y-18284399D02*
X18457363Y-18291541D01*
X18457363Y-18291541D02*
X18450220Y-18284399D01*
X18450220Y-18284399D02*
X18457363Y-18277256D01*
X18457363Y-18277256D02*
X18457363Y-18291541D01*
D10*
D12*
D10*
D11*
D10*
D11*
D10*
D11*
D10*
D11*
D10*
D11*
X19700220Y-19150720D02*
X19700220Y-19450720D01*
D10*
D11*
X26100220Y-19150720D02*
X26100220Y-19800720D01*
D14*
%TO.P,J7,1,Pin_1*%
%TO.N,D44*%
X10208000Y-12434000D03*
D15*
%TO.P,J7,2,Pin_2*%
%TO.N,D43*%
X10462000Y-12434000D03*
%TO.P,J7,3,Pin_3*%
%TO.N,D42*%
X10716000Y-12434000D03*
%TO.P,J7,4,Pin_4*%
%TO.N,D41*%
X10970000Y-12434000D03*
%TO.P,J7,5,Pin_5*%
%TO.N,D40*%
X11224000Y-12434000D03*
%TO.P,J7,6,Pin_6*%
%TO.N,D39*%
X11478000Y-12434000D03*
%TO.P,J7,7,Pin_7*%
%TO.N,D38*%
X11732000Y-12434000D03*
%TO.P,J7,8,Pin_8*%
%TO.N,D37*%
X11986000Y-12434000D03*
%TO.P,J7,9,Pin_9*%
%TO.N,D36*%
X12240000Y-12434000D03*
%TO.P,J7,10,Pin_10*%
%TO.N,D35*%
X12494000Y-12434000D03*
%TO.P,J7,11,Pin_11*%
%TO.N,D34*%
X12748000Y-12434000D03*
%TO.P,J7,12,Pin_12*%
%TO.N,D33*%
X13002000Y-12434000D03*
%TO.P,J7,13,Pin_13*%
%TO.N,A2*%
X13256000Y-12434000D03*
%TO.P,J7,14,Pin_14*%
%TO.N,A1*%
X13510000Y-12434000D03*
%TO.P,J7,15,Pin_15*%
%TO.N,GND*%
X13764000Y-12434000D03*
%TO.P,J7,16,Pin_16*%
%TO.N,VCC_5V*%
X14018000Y-12434000D03*
%TD*%
D14*
%TO.P,J3,1,Pin_1*%
%TO.N,Sleep*%
X11795000Y-9457500D03*
D15*
%TO.P,J3,2,Pin_2*%
%TO.N,Mute*%
X12049000Y-9457500D03*
%TO.P,J3,3,Pin_3*%
%TO.N,Wp*%
X12303000Y-9457500D03*
%TO.P,J3,4,Pin_4*%
%TO.N,I2C-SW*%
X12557000Y-9457500D03*
%TO.P,J3,5,Pin_5*%
%TO.N,A_SDA*%
X12811000Y-9457500D03*
%TO.P,J3,6,Pin_6*%
%TO.N,A_SCL*%
X13065000Y-9457500D03*
%TO.P,J3,7,Pin_7*%
%TO.N,A_SEN*%
X13319000Y-9457500D03*
%TO.P,J3,8,Pin_8*%
%TO.N,A_RST*%
X13573000Y-9457500D03*
%TO.P,J3,9,Pin_9*%
%TO.N,GND*%
X13827000Y-9457500D03*
%TO.P,J3,10,Pin_10*%
%TO.N,+3V3*%
X14081000Y-9457500D03*
%TO.P,J3,11,Pin_11*%
%TO.N,+5V*%
X14335000Y-9457500D03*
%TO.P,J3,12,Pin_12*%
%TO.N,+12V*%
X14589000Y-9457500D03*
%TD*%
D14*
%TO.P,J1,1,Pin_1*%
%TO.N,SSD1309_CS*%
X9938468Y-9239500D03*
D15*
%TO.P,J1,2,Pin_2*%
%TO.N,SSD1309_DC*%
X9938468Y-9493500D03*
%TO.P,J1,3,Pin_3*%
%TO.N,SSD1309_RST*%
X9938468Y-9747500D03*
%TO.P,J1,4,Pin_4*%
%TO.N,SSD1309_SDA*%
X9938468Y-10001500D03*
%TO.P,J1,5,Pin_5*%
%TO.N,SSD1309_SCL*%
X9938468Y-10255500D03*
%TO.P,J1,6,Pin_6*%
%TO.N,VCC_5V*%
X9938468Y-10509500D03*
%TO.P,J1,7,Pin_7*%
%TO.N,GND*%
X9938468Y-10763500D03*
%TD*%
D14*
%TO.P,J9,1,Pin_1*%
%TO.N,Net-(J4-Pin_2)*%
X15969000Y-11386000D03*
D15*
%TO.P,J9,2,Pin_2*%
%TO.N,Net-(J4-Pin_3)*%
X15969000Y-11132000D03*
%TO.P,J9,3,Pin_3*%
%TO.N,Net-(J4-Pin_4)*%
X15969000Y-10878000D03*
%TO.P,J9,4,Pin_4*%
%TO.N,Net-(J4-Pin_5)*%
X15969000Y-10624000D03*
%TO.P,J9,5,Pin_5*%
%TO.N,Net-(J4-Pin_6)*%
X15969000Y-10370000D03*
%TO.P,J9,6,Pin_6*%
%TO.N,Net-(J4-Pin_7)*%
X15969000Y-10116000D03*
%TO.P,J9,7,Pin_7*%
%TO.N,Net-(J4-Pin_8)*%
X15969000Y-9862000D03*
%TO.P,J9,8,Pin_8*%
%TO.N,Net-(J4-Pin_9)*%
X15969000Y-9608000D03*
%TO.P,J9,9,Pin_9*%
%TO.N,+5V*%
X15969000Y-9354000D03*
%TD*%
D16*
%TO.P,J2,1,Pin_1*%
%TO.N,Net-(J2-Pin_1)*%
X10667500Y-9365000D03*
D17*
%TO.P,J2,2,Pin_2*%
%TO.N,GND*%
X10667500Y-9238000D03*
%TD*%
D18*
%TO.P,U1,3V3_1,3V3*%
%TO.N,3.3V*%
X14731468Y-8374000D03*
%TO.P,U1,3V3_2,3V3*%
X14731468Y-8628000D03*
%TO.P,U1,5V_1,5V*%
%TO.N,VCC_5V*%
X14985468Y-8374000D03*
%TO.P,U1,5V_2,5V*%
X14985468Y-8628000D03*
%TO.P,U1,5V_3,5V*%
X10413468Y-10152000D03*
%TO.P,U1,A0,A0*%
%TO.N,A0*%
X14223468Y-11930000D03*
%TO.P,U1,A1,A1*%
%TO.N,A1*%
X14223468Y-11676000D03*
%TO.P,U1,A2,A2*%
%TO.N,A2*%
X13969468Y-11930000D03*
%TO.P,U1,A3,A3*%
%TO.N,unconnected-(U1-PadA3)*%
X13969468Y-11676000D03*
%TO.P,U1,A4,A4*%
%TO.N,unconnected-(U1-PadA4)*%
X13715468Y-11930000D03*
%TO.P,U1,A5,A5*%
%TO.N,unconnected-(U1-PadA5)*%
X13715468Y-11676000D03*
%TO.P,U1,A6,A6*%
%TO.N,unconnected-(U1-PadA6)*%
X13461468Y-11930000D03*
%TO.P,U1,A7,A7*%
%TO.N,unconnected-(U1-PadA7)*%
X13461468Y-11676000D03*
%TO.P,U1,A8,A8*%
%TO.N,unconnected-(U1-PadA8)*%
X13207468Y-11930000D03*
%TO.P,U1,A9,A9*%
%TO.N,unconnected-(U1-PadA9)*%
X13207468Y-11676000D03*
%TO.P,U1,A10,A10*%
%TO.N,unconnected-(U1-PadA10)*%
X12953468Y-11930000D03*
%TO.P,U1,A11,A11*%
%TO.N,unconnected-(U1-PadA11)*%
X12953468Y-11676000D03*
%TO.P,U1,A12,A12*%
%TO.N,unconnected-(U1-PadA12)*%
X12699468Y-11930000D03*
%TO.P,U1,A13,A13*%
%TO.N,unconnected-(U1-PadA13)*%
X12699468Y-11676000D03*
%TO.P,U1,A14,A14*%
%TO.N,unconnected-(U1-PadA14)*%
X12445468Y-11930000D03*
%TO.P,U1,A15,A15*%
%TO.N,unconnected-(U1-PadA15)*%
X12445468Y-11676000D03*
%TO.P,U1,AREF,AREF*%
%TO.N,unconnected-(U1-PadAREF)*%
X14477468Y-8628000D03*
%TO.P,U1,D2,D2*%
%TO.N,I2CINT*%
X13969468Y-8628000D03*
%TO.P,U1,D3,D3*%
%TO.N,ENC_P*%
X13969468Y-8374000D03*
%TO.P,U1,D4,D4*%
%TO.N,D4*%
X13715468Y-8628000D03*
%TO.P,U1,D5,D5*%
%TO.N,D5*%
X13715468Y-8374000D03*
%TO.P,U1,D6,D6*%
%TO.N,D6*%
X13461468Y-8628000D03*
%TO.P,U1,D7,D7*%
%TO.N,D7*%
X13461468Y-8374000D03*
%TO.P,U1,D8,D8*%
%TO.N,D8*%
X13207468Y-8628000D03*
%TO.P,U1,D9,D9*%
%TO.N,D9*%
X13207468Y-8374000D03*
%TO.P,U1,D10,D10*%
%TO.N,D10*%
X12953468Y-8628000D03*
%TO.P,U1,D11,D11*%
%TO.N,D11*%
X12953468Y-8374000D03*
%TO.P,U1,D12,D12*%
%TO.N,D12*%
X12699468Y-8628000D03*
%TO.P,U1,D13,D13*%
%TO.N,D13*%
X12699468Y-8374000D03*
%TO.P,U1,D14,D14*%
%TO.N,D14*%
X12445468Y-8628000D03*
%TO.P,U1,D15,D15*%
%TO.N,D15*%
X12445468Y-8374000D03*
%TO.P,U1,D16,D16*%
%TO.N,unconnected-(U1-PadD16)*%
X12191468Y-8628000D03*
%TO.P,U1,D17,D17*%
%TO.N,unconnected-(U1-PadD17)*%
X12191468Y-8374000D03*
%TO.P,U1,D18,D18*%
%TO.N,ENC_A*%
X11937468Y-8628000D03*
%TO.P,U1,D19,D19*%
%TO.N,ENC_B*%
X11937468Y-8374000D03*
%TO.P,U1,D20,D20*%
%TO.N,A_SDA*%
X11683468Y-8628000D03*
%TO.P,U1,D21,D21*%
%TO.N,A_SCL*%
X11683468Y-8374000D03*
%TO.P,U1,D22,D22*%
%TO.N,A_RST*%
X11429468Y-8628000D03*
%TO.P,U1,D23,D23*%
%TO.N,A_SEN*%
X11429468Y-8374000D03*
%TO.P,U1,D24,D24*%
%TO.N,unconnected-(U1-PadD24)*%
X11175468Y-8628000D03*
%TO.P,U1,D25,D25*%
%TO.N,unconnected-(U1-PadD25)*%
X11175468Y-8374000D03*
%TO.P,U1,D26,D26*%
%TO.N,unconnected-(U1-PadD26)*%
X10921468Y-8628000D03*
%TO.P,U1,D27,D27*%
%TO.N,unconnected-(U1-PadD27)*%
X10921468Y-8374000D03*
%TO.P,U1,D28,D28*%
%TO.N,I2C-SW*%
X10667468Y-8628000D03*
%TO.P,U1,D29,D29*%
%TO.N,Wp*%
X10667468Y-8374000D03*
%TO.P,U1,D30,D30*%
%TO.N,Sleep*%
X10413468Y-8628000D03*
%TO.P,U1,D31,D31*%
%TO.N,Mute*%
X10413468Y-8374000D03*
%TO.P,U1,D32,D32*%
%TO.N,unconnected-(U1-PadD32)*%
X12191468Y-11930000D03*
%TO.P,U1,D33,D33*%
%TO.N,D33*%
X12191468Y-11676000D03*
%TO.P,U1,D34,D34*%
%TO.N,D34*%
X11937468Y-11930000D03*
%TO.P,U1,D35,D35*%
%TO.N,D35*%
X11937468Y-11676000D03*
%TO.P,U1,D36,D36*%
%TO.N,D36*%
X11683468Y-11930000D03*
%TO.P,U1,D37,D37*%
%TO.N,D37*%
X11683468Y-11676000D03*
%TO.P,U1,D38,D38*%
%TO.N,D38*%
X11429468Y-11930000D03*
%TO.P,U1,D39,D39*%
%TO.N,D39*%
X11429468Y-11676000D03*
%TO.P,U1,D40,D40*%
%TO.N,D40*%
X11175468Y-11930000D03*
%TO.P,U1,D41,D41*%
%TO.N,D41*%
X11175468Y-11676000D03*
%TO.P,U1,D42,D42*%
%TO.N,D42*%
X10921468Y-11930000D03*
%TO.P,U1,D43,D43*%
%TO.N,D43*%
X10921468Y-11676000D03*
%TO.P,U1,D44,D44*%
%TO.N,D44*%
X10667468Y-11930000D03*
%TO.P,U1,D45,D45*%
%TO.N,unconnected-(U1-PadD45)*%
X10667468Y-11676000D03*
%TO.P,U1,D46,D46*%
%TO.N,SSD1309_DC*%
X10413468Y-11930000D03*
%TO.P,U1,D47,D47*%
%TO.N,unconnected-(U1-PadD47)*%
X10413468Y-11676000D03*
%TO.P,U1,D48,D48*%
%TO.N,SSD1309_RST*%
X10413468Y-11422000D03*
%TO.P,U1,D49,D49*%
%TO.N,unconnected-(U1-PadD49)*%
X10667468Y-11422000D03*
%TO.P,U1,D50,D50*%
%TO.N,unconnected-(U1-PadD50)*%
X10413468Y-11168000D03*
%TO.P,U1,D51,D51*%
%TO.N,SSD1309_SDA*%
X10667468Y-11168000D03*
%TO.P,U1,D52,D52*%
%TO.N,SSD1309_SCL*%
X10413468Y-10914000D03*
%TO.P,U1,D53,D53*%
%TO.N,SSD1309_CS*%
X10667468Y-10914000D03*
%TO.P,U1,GND_1,GND*%
%TO.N,GND*%
X15239468Y-8374000D03*
%TO.P,U1,GND_2,GND*%
X15239468Y-8628000D03*
%TO.P,U1,GND_3,GND*%
X10413468Y-9644000D03*
%TO.P,U1,MISO,MISO*%
%TO.N,unconnected-(U1-PadMISO)*%
X10667468Y-10152000D03*
%TO.P,U1,MOSI,MOSI*%
%TO.N,unconnected-(U1-PadMOSI)*%
X10413468Y-9898000D03*
%TO.P,U1,RESET,RESET*%
%TO.N,Net-(J2-Pin_1)*%
X10667468Y-9644000D03*
%TO.P,U1,RST,RST*%
%TO.N,unconnected-(U1-PadRST)*%
X14477468Y-8374000D03*
%TO.P,U1,RX,RX*%
%TO.N,unconnected-(U1-PadRX)*%
X14223468Y-8628000D03*
%TO.P,U1,SCK,SCK*%
%TO.N,unconnected-(U1-PadSCK)*%
X10667468Y-9898000D03*
%TO.P,U1,TX,TX*%
%TO.N,unconnected-(U1-PadTX)*%
X14223468Y-8374000D03*
%TO.P,U1,VIN_1,VIN*%
%TO.N,12V*%
X15493468Y-8374000D03*
%TO.P,U1,VIN_2,VIN*%
X15493468Y-8628000D03*
%TD*%
D19*
%TO.P,U3,1,A0*%
%TO.N,GND*%
X12813000Y-10090000D03*
D20*
%TO.P,U3,2,A1*%
X13067000Y-10090000D03*
%TO.P,U3,3,A2*%
X13321000Y-10090000D03*
%TO.P,U3,4,P0*%
%TO.N,Net-(J4-Pin_9)*%
X13575000Y-10090000D03*
%TO.P,U3,5,P1*%
%TO.N,Net-(J4-Pin_8)*%
X13829000Y-10090000D03*
%TO.P,U3,6,P2*%
%TO.N,Net-(J4-Pin_7)*%
X14083000Y-10090000D03*
%TO.P,U3,7,P3*%
%TO.N,Net-(J4-Pin_6)*%
X14337000Y-10090000D03*
%TO.P,U3,8,VSS*%
%TO.N,GND*%
X14591000Y-10090000D03*
%TO.P,U3,9,P4*%
%TO.N,Net-(J4-Pin_5)*%
X14591000Y-10852000D03*
%TO.P,U3,10,P5*%
%TO.N,Net-(J4-Pin_4)*%
X14337000Y-10852000D03*
%TO.P,U3,11,P6*%
%TO.N,Net-(J4-Pin_3)*%
X14083000Y-10852000D03*
%TO.P,U3,12,P7*%
%TO.N,Net-(J4-Pin_2)*%
X13829000Y-10852000D03*
%TO.P,U3,13,~{INT}*%
%TO.N,I2CINT*%
X13575000Y-10852000D03*
%TO.P,U3,14,SCL*%
%TO.N,A_SCL*%
X13321000Y-10852000D03*
%TO.P,U3,15,SDA*%
%TO.N,A_SDA*%
X13067000Y-10852000D03*
%TO.P,U3,16,VDD*%
%TO.N,+5V*%
X12813000Y-10852000D03*
%TD*%
D21*
%TO.P,R12,1*%
%TO.N,12V*%
X15017000Y-11640000D03*
%TO.P,R12,2*%
%TO.N,A0*%
X15017000Y-11932500D03*
%TD*%
D22*
%TO.P,D3,1,K*%
%TO.N,+5V*%
X14335000Y-9163000D03*
%TO.P,D3,2,A*%
%TO.N,VCC_5V*%
X14615000Y-9163000D03*
%TD*%
D14*
%TO.P,J8,1,Pin_1*%
%TO.N,VCC_5V*%
X16680000Y-8465000D03*
D15*
%TO.P,J8,2,Pin_2*%
%TO.N,ENC_A*%
X16680000Y-8719000D03*
%TO.P,J8,3,Pin_3*%
%TO.N,ENC_B*%
X16680000Y-8973000D03*
%TO.P,J8,4,Pin_4*%
%TO.N,ENC_P*%
X16680000Y-9227000D03*
%TO.P,J8,5,Pin_5*%
%TO.N,GND*%
X16680000Y-9481000D03*
%TD*%
D14*
%TO.P,SW1,1,A*%
%TO.N,Net-(J5-Pin_1)*%
X14840000Y-12441000D03*
D15*
%TO.P,SW1,2,B*%
%TO.N,12V*%
X14586000Y-12441000D03*
%TD*%
D14*
%TO.P,J5,1,Pin_1*%
%TO.N,Net-(J5-Pin_1)*%
X15334000Y-12445000D03*
D15*
%TO.P,J5,2,Pin_2*%
%TO.N,GND*%
X15588000Y-12445000D03*
%TD*%
D23*
%TO.P,R11,1*%
%TO.N,A0*%
X14776000Y-11931500D03*
%TO.P,R11,2*%
%TO.N,GND*%
X14776000Y-11639000D03*
%TD*%
D14*
%TO.P,J6,1,Pin_1*%
%TO.N,12V*%
X16341500Y-12450000D03*
D15*
%TO.P,J6,2,Pin_2*%
%TO.N,GND*%
X16087500Y-12450000D03*
%TD*%
D22*
%TO.P,D2,1,K*%
%TO.N,+12V*%
X14999000Y-9460000D03*
%TO.P,D2,2,A*%
%TO.N,12V*%
X15279000Y-9460000D03*
%TD*%
D16*
%TO.P,J4,1,Pin_1*%
%TO.N,GND*%
X16686000Y-10998000D03*
D17*
%TO.P,J4,2,Pin_2*%
%TO.N,Net-(J4-Pin_2)*%
X16686000Y-10871000D03*
%TO.P,J4,3,Pin_3*%
%TO.N,Net-(J4-Pin_3)*%
X16686000Y-10744000D03*
%TO.P,J4,4,Pin_4*%
%TO.N,Net-(J4-Pin_4)*%
X16686000Y-10617000D03*
%TO.P,J4,5,Pin_5*%
%TO.N,Net-(J4-Pin_5)*%
X16686000Y-10490000D03*
%TO.P,J4,6,Pin_6*%
%TO.N,Net-(J4-Pin_6)*%
X16686000Y-10363000D03*
%TO.P,J4,7,Pin_7*%
%TO.N,Net-(J4-Pin_7)*%
X16686000Y-10236000D03*
%TO.P,J4,8,Pin_8*%
%TO.N,Net-(J4-Pin_8)*%
X16686000Y-10109000D03*
%TO.P,J4,9,Pin_9*%
%TO.N,Net-(J4-Pin_9)*%
X16686000Y-9982000D03*
%TO.P,J4,10,Pin_10*%
%TO.N,+5V*%
X16686000Y-9855000D03*
%TD*%
D22*
%TO.P,D1,1,K*%
%TO.N,+3V3*%
X14337500Y-8915000D03*
%TO.P,D1,2,A*%
%TO.N,3.3V*%
X14617500Y-8915000D03*
%TD*%
D24*
%TO.N,GND*%
X9157000Y-9306000D03*
X9153000Y-10535000D03*
X14985000Y-12658000D03*
X17545000Y-8220000D03*
X14349000Y-10509000D03*
X13756000Y-12654000D03*
X12922000Y-7842000D03*
X10082000Y-12646000D03*
X11375000Y-7838000D03*
X12317000Y-12656000D03*
X17544000Y-9730000D03*
X15931000Y-7850000D03*
X13850000Y-10542000D03*
X9160000Y-9552000D03*
X17171000Y-7851000D03*
X14743000Y-12655000D03*
X13999000Y-12655000D03*
X17536000Y-12438000D03*
X12770000Y-12651000D03*
X9156000Y-10781000D03*
X15239468Y-8839532D03*
X17538000Y-10213000D03*
X16734000Y-12661000D03*
X10887000Y-7838000D03*
X9163000Y-8300000D03*
X9578000Y-12651000D03*
X10629000Y-7840000D03*
X13449000Y-9032000D03*
X17540000Y-10959000D03*
X9158000Y-11039000D03*
X10126000Y-10922000D03*
X13657000Y-9039000D03*
X17465000Y-12662000D03*
X13514000Y-12651000D03*
X11903000Y-8856000D03*
X17539000Y-11674000D03*
X9160000Y-7831000D03*
X16419000Y-7850000D03*
X9154000Y-12252000D03*
X10567000Y-12650000D03*
X16913000Y-7853000D03*
X15433000Y-7847000D03*
X9904000Y-7831000D03*
X12647000Y-8856000D03*
X17535000Y-11199000D03*
X11881000Y-7843000D03*
X15673000Y-7852000D03*
X11819000Y-12653000D03*
X9160000Y-8798000D03*
X11167000Y-10384000D03*
X11165000Y-10745000D03*
X11641000Y-7838000D03*
X15241000Y-8179000D03*
X11133000Y-7835000D03*
X17535000Y-10455000D03*
X12385000Y-7838000D03*
X9160000Y-8054000D03*
X17417000Y-7848000D03*
X9836000Y-12649000D03*
X12627000Y-7841000D03*
X13010000Y-12656000D03*
X16673000Y-7848000D03*
X17547000Y-8478000D03*
X9156000Y-10293000D03*
X15749000Y-12661000D03*
X12563000Y-12653000D03*
X9153000Y-11279000D03*
X9162000Y-9810000D03*
X13224000Y-9032000D03*
X10389000Y-7835000D03*
X11065000Y-12653000D03*
X17536000Y-12172000D03*
X9154000Y-12518000D03*
X16236000Y-12658000D03*
X12815000Y-10327000D03*
X13357000Y-9780000D03*
X12139000Y-7841000D03*
X17539000Y-9970000D03*
X16177000Y-7847000D03*
X10807000Y-12655000D03*
X14172000Y-7844000D03*
X17542000Y-7974000D03*
X17542000Y-9472000D03*
X12059000Y-12658000D03*
X11166000Y-11088000D03*
X9338000Y-12646000D03*
X17536000Y-11428000D03*
X12401000Y-8859000D03*
X17542000Y-8984000D03*
X14497000Y-12658000D03*
X9160000Y-9064000D03*
X17538000Y-10701000D03*
X9154000Y-11508000D03*
X13357000Y-10316000D03*
X17222000Y-12661000D03*
X13908000Y-7845000D03*
X16980000Y-12658000D03*
X14916000Y-7844000D03*
X13268000Y-12654000D03*
X9157000Y-10050000D03*
X14412000Y-7849000D03*
X9400000Y-7836000D03*
X17539000Y-9226000D03*
X9157000Y-11754000D03*
X17541000Y-11932000D03*
X10146000Y-7834000D03*
X15491000Y-12663000D03*
X16476000Y-12663000D03*
X9165000Y-8558000D03*
X15158000Y-7847000D03*
X14239000Y-12660000D03*
X9159000Y-12012000D03*
X14670000Y-7847000D03*
X15995000Y-12658000D03*
X15251000Y-12658000D03*
X11311000Y-12650000D03*
X17542000Y-8718000D03*
X10125000Y-11197000D03*
X13420000Y-7845000D03*
X13666000Y-7842000D03*
X9658000Y-7834000D03*
X10324000Y-12649000D03*
X11553000Y-12653000D03*
X12143000Y-8861000D03*
X13162000Y-7847000D03*
%TO.N,I2C-SW*%
X12560968Y-9704000D03*
%TO.N,A_SDA*%
X12815000Y-8952000D03*
%TO.N,A_SCL*%
X13068968Y-9039000D03*
%TO.N,A_SEN*%
X13322968Y-9226950D03*
%TO.N,A_RST*%
X13573000Y-9182000D03*
%TO.N,Mute*%
X12060000Y-9946000D03*
%TO.N,Sleep*%
X11798000Y-9886000D03*
%TO.N,Wp*%
X12305968Y-9691500D03*
%TO.N,I2CINT*%
X12939000Y-9687000D03*
X12941000Y-8952000D03*
X13149000Y-10548000D03*
%TD*%
D25*
%TO.N,GND*%
X16002000Y-12522000D02*
X15879000Y-12399000D01*
X15709000Y-12565000D02*
X15877000Y-12397000D01*
X13707000Y-12322000D02*
X13707000Y-12559500D01*
D26*
X10481000Y-9194000D02*
X10437000Y-9238000D01*
X10099500Y-10805000D02*
X10032000Y-10737500D01*
D25*
X15745532Y-12561750D02*
X15745032Y-12562250D01*
D27*
X14779000Y-11403000D02*
X14776000Y-11406000D01*
X13833468Y-9257000D02*
X13833468Y-9370500D01*
D28*
X10437000Y-9238000D02*
X10413468Y-9261532D01*
D26*
X9608000Y-10805000D02*
X9565000Y-10848000D01*
D27*
X13832000Y-9595500D02*
X13832000Y-9482000D01*
D25*
X15559063Y-12565000D02*
X15709000Y-12565000D01*
D26*
X16606500Y-9421000D02*
X16882500Y-9421000D01*
D27*
X12788000Y-10179000D02*
X13324000Y-10179000D01*
D26*
X10845000Y-9194000D02*
X10481000Y-9194000D01*
D27*
X10414000Y-9467000D02*
X10414000Y-9652000D01*
D25*
X16002000Y-12549750D02*
X16002000Y-12522000D01*
D29*
X10667500Y-9238000D02*
X10437000Y-9238000D01*
D26*
X16842250Y-9461250D02*
X16819500Y-9484000D01*
D27*
X12714000Y-10108000D02*
X12800000Y-10022000D01*
D25*
X15877000Y-12397000D02*
X15636000Y-12397000D01*
D27*
X15239468Y-8517000D02*
X15239468Y-8628000D01*
D25*
X16101032Y-12571750D02*
X15772032Y-12571750D01*
D27*
X14649000Y-10128000D02*
X14535500Y-10128000D01*
D26*
X9494500Y-10737500D02*
X9452000Y-10780000D01*
X10032000Y-10737500D02*
X9494500Y-10737500D01*
D27*
X15240000Y-8237468D02*
X15240000Y-8560000D01*
D29*
X10851000Y-9245000D02*
X10620500Y-9245000D01*
D26*
X10099500Y-10805000D02*
X10126000Y-10831500D01*
D27*
X13357000Y-9780000D02*
X13357000Y-10316000D01*
D25*
X15636000Y-12397000D02*
X15588000Y-12445000D01*
D27*
X15239468Y-8517000D02*
X15239468Y-8839532D01*
D26*
X16882500Y-9421000D02*
X16760000Y-9543500D01*
D28*
X15718032Y-12561750D02*
X15708532Y-12552250D01*
D26*
X16819500Y-9484000D02*
X16551000Y-9484000D01*
D27*
X15239468Y-8839532D02*
X15235000Y-8844000D01*
D25*
X16074532Y-12561750D02*
X15745532Y-12561750D01*
X15759032Y-12551250D02*
X15759032Y-12514968D01*
X15879000Y-12549000D02*
X15879000Y-12399000D01*
X13757968Y-12316500D02*
X13757968Y-12554000D01*
X15759032Y-12514968D02*
X15877000Y-12397000D01*
D27*
X13830468Y-9373500D02*
X13830468Y-9471500D01*
X15239468Y-8374000D02*
X15239468Y-8517000D01*
D26*
X10413468Y-9261532D02*
X10413468Y-9644000D01*
D25*
X13824500Y-12324500D02*
X13824500Y-12562000D01*
X15711250Y-12562750D02*
X15877000Y-12397000D01*
D26*
X16551000Y-9484000D02*
X16548750Y-9481750D01*
D27*
X13833468Y-9370500D02*
X13830468Y-9373500D01*
D25*
X15874000Y-12482000D02*
X15545000Y-12482000D01*
X15875000Y-12395000D02*
X15546000Y-12395000D01*
D30*
X16074032Y-12562250D02*
X16074532Y-12561750D01*
D25*
X16029000Y-12549000D02*
X15879000Y-12399000D01*
X16116000Y-12397000D02*
X15787000Y-12397000D01*
X15889032Y-12571750D02*
X15560032Y-12571750D01*
D27*
X12800000Y-10022000D02*
X13319000Y-10022000D01*
D26*
X9594000Y-10922000D02*
X10126000Y-10922000D01*
D25*
X16116000Y-12555000D02*
X16116000Y-12405000D01*
D26*
X9452000Y-10780000D02*
X9594000Y-10922000D01*
D27*
X16636000Y-11030000D02*
X16867000Y-11030000D01*
D26*
X10126000Y-10831500D02*
X10126000Y-10922000D01*
X16760000Y-9543500D02*
X16487000Y-9543500D01*
D27*
X14650000Y-10031000D02*
X14536500Y-10031000D01*
D25*
X15679032Y-12562750D02*
X15711250Y-12562750D01*
D29*
X10780250Y-9242500D02*
X10549750Y-9242500D01*
D25*
X15545000Y-12562000D02*
X15545000Y-12412000D01*
D26*
X16606000Y-9424500D02*
X16487000Y-9543500D01*
X10099500Y-10805000D02*
X9608000Y-10805000D01*
D25*
X16109000Y-12482000D02*
X15780000Y-12482000D01*
D27*
X14776000Y-11406000D02*
X14776000Y-11639000D01*
D25*
X16099000Y-12549000D02*
X16029000Y-12549000D01*
X15879000Y-12399000D02*
X15877000Y-12397000D01*
D28*
X10470968Y-9417000D02*
X10413468Y-9474500D01*
D26*
%TO.N,+5V*%
X14328468Y-9169937D02*
X14328468Y-9470000D01*
D28*
%TO.N,D33*%
X12077648Y-12074500D02*
X12077648Y-11789820D01*
D25*
X13000968Y-12439500D02*
X13000968Y-12398500D01*
X12190968Y-11687000D02*
X12171968Y-11706000D01*
D28*
X12999968Y-12286000D02*
X12788468Y-12074500D01*
X12788468Y-12074500D02*
X12077648Y-12074500D01*
X12999968Y-12452000D02*
X12999968Y-12286000D01*
X12077648Y-11789820D02*
X12191468Y-11676000D01*
%TO.N,I2C-SW*%
X12560968Y-9526500D02*
X12560968Y-9422000D01*
D27*
X12560468Y-9526000D02*
X12560968Y-9526500D01*
D31*
X12560968Y-9704000D02*
X12560968Y-9526500D01*
D27*
X12560468Y-9471500D02*
X12560468Y-9526000D01*
D31*
%TO.N,A_SDA*%
X12815000Y-9020000D02*
X12815000Y-9453500D01*
D29*
X12809000Y-9343000D02*
X12809000Y-9459000D01*
D31*
X12815000Y-8952000D02*
X12815000Y-9019063D01*
%TO.N,A_SCL*%
X13068468Y-9039500D02*
X13068968Y-9039000D01*
D26*
X13065000Y-9457500D02*
X13068468Y-9454032D01*
D31*
X13068468Y-9454032D02*
X13068468Y-9039500D01*
D29*
X13068468Y-9344000D02*
X13068468Y-9454032D01*
D27*
%TO.N,A_SEN*%
X13322468Y-9471500D02*
X13322968Y-9471000D01*
D31*
X13322968Y-9226950D02*
X13322968Y-9406000D01*
D28*
X13322968Y-9406000D02*
X13322968Y-9424500D01*
D27*
X13322968Y-9471000D02*
X13322968Y-9406000D01*
%TO.N,A_RST*%
X13576468Y-9471500D02*
X13575468Y-9470500D01*
X13575468Y-9470500D02*
X13575468Y-9413500D01*
D28*
X13576968Y-9472000D02*
X13575468Y-9470500D01*
D31*
X13575468Y-9413500D02*
X13575468Y-9184468D01*
D28*
X13575468Y-9184468D02*
X13573000Y-9182000D01*
D31*
%TO.N,Mute*%
X12052468Y-9938468D02*
X12052468Y-9543000D01*
D28*
X12060000Y-9946000D02*
X12052468Y-9938468D01*
D27*
X12052468Y-9471500D02*
X12052468Y-9543000D01*
%TO.N,Sleep*%
X11798468Y-9471500D02*
X11798468Y-9546500D01*
D31*
X11798468Y-9885532D02*
X11798468Y-9546500D01*
D28*
X11798968Y-9490000D02*
X11803468Y-9494500D01*
X11798000Y-9886000D02*
X11798468Y-9885532D01*
X11798000Y-9886000D02*
X11798000Y-9780968D01*
X11798000Y-9780968D02*
X11803968Y-9775000D01*
%TO.N,A1*%
X13510000Y-12226000D02*
X13553000Y-12183000D01*
D25*
X14223468Y-11680532D02*
X14190000Y-11714000D01*
D28*
X14098000Y-11805000D02*
X14223468Y-11679532D01*
X14027000Y-12183000D02*
X14098000Y-12112000D01*
X14223468Y-11679532D02*
X14223468Y-11676000D01*
X13510000Y-12434000D02*
X13510000Y-12226000D01*
D25*
X13512000Y-12442000D02*
X13512000Y-12401000D01*
D28*
X13553000Y-12183000D02*
X14027000Y-12183000D01*
X14098000Y-12112000D02*
X14098000Y-11805000D01*
D25*
X14223468Y-11676000D02*
X14223468Y-11680532D01*
D30*
%TO.N,A0*%
X14223468Y-11930000D02*
X14628468Y-11930000D01*
D26*
X14223468Y-11930000D02*
X15053500Y-11930000D01*
D30*
X14628468Y-11930000D02*
X14628968Y-11929500D01*
D28*
%TO.N,A2*%
X13969468Y-11943532D02*
X13767000Y-12146000D01*
X13344000Y-12146000D02*
X13256000Y-12234000D01*
X13256000Y-12234000D02*
X13256000Y-12434000D01*
D25*
X13969468Y-11943532D02*
X13941000Y-11972000D01*
X13256000Y-12431000D02*
X13256000Y-12390000D01*
D28*
X13969468Y-11930000D02*
X13969468Y-11943532D01*
X13767000Y-12146000D02*
X13344000Y-12146000D01*
%TO.N,D34*%
X12588468Y-12127000D02*
X12000968Y-12127000D01*
D25*
X12745968Y-12397000D02*
X12745968Y-12438000D01*
D28*
X12745968Y-12452000D02*
X12745968Y-12284500D01*
X12745968Y-12284500D02*
X12588468Y-12127000D01*
X11937468Y-12063500D02*
X11937468Y-11930000D01*
D25*
X11938468Y-11936000D02*
X11938468Y-11977000D01*
D28*
X12000968Y-12127000D02*
X11937468Y-12063500D01*
%TO.N,D35*%
X12490968Y-12451000D02*
X12490968Y-12252000D01*
X11810968Y-12027000D02*
X11810968Y-11802500D01*
X12491968Y-12452000D02*
X12490968Y-12451000D01*
X11810968Y-11802500D02*
X11937468Y-11676000D01*
D25*
X11935968Y-11692000D02*
X11916968Y-11711000D01*
X12493468Y-12437000D02*
X12493468Y-12396000D01*
D28*
X11958468Y-12174500D02*
X11810968Y-12027000D01*
X12413468Y-12174500D02*
X11958468Y-12174500D01*
X12490968Y-12252000D02*
X12413468Y-12174500D01*
D25*
X11935968Y-11686000D02*
X11935968Y-11692000D01*
%TO.N,D36*%
X11683468Y-11931000D02*
X11683468Y-11972000D01*
X12240968Y-12437000D02*
X12240968Y-12396000D01*
D28*
X12205968Y-12219500D02*
X11855968Y-12219500D01*
X12237968Y-12251500D02*
X12205968Y-12219500D01*
X12237968Y-12452000D02*
X12237968Y-12251500D01*
X11683468Y-12047000D02*
X11683468Y-11930000D01*
X11855968Y-12219500D02*
X11683468Y-12047000D01*
%TO.N,D37*%
X11919718Y-12257000D02*
X11983968Y-12321250D01*
X11783468Y-12257000D02*
X11919718Y-12257000D01*
X11683468Y-11676000D02*
X11563468Y-11796000D01*
X11563468Y-12037000D02*
X11783468Y-12257000D01*
D25*
X11670968Y-11691000D02*
X11670968Y-11697000D01*
D28*
X11983968Y-12321250D02*
X11983968Y-12452000D01*
D25*
X11980968Y-12399500D02*
X11980968Y-12440500D01*
D28*
X11563468Y-11796000D02*
X11563468Y-12037000D01*
D25*
X11683468Y-11676000D02*
X11682468Y-11677000D01*
X11670968Y-11697000D02*
X11651968Y-11716000D01*
D28*
%TO.N,D38*%
X11729968Y-12452000D02*
X11728468Y-12450500D01*
X11550968Y-12127000D02*
X11478468Y-12127000D01*
D25*
X11730968Y-12402000D02*
X11730968Y-12443000D01*
D28*
X11478468Y-12127000D02*
X11429468Y-12078000D01*
D25*
X11428468Y-11980500D02*
X11428468Y-11939500D01*
D28*
X11728468Y-12304500D02*
X11550968Y-12127000D01*
X11429468Y-12078000D02*
X11429468Y-11930000D01*
X11728468Y-12450500D02*
X11728468Y-12304500D01*
%TO.N,Net-(J2-Pin_1)*%
X10667500Y-9643968D02*
X10667468Y-9644000D01*
X10667500Y-9365000D02*
X10667500Y-9394500D01*
X10667500Y-9394500D02*
X10669000Y-9396000D01*
D26*
%TO.N,3.3V*%
X14731468Y-8374000D02*
X14731468Y-8628000D01*
X14731468Y-8878532D02*
X14695000Y-8915000D01*
X14695000Y-8915000D02*
X14617500Y-8915000D01*
X14731468Y-8628000D02*
X14731468Y-8878532D01*
D29*
%TO.N,12V*%
X14643000Y-12148000D02*
X15196000Y-12148000D01*
X15017000Y-11640000D02*
X15232000Y-11640000D01*
X15277000Y-12148000D02*
X15277000Y-12067000D01*
X15278000Y-12066000D02*
X15278000Y-11379000D01*
X14586000Y-12205000D02*
X14643000Y-12148000D01*
X16298000Y-12148000D02*
X15196000Y-12148000D01*
X15494000Y-8628532D02*
X15493468Y-8628000D01*
X15494000Y-9009000D02*
X15494000Y-8628532D01*
D26*
X15492468Y-8373000D02*
X15493468Y-8374000D01*
D29*
X15232000Y-11640000D02*
X15278000Y-11594000D01*
X16341500Y-12450000D02*
X16341500Y-12191500D01*
X15278000Y-11379000D02*
X15278000Y-9461000D01*
D26*
X16341468Y-12450032D02*
X16341500Y-12450000D01*
D29*
X15279000Y-9460000D02*
X15279000Y-9224000D01*
X15279000Y-9224000D02*
X15494000Y-9009000D01*
D26*
X15492468Y-8627000D02*
X15493468Y-8628000D01*
D29*
X15278000Y-11594000D02*
X15278000Y-11379000D01*
X15277000Y-12067000D02*
X15278000Y-12066000D01*
D26*
X15493468Y-8374000D02*
X15493468Y-8628000D01*
D29*
X16341500Y-12191500D02*
X16298000Y-12148000D01*
X14586000Y-12441000D02*
X14586000Y-12205000D01*
D31*
%TO.N,Wp*%
X12306468Y-9691000D02*
X12306468Y-9531000D01*
D27*
X12306468Y-9471500D02*
X12306468Y-9531000D01*
D28*
X12305968Y-9691500D02*
X12306468Y-9691000D01*
D32*
%TO.N,Net-(J4-Pin_2)*%
X16686000Y-10871000D02*
X16685000Y-10872000D01*
X16552000Y-10871000D02*
X16243000Y-11180000D01*
X16243000Y-11263000D02*
X16120000Y-11386000D01*
X16680000Y-10865000D02*
X16686000Y-10871000D01*
X16243000Y-11180000D02*
X16243000Y-11263000D01*
X16686000Y-10871000D02*
X16552000Y-10871000D01*
X16120000Y-11386000D02*
X15969000Y-11386000D01*
D31*
%TO.N,I2CINT*%
X12941000Y-9685000D02*
X12939000Y-9687000D01*
X12941000Y-8952000D02*
X12941000Y-9685000D01*
X13149000Y-10548000D02*
X13450000Y-10548000D01*
X13450000Y-10548000D02*
X13575000Y-10673000D01*
X13575000Y-10673000D02*
X13575000Y-10852000D01*
D26*
%TO.N,+3V3*%
X14310000Y-8922500D02*
X14312500Y-8920000D01*
X14084468Y-9043032D02*
X14084468Y-9471500D01*
X14205000Y-8922500D02*
X14084468Y-9043032D01*
X14205000Y-8922500D02*
X14310000Y-8922500D01*
%TO.N,VCC_5V*%
X10042000Y-8990000D02*
X9611000Y-8990000D01*
X16144000Y-8048000D02*
X15107000Y-8048000D01*
X14997000Y-8048000D02*
X10496000Y-8048000D01*
X9938468Y-10509500D02*
X10295500Y-10509500D01*
X10495000Y-8049000D02*
X10334000Y-8049000D01*
X9489000Y-9112000D02*
X9489000Y-10324000D01*
X10181000Y-8851000D02*
X10042000Y-8990000D01*
X16333000Y-8465000D02*
X16278000Y-8410000D01*
X15107000Y-8048000D02*
X14997000Y-8048000D01*
X10334000Y-8049000D02*
X10181000Y-8202000D01*
X10496000Y-8048000D02*
X10495000Y-8049000D01*
X14985468Y-9067500D02*
X14985468Y-8628000D01*
X9938468Y-10509500D02*
X9943468Y-10504500D01*
X10181000Y-8202000D02*
X10181000Y-8851000D01*
X10295500Y-10509500D02*
X10413468Y-10391532D01*
X9611000Y-8990000D02*
X9489000Y-9112000D01*
X16278000Y-8182000D02*
X16144000Y-8048000D01*
X14617500Y-9152500D02*
X14618000Y-9153000D01*
X14997000Y-8048000D02*
X14985468Y-8059532D01*
X10413468Y-10391532D02*
X10413468Y-10152000D01*
X14618000Y-9153000D02*
X14899968Y-9153000D01*
X14899968Y-9153000D02*
X14985468Y-9067500D01*
X16680000Y-8465000D02*
X16333000Y-8465000D01*
X16278000Y-8410000D02*
X16278000Y-8182000D01*
X9674500Y-10509500D02*
X9938468Y-10509500D01*
X14985468Y-8059532D02*
X14985468Y-8374000D01*
X9489000Y-10324000D02*
X9674500Y-10509500D01*
D31*
X16676000Y-8461000D02*
X16680000Y-8465000D01*
D26*
X14985468Y-8628000D02*
X14985468Y-8374000D01*
D28*
%TO.N,unconnected-(U1-PadD25)*%
X11175468Y-8417032D02*
X11175468Y-8374000D01*
D32*
%TO.N,Net-(J4-Pin_4)*%
X16194000Y-10878000D02*
X16455000Y-10617000D01*
X15969000Y-10878000D02*
X16194000Y-10878000D01*
X16455000Y-10617000D02*
X16686000Y-10617000D01*
%TO.N,Net-(J4-Pin_5)*%
X16221000Y-10624000D02*
X16355000Y-10490000D01*
X15969000Y-10624000D02*
X16221000Y-10624000D01*
X16355000Y-10490000D02*
X16686000Y-10490000D01*
%TO.N,Net-(J4-Pin_6)*%
X16686000Y-10363000D02*
X15976000Y-10363000D01*
X15976000Y-10363000D02*
X15969000Y-10370000D01*
%TO.N,Net-(J4-Pin_7)*%
X16216000Y-10119000D02*
X16333000Y-10236000D01*
X15969000Y-10116000D02*
X15972000Y-10119000D01*
X16333000Y-10236000D02*
X16686000Y-10236000D01*
X15972000Y-10119000D02*
X16216000Y-10119000D01*
%TO.N,Net-(J4-Pin_8)*%
X16188000Y-9862000D02*
X15969000Y-9862000D01*
X16435000Y-10109000D02*
X16188000Y-9862000D01*
X16686000Y-10109000D02*
X16435000Y-10109000D01*
%TO.N,Net-(J4-Pin_9)*%
X16540000Y-9983000D02*
X16692250Y-9983000D01*
X16165000Y-9608000D02*
X16540000Y-9983000D01*
X15969000Y-9608000D02*
X16165000Y-9608000D01*
D26*
%TO.N,Net-(J5-Pin_1)*%
X14843000Y-12438000D02*
X14840000Y-12441000D01*
X15334000Y-12445000D02*
X14844000Y-12445000D01*
D30*
X14842500Y-12443500D02*
X14840000Y-12441000D01*
D26*
%TO.N,+12V*%
X14999000Y-9460000D02*
X14591500Y-9460000D01*
D32*
%TO.N,Net-(J4-Pin_3)*%
X15969000Y-11132000D02*
X16141000Y-11132000D01*
X16534000Y-10739000D02*
X16681000Y-10739000D01*
X16141000Y-11132000D02*
X16534000Y-10739000D01*
D31*
X16681000Y-10739000D02*
X16686000Y-10744000D01*
D32*
X16680000Y-10750000D02*
X16686000Y-10744000D01*
D30*
X16684000Y-10746000D02*
X16686000Y-10744000D01*
%TD*%
%TA.AperFunction,Conductor*%
%TO.N,GND*%
G36*
X14275386Y-8789966D02*
G01*
X14281983Y-8791867D01*
X14286557Y-8796986D01*
X14287707Y-8803754D01*
X14285080Y-8810097D01*
X14281151Y-8812886D01*
X14281161Y-8812899D01*
X14269215Y-8821715D01*
X14267224Y-8824413D01*
X14262835Y-8828119D01*
X14257247Y-8829450D01*
X14213299Y-8829450D01*
X14211359Y-8829297D01*
X14209897Y-8829066D01*
X14202888Y-8829433D01*
X14202239Y-8829450D01*
X14200124Y-8829450D01*
X14198021Y-8829671D01*
X14197374Y-8829722D01*
X14190363Y-8830089D01*
X14188931Y-8830473D01*
X14187019Y-8830827D01*
X14185547Y-8830982D01*
X14178872Y-8833151D01*
X14178250Y-8833335D01*
X14171470Y-8835152D01*
X14170150Y-8835825D01*
X14168354Y-8836568D01*
X14166945Y-8837026D01*
X14160865Y-8840536D01*
X14160295Y-8840846D01*
X14154042Y-8844032D01*
X14152891Y-8844964D01*
X14151288Y-8846065D01*
X14150005Y-8846806D01*
X14144789Y-8851503D01*
X14144296Y-8851924D01*
X14142652Y-8853256D01*
X14141154Y-8854753D01*
X14140684Y-8855199D01*
X14135469Y-8859895D01*
X14134599Y-8861092D01*
X14133336Y-8862572D01*
X14024540Y-8971367D01*
X14023061Y-8972630D01*
X14021863Y-8973501D01*
X14017166Y-8978717D01*
X14016720Y-8979187D01*
X14015224Y-8980683D01*
X14013894Y-8982325D01*
X14013473Y-8982818D01*
X14008774Y-8988037D01*
X14008034Y-8989320D01*
X14006932Y-8990923D01*
X14006000Y-8992074D01*
X14002814Y-8998327D01*
X14002504Y-8998897D01*
X13998995Y-9004976D01*
X13998537Y-9006386D01*
X13997793Y-9008181D01*
X13997120Y-9009502D01*
X13995303Y-9016282D01*
X13995119Y-9016904D01*
X13992950Y-9023579D01*
X13992796Y-9025051D01*
X13992441Y-9026963D01*
X13992058Y-9028395D01*
X13991690Y-9035406D01*
X13991639Y-9036052D01*
X13991418Y-9038156D01*
X13991418Y-9040270D01*
X13991401Y-9040919D01*
X13991034Y-9047928D01*
X13991266Y-9049391D01*
X13991418Y-9051331D01*
X13991418Y-9270109D01*
X13989752Y-9276318D01*
X13985200Y-9280858D01*
X13978987Y-9282509D01*
X13625887Y-9281632D01*
X13619700Y-9279961D01*
X13615174Y-9275423D01*
X13613518Y-9269232D01*
X13613518Y-9228762D01*
X13614176Y-9224776D01*
X13616081Y-9221214D01*
X13623707Y-9211276D01*
X13626036Y-9205651D01*
X13629556Y-9197154D01*
X13631551Y-9182000D01*
X13629556Y-9166846D01*
X13623707Y-9152725D01*
X13614402Y-9140598D01*
X13614401Y-9140598D01*
X13614401Y-9140598D01*
X13602275Y-9131293D01*
X13588154Y-9125444D01*
X13573000Y-9123449D01*
X13557846Y-9125444D01*
X13543725Y-9131293D01*
X13531598Y-9140598D01*
X13522293Y-9152725D01*
X13516444Y-9166846D01*
X13514449Y-9182000D01*
X13516444Y-9197154D01*
X13522293Y-9211276D01*
X13531598Y-9223402D01*
X13532567Y-9224145D01*
X13536139Y-9228498D01*
X13537418Y-9233983D01*
X13537418Y-9268982D01*
X13535752Y-9275191D01*
X13531200Y-9279731D01*
X13524987Y-9281382D01*
X13379762Y-9281021D01*
X13373225Y-9279139D01*
X13368665Y-9274092D01*
X13367454Y-9267398D01*
X13369955Y-9261073D01*
X13373675Y-9256226D01*
X13379524Y-9242104D01*
X13381519Y-9226950D01*
X13379524Y-9211796D01*
X13375000Y-9200874D01*
X13373675Y-9197675D01*
X13373675Y-9197675D01*
X13373675Y-9197675D01*
X13364370Y-9185548D01*
X13364370Y-9185548D01*
X13364370Y-9185548D01*
X13352244Y-9176243D01*
X13338122Y-9170394D01*
X13322968Y-9168399D01*
X13307814Y-9170394D01*
X13293693Y-9176243D01*
X13281567Y-9185548D01*
X13272261Y-9197675D01*
X13266412Y-9211796D01*
X13264417Y-9226950D01*
X13266412Y-9242104D01*
X13272261Y-9256225D01*
X13272262Y-9256225D01*
X13272262Y-9256226D01*
X13273879Y-9258334D01*
X13275764Y-9260790D01*
X13278267Y-9267131D01*
X13277041Y-9273837D01*
X13272455Y-9278881D01*
X13265896Y-9280738D01*
X13118887Y-9280374D01*
X13112700Y-9278702D01*
X13108174Y-9274165D01*
X13106518Y-9267974D01*
X13106518Y-9089472D01*
X13107797Y-9083989D01*
X13109561Y-9081838D01*
X13109376Y-9081697D01*
X13112713Y-9077348D01*
X13119675Y-9068276D01*
X13125524Y-9054154D01*
X13127519Y-9039000D01*
X13125524Y-9023846D01*
X13119675Y-9009725D01*
X13110370Y-8997598D01*
X13110370Y-8997598D01*
X13110370Y-8997598D01*
X13098244Y-8988293D01*
X13084122Y-8982444D01*
X13068968Y-8980449D01*
X13053814Y-8982444D01*
X13039693Y-8988293D01*
X13027567Y-8997598D01*
X13018261Y-9009725D01*
X13012412Y-9023846D01*
X13010417Y-9039000D01*
X13012412Y-9054154D01*
X13018262Y-9068276D01*
X13027856Y-9080779D01*
X13029760Y-9084342D01*
X13030418Y-9088327D01*
X13030418Y-9267723D01*
X13028752Y-9273932D01*
X13024200Y-9278472D01*
X13017987Y-9280123D01*
X12991419Y-9280057D01*
X12985232Y-9278386D01*
X12980706Y-9273848D01*
X12979050Y-9267657D01*
X12979050Y-9001979D01*
X12979708Y-8997993D01*
X12981612Y-8994430D01*
X12991707Y-8981276D01*
X12993723Y-8976408D01*
X12997556Y-8967154D01*
X12999551Y-8952000D01*
X12997556Y-8936846D01*
X12992544Y-8924746D01*
X12991707Y-8922725D01*
X12991707Y-8922725D01*
X12991707Y-8922725D01*
X12982402Y-8910598D01*
X12982401Y-8910598D01*
X12982401Y-8910598D01*
X12970275Y-8901293D01*
X12956154Y-8895444D01*
X12941000Y-8893449D01*
X12925846Y-8895444D01*
X12911725Y-8901293D01*
X12899598Y-8910598D01*
X12890293Y-8922725D01*
X12889456Y-8924746D01*
X12886053Y-8929430D01*
X12880895Y-8932058D01*
X12875105Y-8932058D01*
X12869947Y-8929430D01*
X12866544Y-8924746D01*
X12865918Y-8923235D01*
X12865707Y-8922725D01*
X12856402Y-8910598D01*
X12856401Y-8910598D01*
X12856401Y-8910598D01*
X12844275Y-8901293D01*
X12830154Y-8895444D01*
X12815000Y-8893449D01*
X12799846Y-8895444D01*
X12785725Y-8901293D01*
X12773598Y-8910598D01*
X12764293Y-8922725D01*
X12758444Y-8936846D01*
X12756449Y-8952000D01*
X12758444Y-8967154D01*
X12764293Y-8981276D01*
X12774387Y-8994430D01*
X12776292Y-8997993D01*
X12776950Y-9001979D01*
X12776950Y-9267094D01*
X12775284Y-9273303D01*
X12770732Y-9277843D01*
X12764519Y-9279494D01*
X11640094Y-9276702D01*
X11640968Y-9631500D01*
X11642000Y-9631503D01*
X11711902Y-9631676D01*
X11716365Y-9632519D01*
X11720224Y-9634912D01*
X11720695Y-9635342D01*
X11727023Y-9641110D01*
X11745623Y-9652627D01*
X11745623Y-9652627D01*
X11752498Y-9655290D01*
X11756650Y-9657950D01*
X11759437Y-9662019D01*
X11760418Y-9666852D01*
X11760418Y-9835552D01*
X11759139Y-9841037D01*
X11757400Y-9843156D01*
X11757592Y-9843303D01*
X11747293Y-9856725D01*
X11741444Y-9870846D01*
X11739449Y-9886000D01*
X11741444Y-9901154D01*
X11747293Y-9915276D01*
X11756598Y-9927402D01*
X11768724Y-9936707D01*
X11774573Y-9939129D01*
X11782846Y-9942556D01*
X11798000Y-9944551D01*
X11813154Y-9942556D01*
X11827275Y-9936707D01*
X11839402Y-9927402D01*
X11848707Y-9915276D01*
X11854556Y-9901154D01*
X11856551Y-9886000D01*
X11854556Y-9870846D01*
X11848707Y-9856725D01*
X11839402Y-9844598D01*
X11839402Y-9844598D01*
X11839081Y-9844180D01*
X11837176Y-9840617D01*
X11836518Y-9836631D01*
X11836518Y-9666852D01*
X11837499Y-9662019D01*
X11840286Y-9657950D01*
X11844439Y-9655290D01*
X11851313Y-9652627D01*
X11869914Y-9641110D01*
X11876241Y-9635342D01*
X11880130Y-9632937D01*
X11884625Y-9632105D01*
X11970445Y-9632318D01*
X11974908Y-9633161D01*
X11978768Y-9635555D01*
X11981022Y-9637610D01*
X11987293Y-9641492D01*
X11997200Y-9647626D01*
X11999623Y-9649127D01*
X12006498Y-9651790D01*
X12010650Y-9654450D01*
X12013437Y-9658519D01*
X12014418Y-9663352D01*
X12014418Y-9905837D01*
X12013760Y-9909822D01*
X12011856Y-9913385D01*
X12009293Y-9916725D01*
X12003444Y-9930846D01*
X12001449Y-9946000D01*
X12003444Y-9961154D01*
X12009293Y-9975276D01*
X12018598Y-9987402D01*
X12030724Y-9996707D01*
X12036202Y-9998975D01*
X12044846Y-10002556D01*
X12060000Y-10004551D01*
X12075154Y-10002556D01*
X12089275Y-9996707D01*
X12101402Y-9987402D01*
X12110707Y-9975276D01*
X12116556Y-9961154D01*
X12118551Y-9946000D01*
X12116556Y-9930846D01*
X12110707Y-9916725D01*
X12101402Y-9904598D01*
X12095369Y-9899969D01*
X12091797Y-9895616D01*
X12090518Y-9890132D01*
X12090518Y-9663352D01*
X12091499Y-9658519D01*
X12094286Y-9654450D01*
X12098439Y-9651790D01*
X12105313Y-9649127D01*
X12123914Y-9637610D01*
X12125722Y-9635961D01*
X12129610Y-9633557D01*
X12134106Y-9632725D01*
X12243456Y-9632997D01*
X12249953Y-9634854D01*
X12253623Y-9637127D01*
X12253624Y-9637127D01*
X12254297Y-9637388D01*
X12258997Y-9640614D01*
X12261757Y-9645603D01*
X12261993Y-9651299D01*
X12259655Y-9656499D01*
X12255262Y-9662225D01*
X12249412Y-9676346D01*
X12247417Y-9691500D01*
X12249412Y-9706654D01*
X12255262Y-9720776D01*
X12264566Y-9732902D01*
X12276693Y-9742207D01*
X12279950Y-9743556D01*
X12290814Y-9748056D01*
X12305968Y-9750051D01*
X12321122Y-9748056D01*
X12335244Y-9742207D01*
X12347370Y-9732902D01*
X12356675Y-9720776D01*
X12362524Y-9706654D01*
X12364519Y-9691500D01*
X12362524Y-9676346D01*
X12356675Y-9662225D01*
X12352511Y-9656798D01*
X12350173Y-9651598D01*
X12350408Y-9645901D01*
X12353168Y-9640913D01*
X12357869Y-9637686D01*
X12359313Y-9637127D01*
X12362480Y-9635166D01*
X12369038Y-9633309D01*
X12507555Y-9633653D01*
X12511923Y-9634793D01*
X12511992Y-9634589D01*
X12514459Y-9635416D01*
X12518872Y-9638009D01*
X12521862Y-9642165D01*
X12522918Y-9647173D01*
X12522918Y-9654021D01*
X12522260Y-9658007D01*
X12520356Y-9661570D01*
X12510262Y-9674725D01*
X12504412Y-9688846D01*
X12502417Y-9704000D01*
X12504412Y-9719154D01*
X12510262Y-9733276D01*
X12519566Y-9745402D01*
X12531693Y-9754707D01*
X12537542Y-9757129D01*
X12545814Y-9760556D01*
X12560968Y-9762551D01*
X12576122Y-9760556D01*
X12590244Y-9754707D01*
X12602370Y-9745402D01*
X12611675Y-9733276D01*
X12617524Y-9719154D01*
X12619519Y-9704000D01*
X12619475Y-9703666D01*
X12619256Y-9702005D01*
X12617524Y-9688846D01*
X12611675Y-9674725D01*
X12602370Y-9662598D01*
X12601581Y-9661570D01*
X12599676Y-9658007D01*
X12599018Y-9654021D01*
X12599018Y-9646824D01*
X12599926Y-9642168D01*
X12602516Y-9638193D01*
X12606409Y-9635481D01*
X12607566Y-9634970D01*
X12612606Y-9633914D01*
X12880939Y-9634580D01*
X12887475Y-9636462D01*
X12892036Y-9641510D01*
X12893247Y-9648203D01*
X12890745Y-9654529D01*
X12888293Y-9657725D01*
X12882444Y-9671846D01*
X12880449Y-9687000D01*
X12882444Y-9702154D01*
X12888293Y-9716276D01*
X12897598Y-9728402D01*
X12909724Y-9737707D01*
X12915574Y-9740129D01*
X12923846Y-9743556D01*
X12939000Y-9745551D01*
X12954154Y-9743556D01*
X12968275Y-9737707D01*
X12980402Y-9728402D01*
X12989707Y-9716276D01*
X12995556Y-9702154D01*
X12997551Y-9687000D01*
X12995556Y-9671846D01*
X12990660Y-9660026D01*
X12989707Y-9657725D01*
X12989707Y-9657725D01*
X12989707Y-9657725D01*
X12987476Y-9654818D01*
X12984973Y-9648477D01*
X12986199Y-9641771D01*
X12990785Y-9636727D01*
X12997344Y-9634869D01*
X14804646Y-9639359D01*
X14804832Y-9580672D01*
X14804881Y-9565411D01*
X14806555Y-9559227D01*
X14811092Y-9554705D01*
X14817281Y-9553050D01*
X14926317Y-9553050D01*
X14930193Y-9553671D01*
X14933680Y-9555473D01*
X14941157Y-9560991D01*
X14953406Y-9565277D01*
X14956314Y-9565550D01*
X15041686Y-9565550D01*
X15044594Y-9565277D01*
X15056843Y-9560991D01*
X15067285Y-9553285D01*
X15074991Y-9542843D01*
X15079277Y-9530594D01*
X15079550Y-9527686D01*
X15079550Y-9510490D01*
X15080622Y-9505446D01*
X15087101Y-9490894D01*
X15087983Y-9488912D01*
X15088776Y-9485183D01*
X15092050Y-9469780D01*
X15092050Y-9450220D01*
X15087983Y-9431088D01*
X15080622Y-9414554D01*
X15079550Y-9409511D01*
X15079550Y-9392314D01*
X15079550Y-9392314D01*
X15079277Y-9389406D01*
X15074991Y-9377157D01*
X15072809Y-9374201D01*
X15067285Y-9366715D01*
X15056843Y-9359009D01*
X15044594Y-9354723D01*
X15041686Y-9354450D01*
X14956314Y-9354450D01*
X14953406Y-9354723D01*
X14941157Y-9359009D01*
X14933680Y-9364527D01*
X14930193Y-9366329D01*
X14926317Y-9366950D01*
X14817950Y-9366950D01*
X14811738Y-9365282D01*
X14807198Y-9360727D01*
X14805550Y-9354511D01*
X14805626Y-9330549D01*
X14805772Y-9284561D01*
X14803367Y-9284555D01*
X14683036Y-9284257D01*
X14677088Y-9282720D01*
X14672608Y-9278517D01*
X14670695Y-9272679D01*
X14671819Y-9266639D01*
X14675704Y-9261880D01*
X14683285Y-9256285D01*
X14686122Y-9252441D01*
X14687121Y-9251087D01*
X14691510Y-9247381D01*
X14697098Y-9246050D01*
X14891669Y-9246050D01*
X14893609Y-9246203D01*
X14895072Y-9246434D01*
X14902081Y-9246067D01*
X14902730Y-9246050D01*
X14904844Y-9246050D01*
X14905772Y-9245952D01*
X14906947Y-9245829D01*
X14907594Y-9245778D01*
X14914605Y-9245411D01*
X14916036Y-9245027D01*
X14917949Y-9244673D01*
X14918228Y-9244643D01*
X14919421Y-9244518D01*
X14926098Y-9242349D01*
X14926717Y-9242165D01*
X14933498Y-9240348D01*
X14934818Y-9239676D01*
X14936615Y-9238931D01*
X14938024Y-9238474D01*
X14944104Y-9234963D01*
X14944670Y-9234656D01*
X14950926Y-9231468D01*
X14952076Y-9230537D01*
X14953680Y-9229434D01*
X14954963Y-9228694D01*
X14960182Y-9223994D01*
X14960673Y-9223575D01*
X14960887Y-9223402D01*
X14962317Y-9222244D01*
X14963814Y-9220747D01*
X14964281Y-9220304D01*
X14969499Y-9215606D01*
X14970369Y-9214407D01*
X14971632Y-9212929D01*
X15045397Y-9139164D01*
X15046876Y-9137901D01*
X15048074Y-9137031D01*
X15052771Y-9131814D01*
X15053214Y-9131347D01*
X15054712Y-9129848D01*
X15056046Y-9128202D01*
X15056463Y-9127713D01*
X15061162Y-9122495D01*
X15061902Y-9121212D01*
X15063004Y-9119609D01*
X15063936Y-9118458D01*
X15067124Y-9112202D01*
X15067432Y-9111635D01*
X15070942Y-9105555D01*
X15071399Y-9104147D01*
X15072144Y-9102350D01*
X15072816Y-9101030D01*
X15074634Y-9094246D01*
X15074818Y-9093626D01*
X15075214Y-9092406D01*
X15076986Y-9086953D01*
X15077141Y-9085480D01*
X15077495Y-9083568D01*
X15077879Y-9082136D01*
X15078246Y-9075126D01*
X15078297Y-9074478D01*
X15078518Y-9072376D01*
X15078518Y-9070261D01*
X15078535Y-9069612D01*
X15078585Y-9068666D01*
X15078903Y-9062603D01*
X15078671Y-9061141D01*
X15078518Y-9059201D01*
X15078518Y-8802386D01*
X15080180Y-8796186D01*
X15084718Y-8791647D01*
X15090919Y-8789986D01*
X15246385Y-8789990D01*
X15413550Y-8789994D01*
X15419750Y-8791655D01*
X15424289Y-8796194D01*
X15425950Y-8802394D01*
X15425950Y-8975677D01*
X15425006Y-8980422D01*
X15422318Y-8984445D01*
X15232599Y-9174163D01*
X15232054Y-9174676D01*
X15227690Y-9178543D01*
X15224377Y-9183342D01*
X15223934Y-9183944D01*
X15220336Y-9188537D01*
X15219945Y-9189405D01*
X15218843Y-9191360D01*
X15218302Y-9192144D01*
X15216234Y-9197596D01*
X15215948Y-9198287D01*
X15213554Y-9203606D01*
X15213382Y-9204543D01*
X15212780Y-9206704D01*
X15212442Y-9207595D01*
X15211739Y-9213385D01*
X15211626Y-9214126D01*
X15210575Y-9219861D01*
X15210927Y-9225682D01*
X15210950Y-9226431D01*
X15210950Y-9362317D01*
X15210329Y-9366193D01*
X15208527Y-9369680D01*
X15203009Y-9377157D01*
X15198723Y-9389406D01*
X15198450Y-9392314D01*
X15198450Y-9527686D01*
X15198723Y-9530594D01*
X15203009Y-9542843D01*
X15207527Y-9548965D01*
X15209329Y-9552452D01*
X15209950Y-9556328D01*
X15209950Y-11532587D01*
X15208286Y-11538791D01*
X15203741Y-11543331D01*
X15197534Y-11544987D01*
X15077110Y-11544834D01*
X14882464Y-11544588D01*
X14875970Y-11542742D01*
X14870412Y-11539314D01*
X14853770Y-11533799D01*
X14843498Y-11532750D01*
X14801000Y-11532750D01*
X14800751Y-11532999D01*
X14799336Y-11538274D01*
X14794791Y-11542814D01*
X14788584Y-11544470D01*
X14763384Y-11544438D01*
X14757191Y-11542771D01*
X14752659Y-11538233D01*
X14751260Y-11533010D01*
X14751000Y-11532750D01*
X14708502Y-11532750D01*
X14698230Y-11533799D01*
X14681588Y-11539314D01*
X14676465Y-11542474D01*
X14669940Y-11544320D01*
X14421257Y-11544005D01*
X14417927Y-11543340D01*
X10835796Y-11543984D01*
X10829597Y-11542325D01*
X10825058Y-11537790D01*
X10823394Y-11531593D01*
X10822931Y-10852000D01*
X12714476Y-10852000D01*
X12716369Y-10871221D01*
X12721975Y-10889704D01*
X12731080Y-10906737D01*
X12743333Y-10921667D01*
X12754766Y-10931050D01*
X12758263Y-10933920D01*
X12775296Y-10943025D01*
X12793779Y-10948631D01*
X12813000Y-10950524D01*
X12832221Y-10948631D01*
X12850704Y-10943025D01*
X12867737Y-10933920D01*
X12882667Y-10921667D01*
X12894920Y-10906737D01*
X12904025Y-10889704D01*
X12909631Y-10871221D01*
X12911524Y-10852000D01*
X12968476Y-10852000D01*
X12970369Y-10871221D01*
X12975975Y-10889704D01*
X12985080Y-10906737D01*
X12997333Y-10921667D01*
X13008766Y-10931050D01*
X13012263Y-10933920D01*
X13029296Y-10943025D01*
X13047779Y-10948631D01*
X13067000Y-10950524D01*
X13086221Y-10948631D01*
X13104704Y-10943025D01*
X13121737Y-10933920D01*
X13136667Y-10921667D01*
X13148920Y-10906737D01*
X13158025Y-10889704D01*
X13163631Y-10871221D01*
X13165524Y-10852000D01*
X13222476Y-10852000D01*
X13224369Y-10871221D01*
X13229975Y-10889704D01*
X13239080Y-10906737D01*
X13251333Y-10921667D01*
X13262766Y-10931050D01*
X13266263Y-10933920D01*
X13283296Y-10943025D01*
X13301779Y-10948631D01*
X13321000Y-10950524D01*
X13340221Y-10948631D01*
X13358704Y-10943025D01*
X13375737Y-10933920D01*
X13390667Y-10921667D01*
X13402920Y-10906737D01*
X13412025Y-10889704D01*
X13417631Y-10871221D01*
X13419524Y-10852000D01*
X13417631Y-10832779D01*
X13412025Y-10814296D01*
X13402920Y-10797263D01*
X13396514Y-10789457D01*
X13390667Y-10782333D01*
X13375737Y-10770080D01*
X13358704Y-10760975D01*
X13340221Y-10755369D01*
X13321000Y-10753476D01*
X13301779Y-10755369D01*
X13283296Y-10760975D01*
X13266263Y-10770080D01*
X13251333Y-10782333D01*
X13239080Y-10797263D01*
X13229975Y-10814296D01*
X13224369Y-10832779D01*
X13222476Y-10852000D01*
X13165524Y-10852000D01*
X13163631Y-10832779D01*
X13158025Y-10814296D01*
X13148920Y-10797263D01*
X13142514Y-10789457D01*
X13136667Y-10782333D01*
X13121737Y-10770080D01*
X13104704Y-10760975D01*
X13086221Y-10755369D01*
X13067000Y-10753476D01*
X13047779Y-10755369D01*
X13029296Y-10760975D01*
X13012263Y-10770080D01*
X12997333Y-10782333D01*
X12985080Y-10797263D01*
X12975975Y-10814296D01*
X12970369Y-10832779D01*
X12968476Y-10852000D01*
X12911524Y-10852000D01*
X12909631Y-10832779D01*
X12904025Y-10814296D01*
X12894920Y-10797263D01*
X12888514Y-10789457D01*
X12882667Y-10782333D01*
X12867737Y-10770080D01*
X12850704Y-10760975D01*
X12832221Y-10755369D01*
X12813000Y-10753476D01*
X12793779Y-10755369D01*
X12775296Y-10760975D01*
X12758263Y-10770080D01*
X12743333Y-10782333D01*
X12731080Y-10797263D01*
X12721975Y-10814296D01*
X12716369Y-10832779D01*
X12714476Y-10852000D01*
X10822931Y-10852000D01*
X10822724Y-10548000D01*
X13090449Y-10548000D01*
X13092444Y-10563154D01*
X13098293Y-10577276D01*
X13107598Y-10589402D01*
X13119724Y-10598707D01*
X13125573Y-10601129D01*
X13133846Y-10604556D01*
X13149000Y-10606551D01*
X13164154Y-10604556D01*
X13178275Y-10598707D01*
X13178275Y-10598707D01*
X13191430Y-10588613D01*
X13194993Y-10586708D01*
X13198979Y-10586050D01*
X13429103Y-10586050D01*
X13433848Y-10586994D01*
X13437871Y-10589682D01*
X13533318Y-10685129D01*
X13536006Y-10689152D01*
X13536950Y-10693897D01*
X13536950Y-10753728D01*
X13535186Y-10760103D01*
X13530395Y-10764664D01*
X13525410Y-10767329D01*
X13520263Y-10770080D01*
X13505333Y-10782333D01*
X13493080Y-10797263D01*
X13483975Y-10814296D01*
X13478369Y-10832779D01*
X13476476Y-10852000D01*
X13478369Y-10871221D01*
X13483975Y-10889704D01*
X13493080Y-10906737D01*
X13505333Y-10921667D01*
X13516766Y-10931050D01*
X13520263Y-10933920D01*
X13537296Y-10943025D01*
X13555779Y-10948631D01*
X13575000Y-10950524D01*
X13594221Y-10948631D01*
X13612704Y-10943025D01*
X13629737Y-10933920D01*
X13644667Y-10921667D01*
X13656920Y-10906737D01*
X13666025Y-10889704D01*
X13671631Y-10871221D01*
X13673524Y-10852000D01*
X13730476Y-10852000D01*
X13732369Y-10871221D01*
X13737975Y-10889704D01*
X13747080Y-10906737D01*
X13759333Y-10921667D01*
X13770766Y-10931050D01*
X13774263Y-10933920D01*
X13791296Y-10943025D01*
X13809779Y-10948631D01*
X13829000Y-10950524D01*
X13848221Y-10948631D01*
X13866704Y-10943025D01*
X13883737Y-10933920D01*
X13898667Y-10921667D01*
X13910920Y-10906737D01*
X13920025Y-10889704D01*
X13925631Y-10871221D01*
X13927524Y-10852000D01*
X13984476Y-10852000D01*
X13986369Y-10871221D01*
X13991975Y-10889704D01*
X14001080Y-10906737D01*
X14013333Y-10921667D01*
X14024766Y-10931050D01*
X14028263Y-10933920D01*
X14045296Y-10943025D01*
X14063779Y-10948631D01*
X14083000Y-10950524D01*
X14102221Y-10948631D01*
X14120704Y-10943025D01*
X14137737Y-10933920D01*
X14152667Y-10921667D01*
X14164920Y-10906737D01*
X14174025Y-10889704D01*
X14179631Y-10871221D01*
X14181524Y-10852000D01*
X14238476Y-10852000D01*
X14240369Y-10871221D01*
X14245975Y-10889704D01*
X14255080Y-10906737D01*
X14267333Y-10921667D01*
X14278766Y-10931050D01*
X14282263Y-10933920D01*
X14299296Y-10943025D01*
X14317779Y-10948631D01*
X14337000Y-10950524D01*
X14356221Y-10948631D01*
X14374704Y-10943025D01*
X14391737Y-10933920D01*
X14406667Y-10921667D01*
X14418920Y-10906737D01*
X14428025Y-10889704D01*
X14433631Y-10871221D01*
X14435524Y-10852000D01*
X14435524Y-10852000D01*
X14492476Y-10852000D01*
X14494369Y-10871221D01*
X14499975Y-10889704D01*
X14509080Y-10906737D01*
X14521333Y-10921667D01*
X14532766Y-10931050D01*
X14536263Y-10933920D01*
X14553296Y-10943025D01*
X14571779Y-10948631D01*
X14591000Y-10950524D01*
X14610221Y-10948631D01*
X14628704Y-10943025D01*
X14645737Y-10933920D01*
X14660667Y-10921667D01*
X14672920Y-10906737D01*
X14682025Y-10889704D01*
X14687631Y-10871221D01*
X14689524Y-10852000D01*
X14687631Y-10832779D01*
X14682025Y-10814296D01*
X14672920Y-10797263D01*
X14666514Y-10789457D01*
X14660667Y-10782333D01*
X14645737Y-10770080D01*
X14628704Y-10760975D01*
X14610221Y-10755369D01*
X14591000Y-10753476D01*
X14571779Y-10755369D01*
X14553296Y-10760975D01*
X14536263Y-10770080D01*
X14521333Y-10782333D01*
X14509080Y-10797263D01*
X14499975Y-10814296D01*
X14494369Y-10832779D01*
X14492476Y-10852000D01*
X14435524Y-10852000D01*
X14433631Y-10832779D01*
X14428025Y-10814296D01*
X14418920Y-10797263D01*
X14412514Y-10789457D01*
X14406667Y-10782333D01*
X14391737Y-10770080D01*
X14374704Y-10760975D01*
X14356221Y-10755369D01*
X14337000Y-10753476D01*
X14317779Y-10755369D01*
X14299296Y-10760975D01*
X14282263Y-10770080D01*
X14267333Y-10782333D01*
X14255080Y-10797263D01*
X14245975Y-10814296D01*
X14240369Y-10832779D01*
X14238476Y-10852000D01*
X14181524Y-10852000D01*
X14179631Y-10832779D01*
X14174025Y-10814296D01*
X14164920Y-10797263D01*
X14158514Y-10789457D01*
X14152667Y-10782333D01*
X14137737Y-10770080D01*
X14120704Y-10760975D01*
X14102221Y-10755369D01*
X14083000Y-10753476D01*
X14063779Y-10755369D01*
X14045296Y-10760975D01*
X14028263Y-10770080D01*
X14013333Y-10782333D01*
X14001080Y-10797263D01*
X13991975Y-10814296D01*
X13986369Y-10832779D01*
X13984476Y-10852000D01*
X13927524Y-10852000D01*
X13925631Y-10832779D01*
X13920025Y-10814296D01*
X13910920Y-10797263D01*
X13904514Y-10789457D01*
X13898667Y-10782333D01*
X13883737Y-10770080D01*
X13866704Y-10760975D01*
X13848221Y-10755369D01*
X13829000Y-10753476D01*
X13809779Y-10755369D01*
X13791296Y-10760975D01*
X13774263Y-10770080D01*
X13759333Y-10782333D01*
X13747080Y-10797263D01*
X13737975Y-10814296D01*
X13732369Y-10832779D01*
X13730476Y-10852000D01*
X13673524Y-10852000D01*
X13671631Y-10832779D01*
X13666025Y-10814296D01*
X13656920Y-10797263D01*
X13650514Y-10789457D01*
X13644667Y-10782333D01*
X13629737Y-10770080D01*
X13619604Y-10764664D01*
X13614814Y-10760103D01*
X13613050Y-10753728D01*
X13613050Y-10678232D01*
X13613314Y-10675688D01*
X13613481Y-10674890D01*
X13613543Y-10674594D01*
X13613145Y-10671401D01*
X13613050Y-10669868D01*
X13613050Y-10669848D01*
X13613050Y-10669847D01*
X13612702Y-10667762D01*
X13612629Y-10667263D01*
X13611972Y-10661993D01*
X13611972Y-10661993D01*
X13611876Y-10661217D01*
X13611858Y-10661162D01*
X13611486Y-10660475D01*
X13611486Y-10660474D01*
X13608961Y-10655808D01*
X13608726Y-10655353D01*
X13606052Y-10649883D01*
X13606016Y-10649835D01*
X13601537Y-10645711D01*
X13601167Y-10645357D01*
X13480605Y-10524795D01*
X13478992Y-10522809D01*
X13478381Y-10521873D01*
X13475842Y-10519897D01*
X13474690Y-10518880D01*
X13474676Y-10518865D01*
X13472959Y-10517639D01*
X13472548Y-10517333D01*
X13467745Y-10513594D01*
X13467690Y-10513566D01*
X13465097Y-10512794D01*
X13461854Y-10511829D01*
X13461370Y-10511673D01*
X13455611Y-10509697D01*
X13455551Y-10509688D01*
X13449808Y-10509925D01*
X13449470Y-10509939D01*
X13448958Y-10509950D01*
X13198979Y-10509950D01*
X13194993Y-10509292D01*
X13191430Y-10507388D01*
X13178275Y-10497293D01*
X13164154Y-10491444D01*
X13149000Y-10489449D01*
X13133846Y-10491444D01*
X13119725Y-10497293D01*
X13107598Y-10506598D01*
X13098293Y-10518725D01*
X13092444Y-10532846D01*
X13090449Y-10548000D01*
X10822724Y-10548000D01*
X10822570Y-10322172D01*
X10823512Y-10317423D01*
X10824099Y-10316544D01*
X10824099Y-10315500D01*
X10823959Y-10115000D01*
X12683000Y-10115000D01*
X12683000Y-10174782D01*
X12683640Y-10180738D01*
X12688665Y-10194209D01*
X12697281Y-10205719D01*
X12708791Y-10214335D01*
X12722262Y-10219360D01*
X12728218Y-10220000D01*
X12788000Y-10220000D01*
X12788000Y-10115000D01*
X12838000Y-10115000D01*
X12838000Y-10220000D01*
X12897782Y-10220000D01*
X12903737Y-10219360D01*
X12917209Y-10214335D01*
X12928719Y-10205719D01*
X12937335Y-10194209D01*
X12942360Y-10180738D01*
X12942750Y-10177103D01*
X12944788Y-10171510D01*
X12949197Y-10167512D01*
X12954961Y-10166028D01*
X12960753Y-10167402D01*
X12965237Y-10171315D01*
X12967034Y-10173882D01*
X12983118Y-10189966D01*
X13001752Y-10203013D01*
X13022367Y-10212627D01*
X13042000Y-10217887D01*
X13042000Y-10217887D01*
X13042000Y-10115000D01*
X13092000Y-10115000D01*
X13092000Y-10217887D01*
X13111633Y-10212627D01*
X13132248Y-10203013D01*
X13150882Y-10189966D01*
X13166966Y-10173882D01*
X13180013Y-10155248D01*
X13182762Y-10149354D01*
X13187337Y-10144137D01*
X13194000Y-10142195D01*
X13200662Y-10144137D01*
X13205238Y-10149354D01*
X13207986Y-10155248D01*
X13221034Y-10173882D01*
X13237118Y-10189966D01*
X13255752Y-10203013D01*
X13276367Y-10212627D01*
X13296000Y-10217887D01*
X13296000Y-10217887D01*
X13296000Y-10115000D01*
X13346000Y-10115000D01*
X13346000Y-10217887D01*
X13365633Y-10212627D01*
X13386248Y-10203013D01*
X13404882Y-10189966D01*
X13420966Y-10173882D01*
X13434013Y-10155248D01*
X13443627Y-10134633D01*
X13448887Y-10115000D01*
X13346000Y-10115000D01*
X13296000Y-10115000D01*
X13092000Y-10115000D01*
X13042000Y-10115000D01*
X12838000Y-10115000D01*
X12788000Y-10115000D01*
X12683000Y-10115000D01*
X10823959Y-10115000D01*
X10823942Y-10090000D01*
X13476476Y-10090000D01*
X13478369Y-10109221D01*
X13483975Y-10127704D01*
X13493080Y-10144737D01*
X13505333Y-10159667D01*
X13508806Y-10162518D01*
X13520263Y-10171920D01*
X13537296Y-10181025D01*
X13555779Y-10186631D01*
X13575000Y-10188524D01*
X13594221Y-10186631D01*
X13612704Y-10181025D01*
X13629737Y-10171920D01*
X13644667Y-10159667D01*
X13656920Y-10144737D01*
X13666025Y-10127704D01*
X13671631Y-10109221D01*
X13673524Y-10090000D01*
X13730476Y-10090000D01*
X13732369Y-10109221D01*
X13737975Y-10127704D01*
X13747080Y-10144737D01*
X13759333Y-10159667D01*
X13762806Y-10162518D01*
X13774263Y-10171920D01*
X13791296Y-10181025D01*
X13809779Y-10186631D01*
X13829000Y-10188524D01*
X13848221Y-10186631D01*
X13866704Y-10181025D01*
X13883737Y-10171920D01*
X13898667Y-10159667D01*
X13910920Y-10144737D01*
X13920025Y-10127704D01*
X13925631Y-10109221D01*
X13927524Y-10090000D01*
X13984476Y-10090000D01*
X13986369Y-10109221D01*
X13991975Y-10127704D01*
X14001080Y-10144737D01*
X14013333Y-10159667D01*
X14016806Y-10162518D01*
X14028263Y-10171920D01*
X14045296Y-10181025D01*
X14063779Y-10186631D01*
X14083000Y-10188524D01*
X14102221Y-10186631D01*
X14120704Y-10181025D01*
X14137737Y-10171920D01*
X14152667Y-10159667D01*
X14164920Y-10144737D01*
X14174025Y-10127704D01*
X14179631Y-10109221D01*
X14181524Y-10090000D01*
X14238476Y-10090000D01*
X14240369Y-10109221D01*
X14245975Y-10127704D01*
X14255080Y-10144737D01*
X14267333Y-10159667D01*
X14270806Y-10162518D01*
X14282263Y-10171920D01*
X14299296Y-10181025D01*
X14317779Y-10186631D01*
X14337000Y-10188524D01*
X14356221Y-10186631D01*
X14374704Y-10181025D01*
X14391737Y-10171920D01*
X14406667Y-10159667D01*
X14418920Y-10144737D01*
X14428025Y-10127704D01*
X14431878Y-10115000D01*
X14463113Y-10115000D01*
X14468373Y-10134633D01*
X14477986Y-10155248D01*
X14491034Y-10173882D01*
X14507118Y-10189966D01*
X14525752Y-10203013D01*
X14546367Y-10212627D01*
X14566000Y-10217887D01*
X14566000Y-10115000D01*
X14616000Y-10115000D01*
X14616000Y-10217887D01*
X14635633Y-10212627D01*
X14656248Y-10203013D01*
X14674882Y-10189966D01*
X14690966Y-10173882D01*
X14704013Y-10155248D01*
X14713627Y-10134633D01*
X14718887Y-10115000D01*
X14616000Y-10115000D01*
X14566000Y-10115000D01*
X14463113Y-10115000D01*
X14431878Y-10115000D01*
X14433631Y-10109221D01*
X14435524Y-10090000D01*
X14433631Y-10070779D01*
X14431878Y-10065000D01*
X14463113Y-10065000D01*
X14566000Y-10065000D01*
X14566000Y-9962113D01*
X14616000Y-9962113D01*
X14616000Y-10065000D01*
X14718887Y-10065000D01*
X14718887Y-10065000D01*
X14713627Y-10045367D01*
X14704013Y-10024752D01*
X14690966Y-10006118D01*
X14674882Y-9990034D01*
X14656248Y-9976987D01*
X14635633Y-9967373D01*
X14616000Y-9962113D01*
X14566000Y-9962113D01*
X14566000Y-9962113D01*
X14546367Y-9967373D01*
X14525752Y-9976987D01*
X14507118Y-9990034D01*
X14491034Y-10006118D01*
X14477986Y-10024752D01*
X14468373Y-10045367D01*
X14463113Y-10065000D01*
X14463113Y-10065000D01*
X14431878Y-10065000D01*
X14428025Y-10052296D01*
X14418920Y-10035263D01*
X14416337Y-10032116D01*
X14406667Y-10020333D01*
X14391737Y-10008080D01*
X14374704Y-9998975D01*
X14356221Y-9993369D01*
X14337000Y-9991476D01*
X14317779Y-9993369D01*
X14299296Y-9998975D01*
X14282263Y-10008080D01*
X14267333Y-10020333D01*
X14255080Y-10035263D01*
X14245975Y-10052296D01*
X14240369Y-10070779D01*
X14238476Y-10090000D01*
X14181524Y-10090000D01*
X14179631Y-10070779D01*
X14174025Y-10052296D01*
X14164920Y-10035263D01*
X14162337Y-10032116D01*
X14152667Y-10020333D01*
X14137737Y-10008080D01*
X14120704Y-9998975D01*
X14102221Y-9993369D01*
X14083000Y-9991476D01*
X14063779Y-9993369D01*
X14045296Y-9998975D01*
X14028263Y-10008080D01*
X14013333Y-10020333D01*
X14001080Y-10035263D01*
X13991975Y-10052296D01*
X13986369Y-10070779D01*
X13984476Y-10090000D01*
X13927524Y-10090000D01*
X13925631Y-10070779D01*
X13920025Y-10052296D01*
X13910920Y-10035263D01*
X13908337Y-10032116D01*
X13898667Y-10020333D01*
X13883737Y-10008080D01*
X13866704Y-9998975D01*
X13848221Y-9993369D01*
X13829000Y-9991476D01*
X13809779Y-9993369D01*
X13791296Y-9998975D01*
X13774263Y-10008080D01*
X13759333Y-10020333D01*
X13747080Y-10035263D01*
X13737975Y-10052296D01*
X13732369Y-10070779D01*
X13730476Y-10090000D01*
X13673524Y-10090000D01*
X13671631Y-10070779D01*
X13666025Y-10052296D01*
X13656920Y-10035263D01*
X13654337Y-10032116D01*
X13644667Y-10020333D01*
X13629737Y-10008080D01*
X13612704Y-9998975D01*
X13594221Y-9993369D01*
X13575000Y-9991476D01*
X13555779Y-9993369D01*
X13537296Y-9998975D01*
X13520263Y-10008080D01*
X13505333Y-10020333D01*
X13493080Y-10035263D01*
X13483975Y-10052296D01*
X13478369Y-10070779D01*
X13476476Y-10090000D01*
X10823942Y-10090000D01*
X10823925Y-10065000D01*
X12683000Y-10065000D01*
X12788000Y-10065000D01*
X12788000Y-9960000D01*
X12838000Y-9960000D01*
X12838000Y-10065000D01*
X13042000Y-10065000D01*
X13092000Y-10065000D01*
X13296000Y-10065000D01*
X13296000Y-9962113D01*
X13346000Y-9962113D01*
X13346000Y-10065000D01*
X13448887Y-10065000D01*
X13448887Y-10065000D01*
X13443627Y-10045367D01*
X13434013Y-10024752D01*
X13420966Y-10006118D01*
X13404882Y-9990034D01*
X13386248Y-9976987D01*
X13365633Y-9967373D01*
X13346000Y-9962113D01*
X13296000Y-9962113D01*
X13276367Y-9967373D01*
X13255752Y-9976987D01*
X13237118Y-9990034D01*
X13221034Y-10006118D01*
X13207986Y-10024752D01*
X13205238Y-10030646D01*
X13200662Y-10035863D01*
X13194000Y-10037805D01*
X13187337Y-10035863D01*
X13182762Y-10030646D01*
X13180013Y-10024752D01*
X13166966Y-10006118D01*
X13150882Y-9990034D01*
X13132248Y-9976987D01*
X13111633Y-9967373D01*
X13092000Y-9962113D01*
X13092000Y-10065000D01*
X13042000Y-10065000D01*
X13042000Y-9962113D01*
X13042000Y-9962113D01*
X13022367Y-9967373D01*
X13001752Y-9976987D01*
X12983118Y-9990034D01*
X12967034Y-10006118D01*
X12965237Y-10008685D01*
X12960753Y-10012598D01*
X12954961Y-10013972D01*
X12949197Y-10012488D01*
X12944788Y-10008490D01*
X12942750Y-10002897D01*
X12942360Y-9999262D01*
X12937335Y-9985791D01*
X12928719Y-9974281D01*
X12917209Y-9965665D01*
X12903737Y-9960640D01*
X12897782Y-9960000D01*
X12838000Y-9960000D01*
X12788000Y-9960000D01*
X12728218Y-9960000D01*
X12722262Y-9960640D01*
X12708791Y-9965665D01*
X12697281Y-9974281D01*
X12688665Y-9985791D01*
X12683640Y-9999262D01*
X12683000Y-10005218D01*
X12683000Y-10065000D01*
X10823925Y-10065000D01*
X10823526Y-9490911D01*
X10823526Y-9490911D01*
X10824000Y-9150000D01*
X10822508Y-9149990D01*
X10716614Y-9149249D01*
X10710856Y-9147785D01*
X10705953Y-9145165D01*
X10692500Y-9141084D01*
X10690990Y-9142204D01*
X10690824Y-9142818D01*
X10686250Y-9147361D01*
X10680013Y-9148993D01*
X10654813Y-9148817D01*
X10648650Y-9147127D01*
X10644147Y-9142592D01*
X10644052Y-9142235D01*
X10642500Y-9141084D01*
X10629047Y-9145165D01*
X10625415Y-9147106D01*
X10619483Y-9148570D01*
X10538000Y-9148000D01*
X10538000Y-9478989D01*
X10536342Y-9485183D01*
X10531812Y-9489721D01*
X10525620Y-9491389D01*
X10488420Y-9491448D01*
X10273439Y-9491793D01*
X10273011Y-10316218D01*
X10274015Y-10317722D01*
X10274958Y-10322465D01*
X10274951Y-10393321D01*
X10274007Y-10398066D01*
X10271319Y-10402088D01*
X10260590Y-10412818D01*
X10256567Y-10415506D01*
X10251821Y-10416450D01*
X10183042Y-10416450D01*
X10176847Y-10414791D01*
X10172309Y-10410259D01*
X10170642Y-10404066D01*
X10170265Y-10109000D01*
X10168968Y-9094000D01*
X10168968Y-9094000D01*
X10094498Y-9094000D01*
X10088186Y-9092273D01*
X10083632Y-9087574D01*
X10082104Y-9081210D01*
X10084029Y-9074956D01*
X10088869Y-9070551D01*
X10089438Y-9070261D01*
X10092958Y-9068468D01*
X10094108Y-9067537D01*
X10095711Y-9066434D01*
X10096995Y-9065694D01*
X10102214Y-9060994D01*
X10102705Y-9060575D01*
X10103477Y-9059950D01*
X10104348Y-9059244D01*
X10105846Y-9057747D01*
X10106313Y-9057304D01*
X10111531Y-9052606D01*
X10112401Y-9051407D01*
X10113664Y-9049928D01*
X10240928Y-8922664D01*
X10242407Y-8921401D01*
X10243606Y-8920531D01*
X10248304Y-8915313D01*
X10248747Y-8914846D01*
X10250244Y-8913348D01*
X10251575Y-8911704D01*
X10251994Y-8911214D01*
X10256694Y-8905995D01*
X10257434Y-8904711D01*
X10258537Y-8903107D01*
X10258906Y-8902652D01*
X10259468Y-8901958D01*
X10262656Y-8895702D01*
X10262963Y-8895136D01*
X10266474Y-8889055D01*
X10266931Y-8887647D01*
X10267676Y-8885849D01*
X10267849Y-8885510D01*
X10268348Y-8884530D01*
X10270165Y-8877749D01*
X10270349Y-8877129D01*
X10272518Y-8870453D01*
X10272673Y-8868981D01*
X10273027Y-8867068D01*
X10273411Y-8865636D01*
X10273778Y-8858626D01*
X10273829Y-8857978D01*
X10274050Y-8855876D01*
X10274050Y-8853761D01*
X10274067Y-8853112D01*
X10274068Y-8853089D01*
X10274434Y-8846103D01*
X10274203Y-8844641D01*
X10274050Y-8842701D01*
X10274050Y-8802269D01*
X10275711Y-8796069D01*
X10280250Y-8791530D01*
X10286450Y-8789869D01*
X14275386Y-8789966D01*
G37*
%TD.AperFunction*%
%TA.AperFunction,Conductor*%
G36*
X17619603Y-7780994D02*
G01*
X17625802Y-7782658D01*
X17630338Y-7787197D01*
X17631997Y-7793397D01*
X17631003Y-12698595D01*
X17629339Y-12704796D01*
X17624798Y-12709334D01*
X17618595Y-12710993D01*
X9078400Y-12706007D01*
X9072201Y-12704342D01*
X9067665Y-12699801D01*
X9066008Y-12693600D01*
X9066074Y-12585000D01*
X9066292Y-12227000D01*
X9255944Y-12227000D01*
X9257803Y-12250630D01*
X9263337Y-12273679D01*
X9266775Y-12281980D01*
X9272408Y-12295578D01*
X9284793Y-12315789D01*
X9300187Y-12333813D01*
X9318211Y-12349207D01*
X9338422Y-12361592D01*
X9354104Y-12368088D01*
X9360321Y-12370663D01*
X9367602Y-12372411D01*
X9383370Y-12376197D01*
X9407000Y-12378056D01*
X9430630Y-12376197D01*
X9453679Y-12370663D01*
X9475578Y-12361592D01*
X9495789Y-12349207D01*
X9513813Y-12333813D01*
X9529207Y-12315789D01*
X9541592Y-12295578D01*
X9550663Y-12273679D01*
X9556197Y-12250630D01*
X9558056Y-12227000D01*
X9556197Y-12203370D01*
X9551692Y-12184606D01*
X9550663Y-12180321D01*
X9548130Y-12174204D01*
X9541592Y-12158422D01*
X9529207Y-12138211D01*
X9513813Y-12120187D01*
X9495789Y-12104793D01*
X9475578Y-12092408D01*
X9466554Y-12088670D01*
X9453679Y-12083337D01*
X9430631Y-12077803D01*
X9407000Y-12075944D01*
X9383369Y-12077803D01*
X9360321Y-12083337D01*
X9338422Y-12092408D01*
X9318211Y-12104793D01*
X9300187Y-12120187D01*
X9284793Y-12138211D01*
X9272408Y-12158422D01*
X9263337Y-12180321D01*
X9257803Y-12203369D01*
X9255944Y-12227000D01*
X9066292Y-12227000D01*
X9066456Y-11957000D01*
X9791401Y-11957000D01*
X9793339Y-11980383D01*
X9793339Y-11980383D01*
X9793339Y-11980383D01*
X9799099Y-12003129D01*
X9803347Y-12012814D01*
X9808524Y-12024616D01*
X9808524Y-12024616D01*
X9821358Y-12044259D01*
X9837249Y-12061522D01*
X9855765Y-12075934D01*
X9876401Y-12087101D01*
X9885825Y-12090337D01*
X9898593Y-12094720D01*
X9898593Y-12094720D01*
X9898593Y-12094720D01*
X9921737Y-12098582D01*
X9945200Y-12098582D01*
X9945200Y-12098582D01*
X9968344Y-12094720D01*
X9990536Y-12087101D01*
X10011172Y-12075934D01*
X10029688Y-12061522D01*
X10045579Y-12044259D01*
X10058413Y-12024616D01*
X10067838Y-12003129D01*
X10073598Y-11980383D01*
X10075535Y-11957000D01*
X10073598Y-11933616D01*
X10067838Y-11910871D01*
X10058413Y-11889384D01*
X10045579Y-11869741D01*
X10029688Y-11852478D01*
X10011172Y-11838066D01*
X9990536Y-11826899D01*
X9990536Y-11826899D01*
X9990536Y-11826899D01*
X9968344Y-11819280D01*
X9948695Y-11816001D01*
X9945200Y-11815418D01*
X9921737Y-11815418D01*
X9918242Y-11816001D01*
X9898593Y-11819280D01*
X9876401Y-11826899D01*
X9876401Y-11826899D01*
X9876401Y-11826899D01*
X9862644Y-11834344D01*
X9855765Y-11838066D01*
X9837249Y-11852478D01*
X9825346Y-11865408D01*
X9821358Y-11869741D01*
X9817080Y-11876288D01*
X9808524Y-11889384D01*
X9803041Y-11901884D01*
X9799099Y-11910871D01*
X9793339Y-11933616D01*
X9793339Y-11933617D01*
X9791401Y-11957000D01*
X9066456Y-11957000D01*
X9067167Y-10788500D01*
X9805405Y-10788500D01*
X9811125Y-10809849D01*
X9821108Y-10831258D01*
X9834658Y-10850608D01*
X9851360Y-10867311D01*
X9870711Y-10880860D01*
X9892119Y-10890843D01*
X9913468Y-10896564D01*
X9913468Y-10896564D01*
X9913468Y-10788500D01*
X9963468Y-10788500D01*
X9963468Y-10896564D01*
X9984818Y-10890843D01*
X10006226Y-10880860D01*
X10025576Y-10867311D01*
X10042279Y-10850608D01*
X10055828Y-10831258D01*
X10065811Y-10809849D01*
X10071532Y-10788500D01*
X9963468Y-10788500D01*
X9913468Y-10788500D01*
X9805405Y-10788500D01*
X9067167Y-10788500D01*
X9067453Y-10319103D01*
X9395566Y-10319103D01*
X9395933Y-10326112D01*
X9395950Y-10326761D01*
X9395950Y-10328876D01*
X9396171Y-10330979D01*
X9396222Y-10331626D01*
X9396589Y-10338636D01*
X9396973Y-10340068D01*
X9397327Y-10341981D01*
X9397482Y-10343453D01*
X9399651Y-10350127D01*
X9399834Y-10350746D01*
X9401521Y-10357043D01*
X9401652Y-10357530D01*
X9402324Y-10358850D01*
X9403068Y-10360646D01*
X9403526Y-10362055D01*
X9407037Y-10368135D01*
X9407345Y-10368704D01*
X9410532Y-10374958D01*
X9411464Y-10376109D01*
X9412565Y-10377711D01*
X9413306Y-10378995D01*
X9413306Y-10378995D01*
X9418004Y-10384212D01*
X9418425Y-10384705D01*
X9419756Y-10386349D01*
X9421250Y-10387842D01*
X9421697Y-10388313D01*
X9426395Y-10393531D01*
X9427592Y-10394401D01*
X9429072Y-10395665D01*
X9602835Y-10569428D01*
X9604099Y-10570908D01*
X9604970Y-10572106D01*
X9610187Y-10576803D01*
X9610658Y-10577250D01*
X9612338Y-10578930D01*
X9615026Y-10582953D01*
X9615970Y-10587699D01*
X9615968Y-10664500D01*
X9615968Y-10664500D01*
X9820342Y-10662659D01*
X9826815Y-10664414D01*
X9831427Y-10669283D01*
X9832829Y-10675841D01*
X9830611Y-10682170D01*
X9821108Y-10695742D01*
X9811125Y-10717151D01*
X9805405Y-10738500D01*
X9805405Y-10738500D01*
X10071532Y-10738500D01*
X10071532Y-10738500D01*
X10065811Y-10717151D01*
X10055828Y-10695742D01*
X10044846Y-10680058D01*
X10042632Y-10673784D01*
X10043979Y-10667269D01*
X10048499Y-10662388D01*
X10054891Y-10660546D01*
X10170968Y-10659500D01*
X10170911Y-10614966D01*
X10172567Y-10608759D01*
X10177107Y-10604214D01*
X10183311Y-10602550D01*
X10262530Y-10602550D01*
X10268731Y-10604212D01*
X10273269Y-10608751D01*
X10274930Y-10614951D01*
X10274843Y-11531689D01*
X10273181Y-11537888D01*
X10268644Y-11542426D01*
X10262445Y-11544088D01*
X10215013Y-11544096D01*
X10215013Y-11544096D01*
X10214032Y-12101054D01*
X10214013Y-12112096D01*
X11418830Y-12112166D01*
X11423575Y-12113110D01*
X11427598Y-12115798D01*
X11453968Y-12142169D01*
X11454915Y-12143485D01*
X11458880Y-12147099D01*
X11459295Y-12147495D01*
X11460561Y-12148761D01*
X11461646Y-12149620D01*
X11463446Y-12151262D01*
X11463923Y-12151447D01*
X11463959Y-12151460D01*
X11466487Y-12152793D01*
X11466942Y-12153104D01*
X11469313Y-12153662D01*
X11470953Y-12154170D01*
X11473225Y-12155050D01*
X11473225Y-12155050D01*
X11473775Y-12155050D01*
X11476614Y-12155379D01*
X11476848Y-12155434D01*
X11477150Y-12155505D01*
X11479563Y-12155169D01*
X11481276Y-12155050D01*
X11534213Y-12155050D01*
X11538959Y-12155994D01*
X11542981Y-12158682D01*
X11645131Y-12260832D01*
X11648156Y-12265768D01*
X11648611Y-12271540D01*
X11646395Y-12276888D01*
X11641993Y-12280648D01*
X11636363Y-12282000D01*
X10074000Y-12282000D01*
X10074000Y-12562000D01*
X13710591Y-12559337D01*
X13715840Y-12560499D01*
X13717651Y-12561343D01*
X13739000Y-12567063D01*
X13740565Y-12565862D01*
X13740660Y-12565510D01*
X13745195Y-12560971D01*
X13751391Y-12559307D01*
X13776591Y-12559289D01*
X13782795Y-12560947D01*
X13787337Y-12565486D01*
X13787439Y-12565866D01*
X13789000Y-12567063D01*
X13810349Y-12561343D01*
X13812327Y-12560421D01*
X13817558Y-12559259D01*
X14171000Y-12559000D01*
X14171000Y-12282000D01*
X13550450Y-12282000D01*
X13544250Y-12280339D01*
X13539711Y-12275800D01*
X13538050Y-12269600D01*
X13538050Y-12242755D01*
X13538994Y-12238010D01*
X13541682Y-12233987D01*
X13560987Y-12214682D01*
X13565010Y-12211994D01*
X13569755Y-12211050D01*
X14020402Y-12211050D01*
X14022001Y-12211311D01*
X14023057Y-12211262D01*
X14023058Y-12211262D01*
X14027362Y-12211063D01*
X14027935Y-12211050D01*
X14029725Y-12211050D01*
X14031100Y-12210890D01*
X14033533Y-12210778D01*
X14034037Y-12210555D01*
X14036767Y-12209710D01*
X14037308Y-12209609D01*
X14039379Y-12208327D01*
X14040898Y-12207526D01*
X14043127Y-12206542D01*
X14043516Y-12206152D01*
X14045756Y-12204378D01*
X14046224Y-12204088D01*
X14047693Y-12202143D01*
X14048819Y-12200849D01*
X14113168Y-12136500D01*
X14114484Y-12135553D01*
X14115196Y-12134772D01*
X14115197Y-12134772D01*
X14118102Y-12131585D01*
X14118491Y-12131178D01*
X14119672Y-12129996D01*
X14119673Y-12129996D01*
X14119762Y-12129906D01*
X14120622Y-12128821D01*
X14121015Y-12128389D01*
X14122262Y-12127022D01*
X14122461Y-12126509D01*
X14123793Y-12123980D01*
X14124104Y-12123526D01*
X14124490Y-12121885D01*
X14126900Y-12116950D01*
X14131206Y-12113540D01*
X14136561Y-12112324D01*
X14415472Y-12112340D01*
X14415472Y-12112340D01*
X14415472Y-12099414D01*
X14417136Y-12093209D01*
X14421681Y-12088670D01*
X14427887Y-12087014D01*
X14577639Y-12087203D01*
X14583264Y-12088560D01*
X14587661Y-12092322D01*
X14589872Y-12097669D01*
X14589416Y-12103438D01*
X14586392Y-12108371D01*
X14539599Y-12155163D01*
X14539054Y-12155676D01*
X14534690Y-12159543D01*
X14531377Y-12164341D01*
X14530934Y-12164944D01*
X14527336Y-12169536D01*
X14526945Y-12170405D01*
X14525843Y-12172359D01*
X14525302Y-12173143D01*
X14523234Y-12178596D01*
X14522948Y-12179287D01*
X14520554Y-12184606D01*
X14520382Y-12185543D01*
X14519780Y-12187704D01*
X14519442Y-12188595D01*
X14518739Y-12194385D01*
X14518626Y-12195125D01*
X14517575Y-12200861D01*
X14517927Y-12206682D01*
X14517950Y-12207431D01*
X14517950Y-12263509D01*
X14516289Y-12269709D01*
X14511750Y-12274248D01*
X14505549Y-12275909D01*
X14447002Y-12275906D01*
X14446995Y-12275906D01*
X14447000Y-12586000D01*
X16526000Y-12585000D01*
X16525000Y-12276000D01*
X16525000Y-12276000D01*
X16452181Y-12275997D01*
X16421949Y-12275995D01*
X16415750Y-12274334D01*
X16411211Y-12269795D01*
X16409550Y-12263595D01*
X16409550Y-12234000D01*
X17143944Y-12234000D01*
X17145803Y-12257630D01*
X17151337Y-12280679D01*
X17157057Y-12294489D01*
X17160408Y-12302578D01*
X17172793Y-12322789D01*
X17188187Y-12340813D01*
X17206211Y-12356207D01*
X17226422Y-12368592D01*
X17242601Y-12375294D01*
X17248321Y-12377663D01*
X17255602Y-12379411D01*
X17271370Y-12383197D01*
X17295000Y-12385056D01*
X17318630Y-12383197D01*
X17341679Y-12377663D01*
X17363578Y-12368592D01*
X17383789Y-12356207D01*
X17401813Y-12340813D01*
X17417207Y-12322789D01*
X17429592Y-12302578D01*
X17438663Y-12280679D01*
X17444197Y-12257630D01*
X17446056Y-12234000D01*
X17444197Y-12210370D01*
X17439428Y-12190506D01*
X17438663Y-12187321D01*
X17434064Y-12176218D01*
X17429592Y-12165422D01*
X17417207Y-12145211D01*
X17401813Y-12127187D01*
X17383789Y-12111793D01*
X17363578Y-12099408D01*
X17355489Y-12096057D01*
X17341679Y-12090337D01*
X17318631Y-12084803D01*
X17295000Y-12082944D01*
X17271369Y-12084803D01*
X17248321Y-12090337D01*
X17226422Y-12099408D01*
X17206211Y-12111793D01*
X17188187Y-12127187D01*
X17172793Y-12145211D01*
X17160408Y-12165422D01*
X17151337Y-12187321D01*
X17145803Y-12210369D01*
X17143944Y-12234000D01*
X16409550Y-12234000D01*
X16409550Y-12193932D01*
X16409573Y-12193183D01*
X16409699Y-12191099D01*
X16409925Y-12187361D01*
X16409925Y-12187361D01*
X16409925Y-12187361D01*
X16408873Y-12181624D01*
X16408761Y-12180885D01*
X16408058Y-12175095D01*
X16407720Y-12174204D01*
X16407117Y-12172043D01*
X16407090Y-12171891D01*
X16406946Y-12171106D01*
X16404551Y-12165784D01*
X16404267Y-12165100D01*
X16402198Y-12159643D01*
X16401657Y-12158859D01*
X16400554Y-12156904D01*
X16400164Y-12156037D01*
X16396567Y-12151446D01*
X16396123Y-12150843D01*
X16392810Y-12146043D01*
X16391871Y-12145211D01*
X16388443Y-12142174D01*
X16387899Y-12141662D01*
X16347837Y-12101600D01*
X16347325Y-12101056D01*
X16343457Y-12096690D01*
X16343457Y-12096690D01*
X16343457Y-12096689D01*
X16338658Y-12093377D01*
X16338055Y-12092933D01*
X16334740Y-12090337D01*
X16333463Y-12089336D01*
X16333463Y-12089336D01*
X16332595Y-12088945D01*
X16330640Y-12087843D01*
X16329857Y-12087302D01*
X16329857Y-12087302D01*
X16324401Y-12085233D01*
X16323712Y-12084948D01*
X16318394Y-12082554D01*
X16317457Y-12082382D01*
X16315295Y-12081780D01*
X16314405Y-12081442D01*
X16308615Y-12080739D01*
X16307874Y-12080626D01*
X16302139Y-12079575D01*
X16296318Y-12079927D01*
X16295569Y-12079950D01*
X15358691Y-12079950D01*
X15352708Y-12078411D01*
X15348210Y-12074177D01*
X15346313Y-12068299D01*
X15346073Y-12064318D01*
X15346050Y-12063569D01*
X15346050Y-11969500D01*
X16549401Y-11969500D01*
X16551339Y-11992883D01*
X16551339Y-11992883D01*
X16551339Y-11992883D01*
X16557099Y-12015629D01*
X16560354Y-12023050D01*
X16566524Y-12037116D01*
X16566524Y-12037116D01*
X16579357Y-12056759D01*
X16595249Y-12074022D01*
X16613765Y-12088434D01*
X16634401Y-12099601D01*
X16639452Y-12101335D01*
X16656592Y-12107220D01*
X16656593Y-12107220D01*
X16656593Y-12107220D01*
X16679736Y-12111082D01*
X16703200Y-12111082D01*
X16703200Y-12111082D01*
X16726344Y-12107220D01*
X16748536Y-12099601D01*
X16769172Y-12088434D01*
X16787688Y-12074022D01*
X16803579Y-12056759D01*
X16816413Y-12037116D01*
X16825838Y-12015629D01*
X16831598Y-11992883D01*
X16833535Y-11969500D01*
X16831598Y-11946116D01*
X16825838Y-11923371D01*
X16816413Y-11901884D01*
X16803579Y-11882241D01*
X16787688Y-11864978D01*
X16769172Y-11850566D01*
X16748536Y-11839399D01*
X16748536Y-11839399D01*
X16748535Y-11839399D01*
X16726344Y-11831780D01*
X16706695Y-11828501D01*
X16703200Y-11827918D01*
X16679736Y-11827918D01*
X16676242Y-11828501D01*
X16656592Y-11831780D01*
X16634401Y-11839399D01*
X16634401Y-11839399D01*
X16634401Y-11839399D01*
X16620643Y-11846844D01*
X16613765Y-11850566D01*
X16595249Y-11864978D01*
X16580527Y-11880970D01*
X16579357Y-11882241D01*
X16575080Y-11888788D01*
X16566524Y-11901884D01*
X16558028Y-11921253D01*
X16557099Y-11923371D01*
X16551339Y-11946116D01*
X16551339Y-11946117D01*
X16549401Y-11969500D01*
X15346050Y-11969500D01*
X15346050Y-11601310D01*
X15346253Y-11599075D01*
X15346425Y-11598139D01*
X15346073Y-11592318D01*
X15346050Y-11591569D01*
X15346050Y-11132000D01*
X15865451Y-11132000D01*
X15867441Y-11152201D01*
X15867441Y-11152201D01*
X15867441Y-11152201D01*
X15873334Y-11171626D01*
X15873334Y-11171627D01*
X15881358Y-11186638D01*
X15882902Y-11189528D01*
X15895780Y-11205220D01*
X15911471Y-11218097D01*
X15929374Y-11227666D01*
X15948799Y-11233559D01*
X15969000Y-11235549D01*
X15989201Y-11233559D01*
X16008626Y-11227666D01*
X16026528Y-11218097D01*
X16042220Y-11205220D01*
X16055052Y-11189583D01*
X16059336Y-11186240D01*
X16064638Y-11185050D01*
X16139879Y-11185050D01*
X16140303Y-11185057D01*
X16146476Y-11185268D01*
X16146476Y-11185268D01*
X16146476Y-11185268D01*
X16150301Y-11184336D01*
X16151548Y-11184099D01*
X16155447Y-11183563D01*
X16156998Y-11182889D01*
X16159002Y-11182216D01*
X16160645Y-11181815D01*
X16164077Y-11179885D01*
X16165211Y-11179322D01*
X16168823Y-11177753D01*
X16169724Y-11177020D01*
X16176071Y-11174327D01*
X16182875Y-11175440D01*
X16188033Y-11180016D01*
X16189950Y-11186638D01*
X16189950Y-11235890D01*
X16189006Y-11240635D01*
X16186318Y-11244658D01*
X16101658Y-11329318D01*
X16097635Y-11332006D01*
X16092890Y-11332950D01*
X16084450Y-11332950D01*
X16078250Y-11331289D01*
X16073711Y-11326750D01*
X16072050Y-11320550D01*
X16072050Y-11299222D01*
X16072050Y-11299222D01*
X16071003Y-11293957D01*
X16067013Y-11287987D01*
X16065065Y-11286685D01*
X16061043Y-11283997D01*
X16055778Y-11282950D01*
X15882222Y-11282950D01*
X15876957Y-11283997D01*
X15870987Y-11287987D01*
X15866997Y-11293957D01*
X15865950Y-11299222D01*
X15865950Y-11472777D01*
X15865950Y-11472778D01*
X15866997Y-11478043D01*
X15870987Y-11484013D01*
X15876957Y-11488003D01*
X15882222Y-11489050D01*
X16055778Y-11489050D01*
X16061043Y-11488003D01*
X16067013Y-11484013D01*
X16071003Y-11478043D01*
X16072050Y-11472778D01*
X16072050Y-11451450D01*
X16073711Y-11445250D01*
X16078250Y-11440711D01*
X16084450Y-11439050D01*
X16118879Y-11439050D01*
X16119303Y-11439057D01*
X16125476Y-11439268D01*
X16125476Y-11439268D01*
X16125476Y-11439268D01*
X16129301Y-11438336D01*
X16130548Y-11438099D01*
X16134447Y-11437563D01*
X16135998Y-11436889D01*
X16138002Y-11436215D01*
X16139645Y-11435815D01*
X16143077Y-11433885D01*
X16144211Y-11433322D01*
X16147823Y-11431753D01*
X16149134Y-11430686D01*
X16150882Y-11429497D01*
X16152356Y-11428668D01*
X16155140Y-11425884D01*
X16156080Y-11425035D01*
X16159135Y-11422550D01*
X16160110Y-11421168D01*
X16161472Y-11419552D01*
X16279721Y-11301302D01*
X16280023Y-11301011D01*
X16284538Y-11296794D01*
X16284538Y-11296794D01*
X16284538Y-11296794D01*
X16286584Y-11293430D01*
X16287297Y-11292382D01*
X16289676Y-11289245D01*
X16290297Y-11287672D01*
X16291237Y-11285778D01*
X16292115Y-11284334D01*
X16292116Y-11284334D01*
X16293178Y-11280542D01*
X16293581Y-11279342D01*
X16295026Y-11275678D01*
X16295199Y-11273996D01*
X16295594Y-11271919D01*
X16296050Y-11270292D01*
X16296050Y-11266356D01*
X16296115Y-11265088D01*
X16296518Y-11261172D01*
X16296230Y-11259505D01*
X16296050Y-11257399D01*
X16296050Y-11207110D01*
X16296994Y-11202365D01*
X16299682Y-11198342D01*
X16350908Y-11147116D01*
X16387024Y-11111000D01*
X17095946Y-11111000D01*
X17095950Y-11111010D01*
X17095962Y-11111038D01*
X17095962Y-11111038D01*
X17095981Y-11111046D01*
X17096000Y-11111054D01*
X17096000Y-11111054D01*
X17098462Y-11111052D01*
X17098462Y-11111053D01*
X17098476Y-11111050D01*
X17311524Y-11111050D01*
X17311538Y-11111053D01*
X17311538Y-11111052D01*
X17314000Y-11111054D01*
X17314000Y-11111054D01*
X17314038Y-11111038D01*
X17314050Y-11111010D01*
X17314054Y-11111000D01*
X17314054Y-11108545D01*
X17314050Y-11108524D01*
X17314050Y-9751476D01*
X17314053Y-9751462D01*
X17314052Y-9751462D01*
X17314054Y-9749000D01*
X17314054Y-9749000D01*
X17314046Y-9748981D01*
X17314038Y-9748962D01*
X17314038Y-9748961D01*
X17314019Y-9748954D01*
X17314000Y-9748946D01*
X17311545Y-9748946D01*
X17311524Y-9748950D01*
X17098476Y-9748950D01*
X17098455Y-9748946D01*
X17096000Y-9748946D01*
X17095981Y-9748954D01*
X17095962Y-9748962D01*
X17095962Y-9748962D01*
X17095946Y-9749000D01*
X17095948Y-9751462D01*
X17095947Y-9751462D01*
X17095950Y-9751476D01*
X17095950Y-11108524D01*
X17095946Y-11108545D01*
X17095946Y-11111000D01*
X16387024Y-11111000D01*
X16475024Y-11023000D01*
X16586000Y-11023000D01*
X16586000Y-11052782D01*
X16586640Y-11058738D01*
X16591665Y-11072209D01*
X16600281Y-11083719D01*
X16611791Y-11092335D01*
X16625262Y-11097360D01*
X16631218Y-11098000D01*
X16661000Y-11098000D01*
X16661000Y-11023000D01*
X16711000Y-11023000D01*
X16711000Y-11098000D01*
X16740782Y-11098000D01*
X16746737Y-11097360D01*
X16760209Y-11092335D01*
X16771719Y-11083719D01*
X16780335Y-11072209D01*
X16785360Y-11058738D01*
X16786000Y-11052782D01*
X16786000Y-11023000D01*
X16711000Y-11023000D01*
X16661000Y-11023000D01*
X16586000Y-11023000D01*
X16475024Y-11023000D01*
X16564903Y-10933121D01*
X16570093Y-10930016D01*
X16576133Y-10929736D01*
X16581588Y-10932345D01*
X16585161Y-10937225D01*
X16585908Y-10942553D01*
X16586000Y-10942553D01*
X16586000Y-10943210D01*
X16586000Y-10943213D01*
X16586000Y-10943217D01*
X16586000Y-10973000D01*
X16786000Y-10973000D01*
X16786000Y-10943218D01*
X16785360Y-10937262D01*
X16780335Y-10923791D01*
X16771719Y-10912281D01*
X16760209Y-10903665D01*
X16759785Y-10903507D01*
X16754543Y-10899766D01*
X16751883Y-10893900D01*
X16752384Y-10888901D01*
X16752376Y-10888900D01*
X16752420Y-10888537D01*
X16752525Y-10887491D01*
X16752558Y-10887405D01*
X16754550Y-10871000D01*
X16752558Y-10854595D01*
X16746698Y-10839143D01*
X16746698Y-10839143D01*
X16737310Y-10825543D01*
X16727420Y-10816782D01*
X16723733Y-10810950D01*
X16723733Y-10804050D01*
X16727420Y-10798219D01*
X16737310Y-10789457D01*
X16742228Y-10782333D01*
X16746698Y-10775857D01*
X16752558Y-10760405D01*
X16754550Y-10744000D01*
X16752558Y-10727595D01*
X16746698Y-10712143D01*
X16746698Y-10712143D01*
X16737310Y-10698543D01*
X16727420Y-10689782D01*
X16723733Y-10683950D01*
X16723733Y-10677050D01*
X16727420Y-10671219D01*
X16737310Y-10662457D01*
X16737358Y-10662388D01*
X16746698Y-10648857D01*
X16752558Y-10633405D01*
X16754550Y-10617000D01*
X16752558Y-10600595D01*
X16747667Y-10587699D01*
X16746698Y-10585143D01*
X16737310Y-10571543D01*
X16727420Y-10562782D01*
X16723733Y-10556950D01*
X16723733Y-10550050D01*
X16727420Y-10544219D01*
X16737310Y-10535457D01*
X16746698Y-10521857D01*
X16747231Y-10520451D01*
X16752558Y-10506405D01*
X16754550Y-10490000D01*
X16752558Y-10473595D01*
X16746698Y-10458143D01*
X16746698Y-10458143D01*
X16737310Y-10444543D01*
X16727420Y-10435782D01*
X16723733Y-10429950D01*
X16723733Y-10423050D01*
X16727420Y-10417219D01*
X16737310Y-10408457D01*
X16746698Y-10394857D01*
X16747280Y-10393321D01*
X16752558Y-10379405D01*
X16754550Y-10363000D01*
X16752558Y-10346595D01*
X16746881Y-10331626D01*
X16746698Y-10331143D01*
X16737310Y-10317543D01*
X16727420Y-10308782D01*
X16723733Y-10302950D01*
X16723733Y-10296050D01*
X16727420Y-10290219D01*
X16737310Y-10281457D01*
X16746698Y-10267857D01*
X16747231Y-10266451D01*
X16752558Y-10252405D01*
X16754550Y-10236000D01*
X16752558Y-10219595D01*
X16746698Y-10204143D01*
X16746698Y-10204143D01*
X16737310Y-10190543D01*
X16727420Y-10181781D01*
X16723733Y-10175950D01*
X16723733Y-10169050D01*
X16727420Y-10163219D01*
X16737310Y-10154457D01*
X16746698Y-10140857D01*
X16752558Y-10125405D01*
X16754550Y-10109000D01*
X16752558Y-10092595D01*
X16748588Y-10082128D01*
X16746698Y-10077143D01*
X16737310Y-10063543D01*
X16727420Y-10054782D01*
X16723733Y-10048950D01*
X16723733Y-10042050D01*
X16727420Y-10036219D01*
X16737310Y-10027457D01*
X16737685Y-10026914D01*
X16746698Y-10013857D01*
X16752558Y-9998405D01*
X16754550Y-9982000D01*
X16752558Y-9965595D01*
X16746698Y-9950143D01*
X16746698Y-9950143D01*
X16737310Y-9936543D01*
X16727420Y-9927782D01*
X16723733Y-9921950D01*
X16723733Y-9915050D01*
X16727420Y-9909219D01*
X16737310Y-9900457D01*
X16737647Y-9899970D01*
X16746698Y-9886857D01*
X16752558Y-9871405D01*
X16754550Y-9855000D01*
X16752558Y-9838595D01*
X16748920Y-9829003D01*
X16746698Y-9823143D01*
X16740872Y-9814703D01*
X16737310Y-9809543D01*
X16724941Y-9798585D01*
X16724940Y-9798585D01*
X16724940Y-9798584D01*
X16710308Y-9790905D01*
X16701688Y-9788780D01*
X16694263Y-9786950D01*
X16677737Y-9786950D01*
X16672389Y-9788268D01*
X16661692Y-9790905D01*
X16647059Y-9798584D01*
X16647059Y-9798585D01*
X16647059Y-9798585D01*
X16634844Y-9809406D01*
X16634690Y-9809543D01*
X16625302Y-9823143D01*
X16619442Y-9838595D01*
X16617450Y-9855000D01*
X16619442Y-9871405D01*
X16625302Y-9886857D01*
X16631784Y-9896247D01*
X16634690Y-9900457D01*
X16643507Y-9908269D01*
X16646879Y-9913153D01*
X16647594Y-9919045D01*
X16645489Y-9924594D01*
X16641047Y-9928530D01*
X16635284Y-9929950D01*
X16567110Y-9929950D01*
X16562365Y-9929006D01*
X16558342Y-9926318D01*
X16203304Y-9571280D01*
X16203010Y-9570975D01*
X16198794Y-9566462D01*
X16198129Y-9566057D01*
X16195430Y-9564416D01*
X16194382Y-9563703D01*
X16191245Y-9561324D01*
X16189672Y-9560703D01*
X16187778Y-9559763D01*
X16186334Y-9558884D01*
X16182543Y-9557822D01*
X16181340Y-9557418D01*
X16177678Y-9555974D01*
X16175997Y-9555801D01*
X16173920Y-9555406D01*
X16172292Y-9554950D01*
X16172291Y-9554950D01*
X16168356Y-9554950D01*
X16167088Y-9554885D01*
X16163172Y-9554482D01*
X16161505Y-9554770D01*
X16159399Y-9554950D01*
X16064638Y-9554950D01*
X16059336Y-9553760D01*
X16055052Y-9550417D01*
X16048837Y-9542843D01*
X16042220Y-9534780D01*
X16026528Y-9521903D01*
X16026528Y-9521902D01*
X16016861Y-9516735D01*
X16008626Y-9512334D01*
X15989201Y-9506441D01*
X15989201Y-9506441D01*
X15989201Y-9506441D01*
X15984723Y-9506000D01*
X16546936Y-9506000D01*
X16552657Y-9527349D01*
X16562640Y-9548758D01*
X16576189Y-9568108D01*
X16592892Y-9584811D01*
X16612242Y-9598360D01*
X16633651Y-9608343D01*
X16655000Y-9614064D01*
X16655000Y-9614064D01*
X16655000Y-9506000D01*
X16705000Y-9506000D01*
X16705000Y-9614064D01*
X16726349Y-9608343D01*
X16747758Y-9598360D01*
X16763981Y-9587000D01*
X17098946Y-9587000D01*
X17098950Y-9587010D01*
X17098962Y-9587038D01*
X17098962Y-9587038D01*
X17098981Y-9587046D01*
X17099000Y-9587054D01*
X17099000Y-9587054D01*
X17101462Y-9587052D01*
X17101462Y-9587053D01*
X17101476Y-9587050D01*
X17314524Y-9587050D01*
X17314538Y-9587053D01*
X17314538Y-9587052D01*
X17317000Y-9587054D01*
X17317000Y-9587054D01*
X17317038Y-9587038D01*
X17317050Y-9587010D01*
X17317054Y-9587000D01*
X17317054Y-9584545D01*
X17317050Y-9584524D01*
X17317050Y-8500476D01*
X17317053Y-8500462D01*
X17317052Y-8500462D01*
X17317054Y-8498000D01*
X17317054Y-8498000D01*
X17317046Y-8497981D01*
X17317038Y-8497962D01*
X17317038Y-8497961D01*
X17317019Y-8497954D01*
X17317000Y-8497946D01*
X17314545Y-8497946D01*
X17314524Y-8497950D01*
X17101476Y-8497950D01*
X17101455Y-8497946D01*
X17099000Y-8497946D01*
X17098981Y-8497954D01*
X17098962Y-8497962D01*
X17098962Y-8497962D01*
X17098946Y-8498000D01*
X17098948Y-8500462D01*
X17098947Y-8500462D01*
X17098950Y-8500476D01*
X17098950Y-9584524D01*
X17098946Y-9584545D01*
X17098946Y-9587000D01*
X16763981Y-9587000D01*
X16767108Y-9584811D01*
X16783811Y-9568108D01*
X16797360Y-9548758D01*
X16807343Y-9527349D01*
X16813064Y-9506000D01*
X16705000Y-9506000D01*
X16655000Y-9506000D01*
X16546936Y-9506000D01*
X15984723Y-9506000D01*
X15971824Y-9504730D01*
X15969000Y-9504451D01*
X15969000Y-9504451D01*
X15948799Y-9506441D01*
X15948799Y-9506441D01*
X15948799Y-9506441D01*
X15929374Y-9512334D01*
X15929373Y-9512334D01*
X15929373Y-9512334D01*
X15911471Y-9521902D01*
X15895780Y-9534780D01*
X15882902Y-9550472D01*
X15874917Y-9565411D01*
X15873334Y-9568374D01*
X15872452Y-9571280D01*
X15867441Y-9587799D01*
X15865451Y-9608000D01*
X15867441Y-9628201D01*
X15867441Y-9628201D01*
X15867441Y-9628201D01*
X15873334Y-9647626D01*
X15875456Y-9651598D01*
X15882450Y-9664682D01*
X15882902Y-9665529D01*
X15895780Y-9681220D01*
X15911471Y-9694098D01*
X15929374Y-9703666D01*
X15948799Y-9709559D01*
X15969000Y-9711549D01*
X15989201Y-9709559D01*
X16008626Y-9703666D01*
X16026528Y-9694098D01*
X16042220Y-9681220D01*
X16055052Y-9665584D01*
X16059336Y-9662241D01*
X16064638Y-9661050D01*
X16137890Y-9661050D01*
X16142635Y-9661994D01*
X16146658Y-9664682D01*
X16501695Y-10019719D01*
X16501989Y-10020023D01*
X16506206Y-10024538D01*
X16509569Y-10026584D01*
X16510619Y-10027298D01*
X16513755Y-10029676D01*
X16515328Y-10030297D01*
X16517221Y-10031237D01*
X16520047Y-10032955D01*
X16524454Y-10037546D01*
X16526003Y-10043719D01*
X16524286Y-10049848D01*
X16519755Y-10054317D01*
X16513604Y-10055950D01*
X16462110Y-10055950D01*
X16457365Y-10055006D01*
X16453342Y-10052318D01*
X16226304Y-9825280D01*
X16226010Y-9824975D01*
X16221794Y-9820462D01*
X16221129Y-9820057D01*
X16218430Y-9818416D01*
X16217382Y-9817703D01*
X16214245Y-9815324D01*
X16212672Y-9814703D01*
X16210778Y-9813763D01*
X16209334Y-9812884D01*
X16205543Y-9811822D01*
X16204340Y-9811418D01*
X16200678Y-9809974D01*
X16198997Y-9809801D01*
X16196920Y-9809406D01*
X16195292Y-9808950D01*
X16195291Y-9808950D01*
X16191356Y-9808950D01*
X16190088Y-9808885D01*
X16186172Y-9808482D01*
X16184505Y-9808770D01*
X16182399Y-9808950D01*
X16064638Y-9808950D01*
X16059336Y-9807760D01*
X16055052Y-9804417D01*
X16050266Y-9798584D01*
X16042220Y-9788780D01*
X16026528Y-9775903D01*
X16026528Y-9775902D01*
X16016861Y-9770735D01*
X16008626Y-9766334D01*
X15989201Y-9760441D01*
X15989201Y-9760441D01*
X15989201Y-9760441D01*
X15969000Y-9758451D01*
X15948799Y-9760441D01*
X15948799Y-9760441D01*
X15948799Y-9760441D01*
X15929374Y-9766334D01*
X15929373Y-9766334D01*
X15929373Y-9766334D01*
X15911471Y-9775902D01*
X15895780Y-9788780D01*
X15882902Y-9804472D01*
X15874356Y-9820462D01*
X15873334Y-9822374D01*
X15872452Y-9825280D01*
X15867441Y-9841799D01*
X15865451Y-9862000D01*
X15867441Y-9882201D01*
X15867441Y-9882201D01*
X15867441Y-9882201D01*
X15873334Y-9901626D01*
X15873334Y-9901627D01*
X15882644Y-9919045D01*
X15882902Y-9919529D01*
X15895780Y-9935220D01*
X15911471Y-9948098D01*
X15929374Y-9957666D01*
X15948799Y-9963559D01*
X15969000Y-9965549D01*
X15989201Y-9963559D01*
X16008626Y-9957666D01*
X16026528Y-9948098D01*
X16042220Y-9935220D01*
X16055052Y-9919584D01*
X16059336Y-9916241D01*
X16064638Y-9915050D01*
X16160890Y-9915050D01*
X16165635Y-9915994D01*
X16169658Y-9918682D01*
X16396695Y-10145719D01*
X16396989Y-10146023D01*
X16400100Y-10149354D01*
X16401206Y-10150538D01*
X16402265Y-10151183D01*
X16404569Y-10152584D01*
X16405619Y-10153298D01*
X16408755Y-10155676D01*
X16410328Y-10156297D01*
X16412221Y-10157237D01*
X16412962Y-10157688D01*
X16413666Y-10158116D01*
X16415430Y-10158610D01*
X16420548Y-10161488D01*
X16423769Y-10166397D01*
X16424369Y-10172238D01*
X16422215Y-10177701D01*
X16417790Y-10181560D01*
X16412085Y-10182950D01*
X16360110Y-10182950D01*
X16355365Y-10182006D01*
X16351342Y-10179318D01*
X16254304Y-10082280D01*
X16254010Y-10081975D01*
X16249794Y-10077462D01*
X16249129Y-10077057D01*
X16246430Y-10075416D01*
X16245382Y-10074703D01*
X16242245Y-10072324D01*
X16240672Y-10071703D01*
X16238778Y-10070763D01*
X16237334Y-10069884D01*
X16233543Y-10068822D01*
X16232340Y-10068418D01*
X16228678Y-10066974D01*
X16226997Y-10066801D01*
X16224920Y-10066406D01*
X16223292Y-10065950D01*
X16223291Y-10065950D01*
X16219356Y-10065950D01*
X16218088Y-10065885D01*
X16214172Y-10065482D01*
X16212505Y-10065770D01*
X16210399Y-10065950D01*
X16066527Y-10065950D01*
X16060152Y-10064186D01*
X16055591Y-10059395D01*
X16055097Y-10058472D01*
X16042220Y-10042780D01*
X16026528Y-10029903D01*
X16026528Y-10029902D01*
X16016493Y-10024538D01*
X16008626Y-10020334D01*
X15989201Y-10014441D01*
X15989201Y-10014441D01*
X15989201Y-10014441D01*
X15971824Y-10012730D01*
X15969000Y-10012451D01*
X15969000Y-10012451D01*
X15948799Y-10014441D01*
X15948799Y-10014441D01*
X15948799Y-10014441D01*
X15929374Y-10020334D01*
X15929373Y-10020334D01*
X15929373Y-10020334D01*
X15911471Y-10029902D01*
X15895780Y-10042780D01*
X15882902Y-10058472D01*
X15875498Y-10072324D01*
X15873334Y-10076374D01*
X15869200Y-10090000D01*
X15867441Y-10095799D01*
X15865451Y-10116000D01*
X15867441Y-10136201D01*
X15867441Y-10136201D01*
X15867441Y-10136201D01*
X15873334Y-10155626D01*
X15874664Y-10158116D01*
X15882748Y-10173241D01*
X15882902Y-10173529D01*
X15895780Y-10189220D01*
X15911471Y-10202098D01*
X15929374Y-10211666D01*
X15948799Y-10217559D01*
X15969000Y-10219549D01*
X15989201Y-10217559D01*
X16008626Y-10211666D01*
X16026528Y-10202098D01*
X16042220Y-10189220D01*
X16051673Y-10177701D01*
X16052590Y-10176584D01*
X16056874Y-10173241D01*
X16062176Y-10172050D01*
X16188890Y-10172050D01*
X16193635Y-10172994D01*
X16197658Y-10175682D01*
X16294695Y-10272719D01*
X16294989Y-10273023D01*
X16299206Y-10277538D01*
X16302569Y-10279584D01*
X16303619Y-10280298D01*
X16306755Y-10282676D01*
X16308328Y-10283297D01*
X16310221Y-10284237D01*
X16311666Y-10285116D01*
X16313430Y-10285610D01*
X16318548Y-10288488D01*
X16321769Y-10293397D01*
X16322369Y-10299238D01*
X16320215Y-10304701D01*
X16315790Y-10308560D01*
X16310085Y-10309950D01*
X16058893Y-10309950D01*
X16053591Y-10308760D01*
X16049308Y-10305417D01*
X16048720Y-10304701D01*
X16042220Y-10296780D01*
X16038098Y-10293397D01*
X16026528Y-10283902D01*
X16014622Y-10277538D01*
X16008626Y-10274334D01*
X15989201Y-10268441D01*
X15989201Y-10268441D01*
X15989201Y-10268441D01*
X15969000Y-10266451D01*
X15948799Y-10268441D01*
X15948799Y-10268441D01*
X15948799Y-10268441D01*
X15929374Y-10274334D01*
X15929373Y-10274334D01*
X15929373Y-10274334D01*
X15911471Y-10283902D01*
X15895780Y-10296780D01*
X15882902Y-10312472D01*
X15874134Y-10328876D01*
X15873334Y-10330374D01*
X15868413Y-10346595D01*
X15867441Y-10349799D01*
X15865451Y-10370000D01*
X15867441Y-10390201D01*
X15867441Y-10390201D01*
X15867441Y-10390201D01*
X15873334Y-10409626D01*
X15875040Y-10412818D01*
X15882902Y-10427528D01*
X15884890Y-10429950D01*
X15895780Y-10443220D01*
X15911471Y-10456098D01*
X15929374Y-10465666D01*
X15948799Y-10471559D01*
X15969000Y-10473549D01*
X15989201Y-10471559D01*
X16008626Y-10465666D01*
X16026528Y-10456098D01*
X16042220Y-10443220D01*
X16055097Y-10427529D01*
X16057729Y-10422604D01*
X16062290Y-10417814D01*
X16068665Y-10416050D01*
X16331136Y-10416050D01*
X16336904Y-10417473D01*
X16341348Y-10421415D01*
X16343448Y-10426972D01*
X16342723Y-10432867D01*
X16339339Y-10437750D01*
X16336712Y-10439120D01*
X16336841Y-10439350D01*
X16331925Y-10442114D01*
X16330788Y-10442678D01*
X16327177Y-10444247D01*
X16325864Y-10445314D01*
X16324118Y-10446503D01*
X16322644Y-10447332D01*
X16319860Y-10450116D01*
X16318918Y-10450966D01*
X16315864Y-10453450D01*
X16314889Y-10454832D01*
X16313527Y-10456449D01*
X16202658Y-10567318D01*
X16198635Y-10570006D01*
X16193890Y-10570950D01*
X16064638Y-10570950D01*
X16059336Y-10569760D01*
X16055052Y-10566417D01*
X16050266Y-10560585D01*
X16042220Y-10550780D01*
X16026528Y-10537903D01*
X16026528Y-10537902D01*
X16016861Y-10532735D01*
X16008626Y-10528334D01*
X15989201Y-10522441D01*
X15989201Y-10522441D01*
X15989201Y-10522441D01*
X15969000Y-10520451D01*
X15948799Y-10522441D01*
X15948799Y-10522441D01*
X15948799Y-10522441D01*
X15929374Y-10528334D01*
X15929373Y-10528334D01*
X15929373Y-10528334D01*
X15911471Y-10537902D01*
X15895780Y-10550780D01*
X15882902Y-10566472D01*
X15874093Y-10582953D01*
X15873334Y-10584374D01*
X15872048Y-10588613D01*
X15867441Y-10603799D01*
X15865451Y-10624000D01*
X15867441Y-10644201D01*
X15867441Y-10644201D01*
X15867441Y-10644201D01*
X15873334Y-10663626D01*
X15875281Y-10667269D01*
X15882353Y-10680500D01*
X15882902Y-10681529D01*
X15895780Y-10697220D01*
X15911471Y-10710098D01*
X15929374Y-10719666D01*
X15948799Y-10725559D01*
X15969000Y-10727549D01*
X15989201Y-10725559D01*
X16008626Y-10719666D01*
X16026528Y-10710098D01*
X16042220Y-10697220D01*
X16053110Y-10683950D01*
X16055052Y-10681584D01*
X16059336Y-10678241D01*
X16064638Y-10677050D01*
X16219879Y-10677050D01*
X16220303Y-10677057D01*
X16226476Y-10677268D01*
X16226476Y-10677268D01*
X16226476Y-10677268D01*
X16230301Y-10676336D01*
X16231548Y-10676099D01*
X16235447Y-10675563D01*
X16236998Y-10674889D01*
X16239002Y-10674216D01*
X16240645Y-10673815D01*
X16244077Y-10671885D01*
X16245211Y-10671322D01*
X16248823Y-10669753D01*
X16250134Y-10668686D01*
X16251882Y-10667497D01*
X16253356Y-10666668D01*
X16256139Y-10663884D01*
X16257081Y-10663035D01*
X16260135Y-10660550D01*
X16261110Y-10659168D01*
X16262472Y-10657552D01*
X16373342Y-10546682D01*
X16377365Y-10543994D01*
X16382110Y-10543050D01*
X16431136Y-10543050D01*
X16436903Y-10544473D01*
X16441347Y-10548415D01*
X16443448Y-10553972D01*
X16442723Y-10559867D01*
X16439338Y-10564750D01*
X16436712Y-10566120D01*
X16436841Y-10566349D01*
X16431924Y-10569114D01*
X16430787Y-10569679D01*
X16427177Y-10571247D01*
X16425864Y-10572314D01*
X16424118Y-10573503D01*
X16422644Y-10574332D01*
X16419860Y-10577116D01*
X16418918Y-10577966D01*
X16415864Y-10580450D01*
X16414889Y-10581832D01*
X16413527Y-10583449D01*
X16175658Y-10821318D01*
X16171635Y-10824006D01*
X16166890Y-10824950D01*
X16064638Y-10824950D01*
X16059336Y-10823760D01*
X16055052Y-10820417D01*
X16050030Y-10814296D01*
X16042220Y-10804780D01*
X16026528Y-10791903D01*
X16026528Y-10791902D01*
X16016861Y-10786735D01*
X16008626Y-10782334D01*
X15989201Y-10776441D01*
X15989201Y-10776441D01*
X15989201Y-10776441D01*
X15969000Y-10774451D01*
X15948799Y-10776441D01*
X15948799Y-10776441D01*
X15948799Y-10776441D01*
X15929374Y-10782334D01*
X15929373Y-10782334D01*
X15929373Y-10782334D01*
X15911471Y-10791902D01*
X15895780Y-10804780D01*
X15882902Y-10820472D01*
X15873334Y-10838373D01*
X15873334Y-10838374D01*
X15869200Y-10852000D01*
X15867441Y-10857799D01*
X15865451Y-10878000D01*
X15867441Y-10898201D01*
X15867441Y-10898201D01*
X15867441Y-10898201D01*
X15873334Y-10917626D01*
X15873334Y-10917627D01*
X15882043Y-10933920D01*
X15882902Y-10935529D01*
X15895780Y-10951220D01*
X15911471Y-10964098D01*
X15929374Y-10973666D01*
X15948799Y-10979559D01*
X15969000Y-10981549D01*
X15989201Y-10979559D01*
X16008626Y-10973666D01*
X16026528Y-10964098D01*
X16042220Y-10951220D01*
X16055052Y-10935584D01*
X16059336Y-10932241D01*
X16064638Y-10931050D01*
X16192879Y-10931050D01*
X16193303Y-10931057D01*
X16199476Y-10931268D01*
X16199476Y-10931268D01*
X16199476Y-10931268D01*
X16203301Y-10930336D01*
X16204548Y-10930099D01*
X16208447Y-10929563D01*
X16209998Y-10928889D01*
X16212002Y-10928216D01*
X16213645Y-10927815D01*
X16217077Y-10925885D01*
X16218211Y-10925322D01*
X16221823Y-10923753D01*
X16223134Y-10922686D01*
X16224882Y-10921497D01*
X16226356Y-10920668D01*
X16229139Y-10917884D01*
X16230081Y-10917035D01*
X16233135Y-10914550D01*
X16234110Y-10913168D01*
X16235472Y-10911552D01*
X16473342Y-10673682D01*
X16477365Y-10670994D01*
X16482110Y-10670050D01*
X16499910Y-10670050D01*
X16506352Y-10671855D01*
X16510919Y-10676745D01*
X16512281Y-10683297D01*
X16510040Y-10689601D01*
X16507252Y-10691869D01*
X16507498Y-10692172D01*
X16504864Y-10694314D01*
X16503118Y-10695503D01*
X16501644Y-10696332D01*
X16498860Y-10699116D01*
X16497918Y-10699966D01*
X16494864Y-10702450D01*
X16493889Y-10703832D01*
X16492527Y-10705449D01*
X16122658Y-11075318D01*
X16118635Y-11078006D01*
X16113890Y-11078950D01*
X16064638Y-11078950D01*
X16059336Y-11077760D01*
X16055052Y-11074417D01*
X16051564Y-11070166D01*
X16042220Y-11058780D01*
X16026528Y-11045903D01*
X16026528Y-11045902D01*
X16016861Y-11040735D01*
X16008626Y-11036334D01*
X15989201Y-11030441D01*
X15989201Y-11030441D01*
X15989201Y-11030441D01*
X15969000Y-11028451D01*
X15948799Y-11030441D01*
X15948799Y-11030441D01*
X15948799Y-11030441D01*
X15929374Y-11036334D01*
X15929373Y-11036334D01*
X15929373Y-11036334D01*
X15911471Y-11045902D01*
X15895780Y-11058780D01*
X15882902Y-11074472D01*
X15877960Y-11083719D01*
X15873334Y-11092374D01*
X15871627Y-11098000D01*
X15867441Y-11111799D01*
X15865451Y-11132000D01*
X15346050Y-11132000D01*
X15346050Y-9559038D01*
X15346671Y-9555162D01*
X15348473Y-9551675D01*
X15350626Y-9548758D01*
X15354991Y-9542843D01*
X15359277Y-9530594D01*
X15359550Y-9527686D01*
X15359550Y-9392314D01*
X15359277Y-9389406D01*
X15354991Y-9377157D01*
X15349473Y-9369680D01*
X15347671Y-9366193D01*
X15347050Y-9362317D01*
X15347050Y-9354000D01*
X15865451Y-9354000D01*
X15867441Y-9374201D01*
X15867441Y-9374201D01*
X15867441Y-9374201D01*
X15873334Y-9393626D01*
X15873334Y-9393627D01*
X15881824Y-9409511D01*
X15882902Y-9411529D01*
X15895780Y-9427220D01*
X15911471Y-9440098D01*
X15929374Y-9449666D01*
X15948799Y-9455559D01*
X15969000Y-9457549D01*
X15984723Y-9456000D01*
X16546936Y-9456000D01*
X16813064Y-9456000D01*
X16813064Y-9456000D01*
X16807343Y-9434651D01*
X16797360Y-9413242D01*
X16783811Y-9393892D01*
X16767108Y-9377189D01*
X16747758Y-9363640D01*
X16726349Y-9353657D01*
X16710476Y-9349404D01*
X16704975Y-9346252D01*
X16701751Y-9340792D01*
X16701648Y-9334453D01*
X16704691Y-9328891D01*
X16710086Y-9325560D01*
X16719626Y-9322666D01*
X16737528Y-9313098D01*
X16753220Y-9300220D01*
X16766097Y-9284529D01*
X16775666Y-9266626D01*
X16781559Y-9247201D01*
X16783549Y-9227000D01*
X16781559Y-9206799D01*
X16775666Y-9187374D01*
X16766097Y-9169472D01*
X16753220Y-9153780D01*
X16739115Y-9142204D01*
X16737528Y-9140902D01*
X16725143Y-9134283D01*
X16719626Y-9131334D01*
X16700201Y-9125441D01*
X16700201Y-9125441D01*
X16700201Y-9125441D01*
X16680000Y-9123451D01*
X16659799Y-9125441D01*
X16659799Y-9125441D01*
X16659799Y-9125441D01*
X16640374Y-9131334D01*
X16640373Y-9131334D01*
X16640373Y-9131334D01*
X16622471Y-9140902D01*
X16606780Y-9153780D01*
X16593902Y-9169472D01*
X16585309Y-9185548D01*
X16584334Y-9187374D01*
X16579409Y-9203606D01*
X16578441Y-9206799D01*
X16576451Y-9227000D01*
X16578441Y-9247201D01*
X16578441Y-9247201D01*
X16578441Y-9247201D01*
X16584334Y-9266626D01*
X16586799Y-9271238D01*
X16593576Y-9283918D01*
X16593902Y-9284529D01*
X16606780Y-9300220D01*
X16622471Y-9313098D01*
X16640374Y-9322666D01*
X16649914Y-9325560D01*
X16655309Y-9328891D01*
X16658352Y-9334453D01*
X16658248Y-9340792D01*
X16655025Y-9346252D01*
X16649523Y-9349404D01*
X16633651Y-9353657D01*
X16612242Y-9363640D01*
X16592892Y-9377189D01*
X16576189Y-9393892D01*
X16562640Y-9413242D01*
X16552657Y-9434651D01*
X16546936Y-9456000D01*
X16546936Y-9456000D01*
X15984723Y-9456000D01*
X15989201Y-9455559D01*
X16008626Y-9449666D01*
X16026528Y-9440098D01*
X16042220Y-9427220D01*
X16055097Y-9411529D01*
X16064666Y-9393626D01*
X16070559Y-9374201D01*
X16072549Y-9354000D01*
X16070559Y-9333799D01*
X16064666Y-9314374D01*
X16055097Y-9296472D01*
X16042220Y-9280780D01*
X16029217Y-9270109D01*
X16026528Y-9267902D01*
X16013750Y-9261072D01*
X16008626Y-9258334D01*
X15989201Y-9252441D01*
X15989201Y-9252441D01*
X15989201Y-9252441D01*
X15969000Y-9250451D01*
X15948799Y-9252441D01*
X15948799Y-9252441D01*
X15948799Y-9252441D01*
X15929374Y-9258334D01*
X15929373Y-9258334D01*
X15929373Y-9258334D01*
X15911471Y-9267902D01*
X15895780Y-9280780D01*
X15882902Y-9296472D01*
X15880899Y-9300220D01*
X15873334Y-9314374D01*
X15869940Y-9325560D01*
X15867441Y-9333799D01*
X15865451Y-9354000D01*
X15347050Y-9354000D01*
X15347050Y-9257324D01*
X15347994Y-9252578D01*
X15350682Y-9248555D01*
X15395631Y-9203606D01*
X15540402Y-9058835D01*
X15540944Y-9058325D01*
X15545310Y-9054457D01*
X15548623Y-9049657D01*
X15549066Y-9049056D01*
X15552664Y-9044464D01*
X15553054Y-9043596D01*
X15554157Y-9041640D01*
X15554186Y-9041599D01*
X15554698Y-9040857D01*
X15556767Y-9035399D01*
X15557051Y-9034714D01*
X15559446Y-9029394D01*
X15559617Y-9028458D01*
X15560220Y-9026295D01*
X15560558Y-9025405D01*
X15561261Y-9019614D01*
X15561373Y-9018875D01*
X15561735Y-9016904D01*
X15562425Y-9013139D01*
X15562073Y-9007318D01*
X15562050Y-9006569D01*
X15562050Y-8973000D01*
X16576451Y-8973000D01*
X16578441Y-8993201D01*
X16578441Y-8993201D01*
X16578441Y-8993201D01*
X16584334Y-9012626D01*
X16587838Y-9019182D01*
X16593296Y-9029394D01*
X16593902Y-9030529D01*
X16606780Y-9046220D01*
X16622471Y-9059098D01*
X16640374Y-9068666D01*
X16659799Y-9074559D01*
X16680000Y-9076549D01*
X16700201Y-9074559D01*
X16719626Y-9068666D01*
X16737528Y-9059098D01*
X16753220Y-9046220D01*
X16766097Y-9030529D01*
X16775666Y-9012626D01*
X16781559Y-8993201D01*
X16783549Y-8973000D01*
X16781559Y-8952799D01*
X16775666Y-8933374D01*
X16766097Y-8915472D01*
X16753220Y-8899780D01*
X16737528Y-8886903D01*
X16737528Y-8886902D01*
X16725820Y-8880644D01*
X16719626Y-8877334D01*
X16700201Y-8871441D01*
X16700201Y-8871441D01*
X16700201Y-8871441D01*
X16680000Y-8869451D01*
X16659799Y-8871441D01*
X16659799Y-8871441D01*
X16659799Y-8871441D01*
X16640374Y-8877334D01*
X16640373Y-8877334D01*
X16640373Y-8877334D01*
X16622471Y-8886902D01*
X16606780Y-8899780D01*
X16593902Y-8915472D01*
X16584334Y-8933373D01*
X16584334Y-8933374D01*
X16579440Y-8949506D01*
X16578441Y-8952799D01*
X16576451Y-8973000D01*
X15562050Y-8973000D01*
X15562050Y-8802398D01*
X15563711Y-8796198D01*
X15568250Y-8791659D01*
X15574450Y-8789998D01*
X15658468Y-8790000D01*
X15658468Y-8790000D01*
X15658468Y-8789998D01*
X15659991Y-8719000D01*
X16576451Y-8719000D01*
X16578441Y-8739201D01*
X16578441Y-8739201D01*
X16578441Y-8739201D01*
X16584334Y-8758626D01*
X16593902Y-8776529D01*
X16606780Y-8792220D01*
X16622471Y-8805098D01*
X16640374Y-8814666D01*
X16659799Y-8820559D01*
X16680000Y-8822549D01*
X16700201Y-8820559D01*
X16719626Y-8814666D01*
X16737528Y-8805098D01*
X16753220Y-8792220D01*
X16766097Y-8776529D01*
X16775666Y-8758626D01*
X16781559Y-8739201D01*
X16783549Y-8719000D01*
X16781559Y-8698799D01*
X16775666Y-8679374D01*
X16766097Y-8661472D01*
X16753220Y-8645780D01*
X16737528Y-8632903D01*
X16737528Y-8632902D01*
X16727861Y-8627735D01*
X16719626Y-8623334D01*
X16700201Y-8617441D01*
X16700201Y-8617441D01*
X16700201Y-8617441D01*
X16682824Y-8615730D01*
X16680000Y-8615451D01*
X16680000Y-8615451D01*
X16659799Y-8617441D01*
X16659799Y-8617441D01*
X16659799Y-8617441D01*
X16640374Y-8623334D01*
X16640373Y-8623334D01*
X16640373Y-8623334D01*
X16622471Y-8632902D01*
X16606780Y-8645780D01*
X16593902Y-8661472D01*
X16584334Y-8679373D01*
X16584334Y-8679374D01*
X16579046Y-8696805D01*
X16578441Y-8698799D01*
X16576451Y-8719000D01*
X15659991Y-8719000D01*
X15668901Y-8303578D01*
X15670468Y-8230500D01*
X15670468Y-8230500D01*
X15090920Y-8230591D01*
X15084719Y-8228931D01*
X15080180Y-8224392D01*
X15078518Y-8218191D01*
X15078518Y-8153450D01*
X15080180Y-8147250D01*
X15084718Y-8142711D01*
X15090918Y-8141050D01*
X15102124Y-8141050D01*
X15111876Y-8141050D01*
X16100321Y-8141050D01*
X16105067Y-8141994D01*
X16109089Y-8144682D01*
X16181318Y-8216911D01*
X16184006Y-8220933D01*
X16184950Y-8225679D01*
X16184950Y-8401701D01*
X16184797Y-8403641D01*
X16184566Y-8405103D01*
X16184933Y-8412112D01*
X16184950Y-8412761D01*
X16184950Y-8414876D01*
X16185171Y-8416979D01*
X16185222Y-8417626D01*
X16185589Y-8424636D01*
X16185973Y-8426068D01*
X16186327Y-8427981D01*
X16186482Y-8429453D01*
X16188651Y-8436127D01*
X16188834Y-8436746D01*
X16190521Y-8443043D01*
X16190652Y-8443530D01*
X16191324Y-8444850D01*
X16192068Y-8446646D01*
X16192526Y-8448055D01*
X16196036Y-8454135D01*
X16196345Y-8454704D01*
X16199532Y-8460958D01*
X16200464Y-8462109D01*
X16201565Y-8463711D01*
X16202306Y-8464995D01*
X16202306Y-8464995D01*
X16207004Y-8470212D01*
X16207425Y-8470705D01*
X16208756Y-8472349D01*
X16210250Y-8473842D01*
X16210697Y-8474313D01*
X16215394Y-8479531D01*
X16216592Y-8480401D01*
X16218072Y-8481665D01*
X16261335Y-8524928D01*
X16262599Y-8526407D01*
X16263469Y-8527606D01*
X16268686Y-8532302D01*
X16269157Y-8532749D01*
X16270651Y-8534244D01*
X16272295Y-8535575D01*
X16272789Y-8535997D01*
X16278005Y-8540694D01*
X16279288Y-8541434D01*
X16280892Y-8542536D01*
X16281827Y-8543294D01*
X16282042Y-8543468D01*
X16288295Y-8546654D01*
X16288864Y-8546963D01*
X16294945Y-8550474D01*
X16296353Y-8550931D01*
X16298150Y-8551676D01*
X16299470Y-8552348D01*
X16299470Y-8552348D01*
X16303207Y-8553350D01*
X16306252Y-8554165D01*
X16306868Y-8554348D01*
X16313547Y-8556518D01*
X16315019Y-8556673D01*
X16316933Y-8557027D01*
X16316991Y-8557043D01*
X16318363Y-8557411D01*
X16325372Y-8557778D01*
X16326020Y-8557829D01*
X16328124Y-8558050D01*
X16328124Y-8558050D01*
X16330241Y-8558050D01*
X16330889Y-8558067D01*
X16337897Y-8558434D01*
X16339358Y-8558203D01*
X16341298Y-8558050D01*
X16572042Y-8558050D01*
X16577888Y-8559514D01*
X16581079Y-8562407D01*
X16581987Y-8563013D01*
X16581987Y-8563013D01*
X16587957Y-8567003D01*
X16593222Y-8568050D01*
X16766778Y-8568050D01*
X16772043Y-8567003D01*
X16778013Y-8563013D01*
X16782003Y-8557043D01*
X16783050Y-8551778D01*
X16783050Y-8378222D01*
X16782003Y-8372957D01*
X16778013Y-8366987D01*
X16772043Y-8362997D01*
X16772043Y-8362997D01*
X16766778Y-8361950D01*
X16593222Y-8361950D01*
X16587957Y-8362997D01*
X16581079Y-8367593D01*
X16577888Y-8370486D01*
X16572042Y-8371950D01*
X16383450Y-8371950D01*
X16377250Y-8370289D01*
X16372711Y-8365750D01*
X16371050Y-8359550D01*
X16371050Y-8236000D01*
X17146944Y-8236000D01*
X17148803Y-8259630D01*
X17154337Y-8282679D01*
X17160057Y-8296489D01*
X17163408Y-8304578D01*
X17175793Y-8324789D01*
X17191187Y-8342813D01*
X17209211Y-8358207D01*
X17229422Y-8370592D01*
X17245601Y-8377294D01*
X17251321Y-8379663D01*
X17258602Y-8381411D01*
X17274370Y-8385197D01*
X17298000Y-8387056D01*
X17321630Y-8385197D01*
X17344679Y-8379663D01*
X17366578Y-8370592D01*
X17386789Y-8358207D01*
X17404813Y-8342813D01*
X17420207Y-8324789D01*
X17432592Y-8304578D01*
X17441663Y-8282679D01*
X17447197Y-8259630D01*
X17449056Y-8236000D01*
X17447197Y-8212370D01*
X17441663Y-8189321D01*
X17441249Y-8188321D01*
X17436602Y-8177101D01*
X17432592Y-8167422D01*
X17420207Y-8147211D01*
X17404813Y-8129187D01*
X17386789Y-8113793D01*
X17366578Y-8101408D01*
X17358489Y-8098057D01*
X17344679Y-8092337D01*
X17321631Y-8086803D01*
X17305188Y-8085509D01*
X17298000Y-8084944D01*
X17298000Y-8084944D01*
X17274369Y-8086803D01*
X17251321Y-8092337D01*
X17231836Y-8100408D01*
X17230619Y-8100912D01*
X17229422Y-8101408D01*
X17209211Y-8113793D01*
X17191187Y-8129187D01*
X17175793Y-8147211D01*
X17163408Y-8167422D01*
X17154337Y-8189321D01*
X17148803Y-8212369D01*
X17146944Y-8236000D01*
X16371050Y-8236000D01*
X16371050Y-8190298D01*
X16371203Y-8188358D01*
X16371209Y-8188321D01*
X16371434Y-8186897D01*
X16371067Y-8179889D01*
X16371050Y-8179241D01*
X16371050Y-8177124D01*
X16370829Y-8175020D01*
X16370778Y-8174372D01*
X16370411Y-8167363D01*
X16370027Y-8165933D01*
X16369672Y-8164019D01*
X16369518Y-8162547D01*
X16369518Y-8162547D01*
X16367348Y-8155869D01*
X16367166Y-8155253D01*
X16365348Y-8148470D01*
X16364726Y-8147250D01*
X16364676Y-8147150D01*
X16363931Y-8145353D01*
X16363474Y-8143945D01*
X16363474Y-8143945D01*
X16359964Y-8137866D01*
X16359654Y-8137295D01*
X16357195Y-8132469D01*
X16356468Y-8131042D01*
X16355536Y-8129892D01*
X16354434Y-8128288D01*
X16353694Y-8127005D01*
X16351964Y-8125085D01*
X16348995Y-8121787D01*
X16348574Y-8121294D01*
X16347244Y-8119651D01*
X16345750Y-8118158D01*
X16345303Y-8117687D01*
X16340605Y-8112469D01*
X16339407Y-8111598D01*
X16337928Y-8110335D01*
X16274592Y-8047000D01*
X16548901Y-8047000D01*
X16550839Y-8070383D01*
X16550839Y-8070383D01*
X16550839Y-8070383D01*
X16556599Y-8093129D01*
X16560847Y-8102814D01*
X16566024Y-8114616D01*
X16566024Y-8114616D01*
X16578857Y-8134259D01*
X16594749Y-8151522D01*
X16613265Y-8165934D01*
X16633901Y-8177101D01*
X16642023Y-8179889D01*
X16656092Y-8184720D01*
X16656093Y-8184720D01*
X16656093Y-8184720D01*
X16679236Y-8188582D01*
X16702700Y-8188582D01*
X16702700Y-8188582D01*
X16725844Y-8184720D01*
X16748036Y-8177101D01*
X16768672Y-8165934D01*
X16787188Y-8151522D01*
X16803079Y-8134259D01*
X16815913Y-8114616D01*
X16825338Y-8093129D01*
X16831098Y-8070383D01*
X16833035Y-8047000D01*
X16831098Y-8023616D01*
X16825338Y-8000871D01*
X16816488Y-7980697D01*
X16815913Y-7979384D01*
X16815502Y-7978756D01*
X16803079Y-7959741D01*
X16787188Y-7942478D01*
X16768672Y-7928066D01*
X16748036Y-7916899D01*
X16748036Y-7916899D01*
X16748035Y-7916899D01*
X16725844Y-7909280D01*
X16706195Y-7906001D01*
X16702700Y-7905418D01*
X16679236Y-7905418D01*
X16675742Y-7906001D01*
X16656092Y-7909280D01*
X16633901Y-7916899D01*
X16633901Y-7916899D01*
X16633901Y-7916899D01*
X16620143Y-7924344D01*
X16613265Y-7928066D01*
X16594749Y-7942478D01*
X16581758Y-7956589D01*
X16578857Y-7959741D01*
X16576384Y-7963526D01*
X16566024Y-7979384D01*
X16556599Y-8000871D01*
X16550839Y-8023617D01*
X16548901Y-8047000D01*
X16274592Y-8047000D01*
X16215665Y-7988072D01*
X16214401Y-7986592D01*
X16213531Y-7985394D01*
X16208313Y-7980697D01*
X16207842Y-7980250D01*
X16206348Y-7978756D01*
X16204705Y-7977425D01*
X16204212Y-7977004D01*
X16198995Y-7972306D01*
X16198995Y-7972306D01*
X16197711Y-7971565D01*
X16196108Y-7970464D01*
X16194958Y-7969532D01*
X16188704Y-7966345D01*
X16188135Y-7966036D01*
X16182055Y-7962526D01*
X16180646Y-7962068D01*
X16178849Y-7961324D01*
X16177530Y-7960652D01*
X16177043Y-7960521D01*
X16170746Y-7958834D01*
X16170127Y-7958651D01*
X16163453Y-7956482D01*
X16161981Y-7956327D01*
X16160068Y-7955973D01*
X16158636Y-7955589D01*
X16151626Y-7955222D01*
X16150979Y-7955171D01*
X16148876Y-7954950D01*
X16146761Y-7954950D01*
X16146112Y-7954933D01*
X16145671Y-7954910D01*
X16139103Y-7954566D01*
X16139103Y-7954566D01*
X16138291Y-7954694D01*
X16137641Y-7954797D01*
X16135701Y-7954950D01*
X15111876Y-7954950D01*
X15005299Y-7954950D01*
X15003359Y-7954797D01*
X15001897Y-7954566D01*
X14994888Y-7954933D01*
X14994239Y-7954950D01*
X10504299Y-7954950D01*
X10502359Y-7954797D01*
X10500897Y-7954566D01*
X10493888Y-7954933D01*
X10493239Y-7954950D01*
X10491123Y-7954950D01*
X10489020Y-7955171D01*
X10488373Y-7955222D01*
X10480967Y-7955610D01*
X10478385Y-7955950D01*
X10342299Y-7955950D01*
X10340359Y-7955797D01*
X10338897Y-7955566D01*
X10331888Y-7955933D01*
X10331239Y-7955950D01*
X10329124Y-7955950D01*
X10327021Y-7956171D01*
X10326374Y-7956222D01*
X10319363Y-7956589D01*
X10317932Y-7956973D01*
X10316019Y-7957327D01*
X10314547Y-7957482D01*
X10307872Y-7959651D01*
X10307250Y-7959835D01*
X10300470Y-7961652D01*
X10299150Y-7962325D01*
X10297354Y-7963068D01*
X10295945Y-7963526D01*
X10289865Y-7967036D01*
X10289295Y-7967346D01*
X10283043Y-7970532D01*
X10281892Y-7971464D01*
X10280289Y-7972565D01*
X10279005Y-7973306D01*
X10273789Y-7978003D01*
X10273296Y-7978424D01*
X10271652Y-7979756D01*
X10270155Y-7981253D01*
X10269684Y-7981699D01*
X10264469Y-7986394D01*
X10263599Y-7987592D01*
X10262336Y-7989072D01*
X10121072Y-8130335D01*
X10119593Y-8131599D01*
X10118395Y-8132469D01*
X10113698Y-8137685D01*
X10113252Y-8138155D01*
X10111756Y-8139652D01*
X10110426Y-8141293D01*
X10110005Y-8141786D01*
X10105306Y-8147005D01*
X10104566Y-8148288D01*
X10103464Y-8149891D01*
X10102532Y-8151042D01*
X10099346Y-8157295D01*
X10099036Y-8157865D01*
X10095526Y-8163945D01*
X10095068Y-8165354D01*
X10094325Y-8167150D01*
X10093652Y-8168470D01*
X10091835Y-8175249D01*
X10091651Y-8175871D01*
X10091158Y-8177389D01*
X10089482Y-8182547D01*
X10089327Y-8184019D01*
X10088973Y-8185931D01*
X10088589Y-8187363D01*
X10088222Y-8194374D01*
X10088171Y-8195021D01*
X10087950Y-8197124D01*
X10087950Y-8199239D01*
X10087933Y-8199888D01*
X10087566Y-8206897D01*
X10087797Y-8208359D01*
X10087950Y-8210299D01*
X10087950Y-8807321D01*
X10087006Y-8812067D01*
X10084318Y-8816089D01*
X10007089Y-8893318D01*
X10003067Y-8896006D01*
X9998321Y-8896950D01*
X9619299Y-8896950D01*
X9617359Y-8896797D01*
X9615897Y-8896566D01*
X9608888Y-8896933D01*
X9608239Y-8896950D01*
X9606124Y-8896950D01*
X9604021Y-8897171D01*
X9603374Y-8897222D01*
X9596364Y-8897589D01*
X9594932Y-8897973D01*
X9593020Y-8898327D01*
X9591547Y-8898482D01*
X9584875Y-8900650D01*
X9584253Y-8900834D01*
X9577470Y-8902652D01*
X9576150Y-8903325D01*
X9574353Y-8904069D01*
X9572945Y-8904526D01*
X9566867Y-8908035D01*
X9566297Y-8908345D01*
X9560042Y-8911532D01*
X9558891Y-8912464D01*
X9557289Y-8913565D01*
X9556005Y-8914306D01*
X9550789Y-8919003D01*
X9550296Y-8919424D01*
X9548652Y-8920756D01*
X9547155Y-8922253D01*
X9546684Y-8922699D01*
X9541469Y-8927395D01*
X9540599Y-8928592D01*
X9539336Y-8930072D01*
X9429072Y-9040335D01*
X9427593Y-9041599D01*
X9426395Y-9042469D01*
X9421698Y-9047685D01*
X9421252Y-9048155D01*
X9419756Y-9049652D01*
X9418426Y-9051294D01*
X9418005Y-9051786D01*
X9413306Y-9057006D01*
X9412566Y-9058288D01*
X9411464Y-9059891D01*
X9410532Y-9061042D01*
X9407346Y-9067295D01*
X9407036Y-9067865D01*
X9403526Y-9073945D01*
X9403068Y-9075354D01*
X9402325Y-9077150D01*
X9401652Y-9078470D01*
X9399835Y-9085250D01*
X9399651Y-9085872D01*
X9397482Y-9092547D01*
X9397327Y-9094019D01*
X9396973Y-9095932D01*
X9396589Y-9097363D01*
X9396222Y-9104374D01*
X9396171Y-9105021D01*
X9395950Y-9107124D01*
X9395950Y-9109239D01*
X9395933Y-9109888D01*
X9395566Y-9116897D01*
X9395797Y-9118359D01*
X9395950Y-9120299D01*
X9395950Y-10315701D01*
X9395797Y-10317641D01*
X9395566Y-10319103D01*
X9067453Y-10319103D01*
X9068721Y-8235000D01*
X9244944Y-8235000D01*
X9246803Y-8258630D01*
X9252337Y-8281679D01*
X9258057Y-8295489D01*
X9261408Y-8303578D01*
X9273793Y-8323789D01*
X9289187Y-8341813D01*
X9307211Y-8357207D01*
X9327422Y-8369592D01*
X9343601Y-8376294D01*
X9349321Y-8378663D01*
X9356602Y-8380411D01*
X9372370Y-8384197D01*
X9396000Y-8386056D01*
X9419630Y-8384197D01*
X9442679Y-8378663D01*
X9464578Y-8369592D01*
X9484789Y-8357207D01*
X9502813Y-8341813D01*
X9518207Y-8323789D01*
X9530592Y-8303578D01*
X9539663Y-8281679D01*
X9545197Y-8258630D01*
X9547056Y-8235000D01*
X9545197Y-8211370D01*
X9540138Y-8190298D01*
X9539663Y-8188321D01*
X9536171Y-8179889D01*
X9530592Y-8166422D01*
X9518207Y-8146211D01*
X9502813Y-8128187D01*
X9484789Y-8112793D01*
X9464578Y-8100408D01*
X9456489Y-8097057D01*
X9442679Y-8091337D01*
X9419631Y-8085803D01*
X9403188Y-8084509D01*
X9396000Y-8083944D01*
X9396000Y-8083944D01*
X9372369Y-8085803D01*
X9349321Y-8091337D01*
X9327422Y-8100408D01*
X9307211Y-8112793D01*
X9289187Y-8128187D01*
X9273793Y-8146211D01*
X9261408Y-8166422D01*
X9252337Y-8188321D01*
X9246803Y-8211369D01*
X9244944Y-8235000D01*
X9068721Y-8235000D01*
X9068836Y-8047000D01*
X9745433Y-8047000D01*
X9747371Y-8070383D01*
X9747371Y-8070383D01*
X9747371Y-8070383D01*
X9753131Y-8093129D01*
X9757379Y-8102814D01*
X9762556Y-8114616D01*
X9762556Y-8114616D01*
X9775389Y-8134259D01*
X9791281Y-8151522D01*
X9809797Y-8165934D01*
X9830432Y-8177101D01*
X9838554Y-8179889D01*
X9852624Y-8184720D01*
X9852624Y-8184720D01*
X9852625Y-8184720D01*
X9875768Y-8188582D01*
X9899232Y-8188582D01*
X9899232Y-8188582D01*
X9922375Y-8184720D01*
X9944568Y-8177101D01*
X9965203Y-8165934D01*
X9983719Y-8151522D01*
X9999611Y-8134259D01*
X10012444Y-8114616D01*
X10021869Y-8093129D01*
X10027629Y-8070383D01*
X10029567Y-8047000D01*
X10027629Y-8023616D01*
X10021869Y-8000871D01*
X10013020Y-7980697D01*
X10012444Y-7979384D01*
X10012034Y-7978756D01*
X9999611Y-7959741D01*
X9983719Y-7942478D01*
X9965203Y-7928066D01*
X9944568Y-7916899D01*
X9944567Y-7916899D01*
X9944567Y-7916899D01*
X9922376Y-7909280D01*
X9902727Y-7906001D01*
X9899232Y-7905418D01*
X9875768Y-7905418D01*
X9872273Y-7906001D01*
X9852624Y-7909280D01*
X9830433Y-7916899D01*
X9830432Y-7916899D01*
X9830432Y-7916899D01*
X9816675Y-7924344D01*
X9809797Y-7928066D01*
X9791281Y-7942478D01*
X9778290Y-7956589D01*
X9775389Y-7959741D01*
X9772916Y-7963526D01*
X9762556Y-7979384D01*
X9753131Y-8000871D01*
X9747371Y-8023617D01*
X9745433Y-8047000D01*
X9068836Y-8047000D01*
X9068992Y-7789398D01*
X9070657Y-7783200D01*
X9075198Y-7778664D01*
X9081398Y-7777006D01*
X17619603Y-7780994D01*
G37*
%TD.AperFunction*%
%TD*%
D33*
X17448541Y-8236000D02*
G75*
G03*
X17448541Y-8236000I-150541J0D01*
G01*
D34*
X17099000Y-8498000D02*
X17317000Y-8498000D01*
X17317000Y-9587000D01*
X17099000Y-9587000D01*
X17099000Y-8498000D01*
X16832500Y-8047000D02*
G75*
G03*
X16832500Y-8047000I-141532J0D01*
G01*
X10029032Y-8047000D02*
G75*
G03*
X10029032Y-8047000I-141532J0D01*
G01*
D33*
X9557541Y-12227000D02*
G75*
G03*
X9557541Y-12227000I-150541J0D01*
G01*
D34*
X17096000Y-9749000D02*
X17314000Y-9749000D01*
X17314000Y-11111000D01*
X17096000Y-11111000D01*
X17096000Y-9749000D01*
D33*
X9546541Y-8235000D02*
G75*
G03*
X9546541Y-8235000I-150541J0D01*
G01*
X17445541Y-12234000D02*
G75*
G03*
X17445541Y-12234000I-150541J0D01*
G01*
D34*
X10075000Y-11957000D02*
G75*
G03*
X10075000Y-11957000I-141532J0D01*
G01*
X16833000Y-11969500D02*
G75*
G03*
X16833000Y-11969500I-141532J0D01*
G01*
X9056000Y-7769500D02*
X17641000Y-7769500D01*
X17641000Y-12719500D01*
X9056000Y-12719500D01*
X9056000Y-7769500D01*
M02*
